<svg width="388" height="374" viewBox="0 0 388 374" fill="none" xmlns="http://www.w3.org/2000/svg">
<path d="M194.234 380.001C277.055 380.001 344.195 371.649 344.195 361.346C344.195 351.044 277.055 342.691 194.234 342.691C111.413 342.691 44.2734 351.044 44.2734 361.346C44.2734 371.649 111.413 380.001 194.234 380.001Z" fill="#EBEBEB"/>
<path d="M1.80664 314.95L49.914 314.73L98.0213 314.648L194.236 314.492L290.451 314.648L338.558 314.73L386.656 314.95L338.558 315.17L290.451 315.253L194.236 315.408L98.0213 315.253L49.914 315.17L1.80664 314.95Z" fill="#263238"/>
<path d="M345.838 173.63C345.838 173.63 325.906 170.881 330.56 146.875C330.56 146.875 352.838 151.859 345.838 173.63Z" fill="#35A5B2"/>
<path opacity="0.1" d="M345.838 173.63C345.838 173.63 325.906 170.881 330.56 146.875C330.56 146.875 352.838 151.859 345.838 173.63Z" fill="black"/>
<path d="M344.834 168.619C344.439 167.41 343.979 166.218 343.473 165.055L343.418 164.597L343.335 163.607C343.28 162.892 343.234 162.178 343.197 161.463C343.114 160.025 343.022 158.595 342.994 157.157C342.994 157.083 342.875 157.083 342.875 157.157C342.875 158.586 342.875 160.025 342.875 161.454C342.875 162.178 342.948 162.892 342.994 163.607C342.994 163.763 342.994 163.928 342.994 164.084C341.877 161.695 340.538 159.415 338.993 157.276C338.312 156.36 337.586 155.443 336.813 154.527C336.04 153.611 335.185 152.759 334.376 151.87C334.33 151.806 334.238 151.87 334.293 151.952C335.721 153.532 337.008 155.234 338.138 157.038C338.745 157.954 339.315 158.87 339.858 159.841L339.674 159.768L338.966 159.484L337.337 158.87C336.261 158.476 335.194 158.091 334.127 157.688C334.063 157.688 334.017 157.771 334.127 157.798C335.185 158.22 336.234 158.659 337.282 159.108L338.828 159.777L339.609 160.098C339.778 160.176 339.953 160.238 340.134 160.281C340.538 160.996 340.934 161.72 341.302 162.453C342.228 164.312 343.042 166.224 343.739 168.179C343.785 168.317 343.831 168.454 343.887 168.592C343.361 168.289 342.814 168.025 342.249 167.804L340.189 166.887C338.791 166.246 337.429 165.595 336.059 164.844C335.994 164.844 335.93 164.908 336.004 164.945C337.374 165.696 338.717 166.484 340.088 167.226C340.768 167.602 341.458 167.959 342.167 168.298C342.738 168.64 343.358 168.894 344.006 169.05C344.675 170.864 345.113 172.753 345.312 174.676C345.533 177.424 345.515 180.118 345.579 182.839C345.579 182.839 345.644 182.839 345.653 182.839C345.846 180.375 345.956 177.882 345.965 175.409C345.954 173.1 345.573 170.808 344.834 168.619Z" fill="#263238"/>
<path d="M341.762 154.524C341.571 155.923 341.504 157.336 341.56 158.748H341.625C341.707 157.346 341.716 155.999 341.881 154.551C341.891 154.478 341.771 154.45 341.762 154.524Z" fill="#263238"/>
<path d="M336.06 155.712C335.17 155.373 334.314 154.953 333.503 154.456C333.429 154.41 333.374 154.52 333.439 154.566C334.24 155.097 335.113 155.511 336.033 155.794C336.033 155.794 336.106 155.712 336.06 155.712Z" fill="#263238"/>
<path d="M346.472 211.681C346.472 209.491 346.417 207.292 346.39 205.102C346.353 197.809 346.276 190.521 346.16 183.24C346.055 177.449 345.92 171.665 345.755 165.886C345.755 165.886 345.755 165.831 345.7 165.813C345.7 164.228 345.7 162.652 345.7 161.067C345.7 161.067 345.644 161.012 345.598 161.012C345.552 161.012 345.506 161.012 345.506 161.076V165.822C345.506 165.822 345.46 165.822 345.46 165.886C345.166 176.185 344.899 186.484 344.844 196.782C344.844 198.871 344.844 200.97 344.844 203.059C344.771 209.778 344.743 216.497 344.761 223.216C344.761 224.279 344.761 225.351 344.761 226.423C344.761 232.562 344.817 238.71 344.826 244.849C344.826 245.179 345.194 245.344 345.58 245.362C345.966 245.381 346.5 245.197 346.5 244.822C346.5 238.051 346.546 231.27 346.546 224.499C346.491 220.22 346.509 215.951 346.472 211.681Z" fill="#263238"/>
<path d="M338.148 205.021C338.148 205.021 328.563 197.938 319.466 202.721C310.369 207.504 308.934 225.939 308.934 225.939C308.934 225.939 322.299 227.836 330.715 219.864C338.819 212.168 338.148 205.021 338.148 205.021Z" fill="#35A5B2"/>
<path d="M340.761 205.451C339.009 204.762 337.114 204.513 335.242 204.727C334.853 204.663 334.459 204.627 334.065 204.617L332.713 204.516L329.953 204.315C328.058 204.177 326.163 204.058 324.278 203.875C324.204 203.875 324.195 203.985 324.278 203.994C326.117 204.232 328.012 204.498 329.88 204.681C330.845 204.782 331.811 204.883 332.777 204.947L333.476 205.02C333.191 205.084 332.906 205.149 332.63 205.231C331.123 205.664 329.665 206.25 328.279 206.981C327.525 207.119 326.78 207.329 326.035 207.503C324.848 207.787 323.671 208.09 322.493 208.42C320.157 209.034 317.894 209.712 315.549 210.38C315.537 210.385 315.526 210.393 315.519 210.404C315.512 210.415 315.508 210.427 315.508 210.44C315.508 210.453 315.512 210.465 315.519 210.476C315.526 210.487 315.537 210.495 315.549 210.5C317.857 209.941 320.148 209.418 322.484 208.869L325.86 208.062L326.78 207.861C324.205 209.451 321.903 211.443 319.964 213.761C318.089 216.045 316.498 218.546 315.227 221.211C315.227 221.275 315.291 221.339 315.328 221.275C316.904 218.54 318.831 216.021 321.058 213.78C321.058 213.908 320.976 214.036 320.939 214.155C320.755 214.723 320.58 215.282 320.405 215.85C320.046 216.968 319.688 218.095 319.347 219.222C319.352 219.234 319.36 219.244 319.371 219.252C319.382 219.259 319.394 219.263 319.407 219.263C319.42 219.263 319.433 219.259 319.443 219.252C319.454 219.244 319.462 219.234 319.467 219.222C319.872 218.132 320.258 217.032 320.644 215.933C320.828 215.402 321.021 214.861 321.215 214.32L321.5 213.487C321.5 213.395 321.564 213.312 321.592 213.23C322.657 212.189 323.794 211.225 324.995 210.344C326.573 209.182 328.28 208.204 330.082 207.43C330.082 207.595 330.017 207.769 329.981 207.925L329.705 209.226C329.512 210.142 329.337 211.058 329.162 211.975C328.803 213.807 328.573 215.695 328.242 217.546C328.242 217.619 328.343 217.646 328.353 217.546C328.785 215.713 329.337 213.881 329.76 211.993C329.962 211.077 330.174 210.161 330.367 209.198C330.459 208.759 330.551 208.282 330.634 207.888C330.693 207.647 330.739 207.402 330.772 207.155C330.947 207.082 331.112 207.009 331.296 206.944C333.805 205.865 336.563 205.489 339.271 205.854C340.537 206.085 341.726 206.624 342.732 207.424C343.738 208.223 344.53 209.258 345.038 210.435C345.055 210.484 345.091 210.524 345.138 210.546C345.184 210.569 345.238 210.572 345.287 210.554C345.336 210.537 345.376 210.502 345.398 210.455C345.42 210.409 345.423 210.356 345.406 210.307C345.076 209.188 344.482 208.163 343.674 207.319C342.866 206.474 341.868 205.834 340.761 205.451Z" fill="#263238"/>
<path d="M326.088 213.323C325.812 214.532 325.546 215.742 325.279 216.988C324.974 218.15 324.749 219.332 324.607 220.524C324.607 220.57 324.672 220.57 324.681 220.524C325.032 219.359 325.305 218.171 325.5 216.969C325.73 215.769 325.969 214.578 326.199 213.378C326.217 213.277 326.098 213.249 326.088 213.323Z" fill="#263238"/>
<path d="M316.802 216.399C315.588 217.013 314.401 217.718 313.123 218.231C313.049 218.231 313.123 218.378 313.178 218.341C314.401 217.727 315.671 217.187 316.857 216.454C316.866 216.426 316.839 216.38 316.802 216.399Z" fill="#263238"/>
<path d="M340.305 192.017C340.305 192.017 328.586 192.759 323.132 185.063C317.677 177.366 318.901 166.371 318.901 166.371C318.901 166.371 331.217 167.865 336.101 173.39C340.986 178.915 340.305 192.017 340.305 192.017Z" fill="#35A5B2"/>
<path d="M345.811 203.534C345.397 202.288 344.891 201.051 344.422 199.823C343.953 198.595 343.502 197.486 342.968 196.332C341.919 193.979 340.746 191.682 339.455 189.451C338.627 188.031 337.744 186.656 336.824 185.3C336.824 185.09 336.769 184.888 336.741 184.677L336.575 183.596C336.456 182.854 336.327 182.121 336.208 181.379C335.932 179.766 335.6 178.163 335.343 176.55C335.343 176.477 335.205 176.477 335.223 176.55C335.453 178.135 335.619 179.739 335.84 181.333C335.95 182.121 336.051 182.9 336.171 183.688L336.309 184.531C334.517 181.931 332.582 179.432 330.514 177.045L329.658 176.129L329.548 175.854C329.456 175.634 329.373 175.414 329.29 175.194C329.116 174.727 328.95 174.278 328.784 173.801C328.453 172.885 328.159 171.969 327.911 171.052C327.906 171.041 327.898 171.03 327.887 171.023C327.876 171.016 327.864 171.012 327.851 171.012C327.838 171.012 327.825 171.016 327.815 171.023C327.804 171.03 327.796 171.041 327.791 171.052C328.03 172.015 328.279 172.967 328.564 173.92C328.702 174.378 328.849 174.837 329.014 175.276L329.097 175.496C327.598 173.875 326.034 172.308 324.452 170.759C324.441 170.748 324.426 170.742 324.411 170.742C324.395 170.742 324.38 170.748 324.369 170.759C324.358 170.77 324.352 170.785 324.352 170.801C324.352 170.816 324.358 170.831 324.369 170.842C327.387 174.002 330.155 177.39 332.648 180.976C332.364 180.885 332.076 180.812 331.783 180.756C330.863 180.582 329.943 180.453 329.024 180.343C327.11 180.096 325.206 179.858 323.302 179.555C323.229 179.555 323.201 179.665 323.302 179.674C325.142 180.032 326.917 180.444 328.72 180.856C329.576 181.049 330.431 181.214 331.286 181.379C331.982 181.532 332.667 181.728 333.338 181.965L333.917 182.771C334.773 184.018 335.6 185.291 336.41 186.574L335.214 186.345C334.294 186.171 333.374 186.006 332.455 185.859C330.615 185.566 328.876 185.254 327.11 184.851C327.101 184.847 327.09 184.846 327.08 184.847C327.069 184.848 327.059 184.852 327.05 184.858C327.042 184.864 327.035 184.872 327.03 184.881C327.025 184.89 327.022 184.9 327.022 184.911C327.022 184.921 327.025 184.932 327.03 184.941C327.035 184.95 327.042 184.958 327.05 184.964C327.059 184.97 327.069 184.974 327.08 184.975C327.09 184.976 327.101 184.974 327.11 184.97C328.895 185.392 330.67 185.887 332.455 186.354C333.31 186.574 334.175 186.785 335.039 186.977L336.346 187.261C336.517 187.305 336.693 187.333 336.87 187.344C338.581 190.111 340.184 192.939 341.681 195.828C342.334 197.102 342.959 198.384 343.575 199.676C344.192 200.968 344.734 202.352 345.314 203.699C345.47 203.937 345.903 203.827 345.811 203.534Z" fill="#263238"/>
<path d="M333.814 176.712C333.584 175.603 333.354 174.485 333.106 173.376C333.106 173.303 332.968 173.376 332.986 173.376C333.207 174.476 333.418 175.566 333.621 176.666C333.786 177.767 334.007 178.858 334.283 179.937C334.203 178.852 334.046 177.774 333.814 176.712Z" fill="#263238"/>
<path d="M326.97 176.389C326.423 176.122 325.861 175.886 325.287 175.684L324.367 175.335L323.907 175.152C323.737 175.101 323.573 175.03 323.419 174.941C323.327 174.868 323.272 175.024 323.355 175.042C323.532 175.086 323.702 175.154 323.861 175.244L324.302 175.445L325.158 175.821C325.722 176.081 326.299 176.31 326.887 176.508C326.998 176.526 327.034 176.417 326.97 176.389Z" fill="#263238"/>
<path d="M352.303 182.837C352.303 182.837 359.395 169.643 370.184 167.6C380.974 165.556 387.578 176.616 387.578 176.616C387.578 176.616 379.705 186.63 369.807 188.371C359.91 190.112 352.303 182.837 352.303 182.837Z" fill="#35A5B2"/>
<path d="M377.418 173.521C374.607 173.142 371.756 173.176 368.955 173.622L369.433 173.356L371.834 172.128C373.49 171.276 375.164 170.36 376.893 169.663C376.904 169.663 376.914 169.661 376.923 169.656C376.933 169.65 376.94 169.643 376.946 169.634C376.952 169.626 376.956 169.616 376.957 169.605C376.958 169.595 376.956 169.584 376.952 169.575C376.948 169.565 376.941 169.556 376.933 169.55C376.925 169.543 376.916 169.539 376.905 169.536C376.895 169.534 376.884 169.535 376.874 169.538C376.864 169.541 376.855 169.546 376.847 169.553C375.155 170.341 373.407 171.001 371.715 171.771C370.868 172.165 370.031 172.568 369.213 172.999C368.679 173.283 368.091 173.548 367.566 173.915C365.198 174.392 362.896 175.155 360.713 176.187C361.155 175.702 361.633 175.216 362.056 174.721C363.068 173.631 364.052 172.476 365.156 171.478C365.221 171.423 365.156 171.34 365.073 171.395C363.942 172.412 362.746 173.365 361.652 174.428C361.118 174.941 360.612 175.472 360.116 176.022C359.867 176.297 359.628 176.581 359.389 176.874C355.685 178.852 352.467 181.621 349.965 184.985C347.463 188.348 345.74 192.221 344.92 196.327C344.92 196.4 345.012 196.446 345.04 196.372C346.559 191.341 349.28 186.751 352.968 182.995C356.937 178.959 361.937 176.079 367.428 174.666C370.682 173.836 374.048 173.527 377.399 173.75C377.43 173.752 377.46 173.743 377.483 173.723C377.507 173.703 377.521 173.675 377.523 173.645C377.526 173.614 377.516 173.584 377.496 173.561C377.476 173.538 377.448 173.523 377.418 173.521Z" fill="#263238"/>
<path opacity="0.1" d="M387.578 176.615C387.578 176.615 379.704 186.63 369.798 188.37C362.246 189.708 356 185.787 353.517 183.853L352.965 182.937C352.965 182.937 358.079 178.64 367.737 176.166C377.396 173.692 387.578 176.615 387.578 176.615Z" fill="black"/>
<path d="M371.154 168.813C370.325 169.293 369.523 169.819 368.753 170.389C368.007 170.96 367.311 171.594 366.674 172.285C366.619 172.349 366.674 172.423 366.766 172.377C367.484 171.754 368.201 171.131 368.946 170.544C369.669 169.954 370.427 169.409 371.218 168.913C371.283 168.877 371.218 168.776 371.154 168.813Z" fill="#263238"/>
<path d="M377.066 171.05L375.861 171.526L374.656 172.021C374.574 172.021 374.656 172.195 374.702 172.159L375.907 171.673L377.103 171.16C377.11 171.157 377.117 171.154 377.123 171.149C377.129 171.144 377.133 171.138 377.137 171.131C377.14 171.124 377.142 171.117 377.143 171.109C377.143 171.101 377.142 171.094 377.14 171.087C377.138 171.079 377.134 171.073 377.129 171.067C377.124 171.061 377.118 171.056 377.111 171.053C377.104 171.05 377.096 171.048 377.089 171.047C377.081 171.046 377.074 171.047 377.066 171.05Z" fill="#263238"/>
<path d="M350.885 199.449C350.885 199.449 352.78 212.515 362.659 217.096C372.538 221.678 384.633 217.096 384.633 217.096C384.633 217.096 379.85 188.793 350.885 199.449Z" fill="#35A5B2"/>
<path d="M377.786 208.603C376.866 208.502 375.946 208.346 375.027 208.181L373.702 207.934C373.481 207.888 373.242 207.833 373.012 207.797C372.745 207.549 372.479 207.293 372.212 207.054C370.336 205.415 368.309 203.955 366.159 202.693C364.994 202.008 363.786 201.396 362.544 200.861H362.728L365.985 201.007C368.146 201.108 370.317 201.154 372.488 201.291C372.561 201.291 372.561 201.172 372.488 201.172C370.317 201.025 368.155 200.787 365.975 200.595L362.82 200.32L361.192 200.173H360.778C360.208 199.963 359.638 199.761 359.067 199.587C356.373 198.668 353.476 198.509 350.697 199.129C348.213 199.761 345.73 201.383 345.086 203.994C345.086 204.086 345.206 204.141 345.242 204.058C346.162 201.868 348.6 200.778 350.761 200.32C352.236 200.041 353.748 200.013 355.232 200.237C355.338 200.911 355.508 201.574 355.738 202.217C356.004 203.133 356.28 204.049 356.556 204.965C357.117 206.798 357.734 208.63 358.276 210.463C358.281 210.475 358.289 210.485 358.3 210.492C358.311 210.499 358.323 210.503 358.336 210.503C358.349 210.503 358.362 210.499 358.372 210.492C358.383 210.485 358.391 210.475 358.396 210.463C357.936 208.63 357.55 206.798 357.108 204.965C356.887 204.049 356.657 203.133 356.437 202.217C356.305 201.597 356.14 200.985 355.94 200.384C356.806 200.539 357.663 200.741 358.506 200.989C360.028 201.442 361.521 201.987 362.977 202.62C363.124 203.536 363.335 204.452 363.547 205.369C363.823 206.523 364.117 207.668 364.467 208.795C364.467 208.81 364.473 208.824 364.483 208.834C364.493 208.845 364.507 208.85 364.522 208.85C364.537 208.85 364.551 208.845 364.561 208.834C364.571 208.824 364.577 208.81 364.577 208.795C364.577 208.731 364.577 208.658 364.577 208.585C364.356 207.513 364.117 206.441 363.897 205.378C363.713 204.516 363.547 203.646 363.354 202.785C364.586 203.334 365.791 203.939 366.96 204.617C366.96 204.892 367.052 205.158 367.088 205.405C367.162 205.854 367.236 206.321 367.318 206.743C367.512 207.76 367.714 208.768 367.953 209.757C368.4 211.691 368.968 213.594 369.655 215.457C369.649 215.461 369.644 215.466 369.641 215.473C369.638 215.479 369.636 215.486 369.636 215.493C369.636 215.5 369.638 215.507 369.641 215.514C369.644 215.52 369.649 215.526 369.655 215.53L369.71 215.594C369.756 215.649 369.82 215.594 369.811 215.539C369.351 213.596 368.827 211.672 368.404 209.721C368.192 208.75 367.971 207.778 367.778 206.807C367.677 206.312 367.585 205.827 367.493 205.341C367.493 205.204 367.493 205.048 367.429 204.901C368.756 205.683 370.04 206.536 371.274 207.458C373.408 209.051 375.382 210.846 377.17 212.818C377.234 212.891 377.381 212.818 377.308 212.699C376.572 211.704 375.786 210.747 374.953 209.831C374.456 209.299 373.941 208.786 373.417 208.291H373.582L374.971 208.502C375.891 208.621 376.811 208.713 377.731 208.814C377.832 208.731 377.86 208.612 377.786 208.603Z" fill="#263238"/>
<path d="M370.838 213.042L370.783 212.703C370.783 212.566 370.682 212.419 370.663 212.282C370.452 211.366 370.286 210.532 370.121 209.643C370.121 209.579 370.02 209.597 370.02 209.643C370.077 210.816 370.332 211.972 370.774 213.061C370.774 213.061 370.847 213.061 370.838 213.061V213.042Z" fill="#263238"/>
<path d="M362.561 212.837C362.561 212.837 362.561 212.782 362.497 212.782C362.221 211.619 361.954 210.455 361.715 209.291C361.586 208.677 361.458 208.063 361.347 207.459C361.283 207.129 361.219 206.799 361.163 206.46C361.132 206.17 361.058 205.885 360.943 205.617C360.937 205.608 360.929 205.6 360.919 205.594C360.909 205.589 360.898 205.586 360.887 205.586C360.876 205.586 360.865 205.589 360.856 205.594C360.846 205.6 360.838 205.608 360.832 205.617C360.828 206.212 360.912 206.805 361.081 207.376C361.209 208.018 361.329 208.659 361.467 209.291C361.761 210.583 362.083 211.866 362.451 213.139C362.451 213.213 362.589 213.194 362.58 213.139L362.561 212.837Z" fill="#263238"/>
<path d="M376.882 204.842C375.042 204.595 373.276 204.329 371.464 204.109C371.391 204.109 371.354 204.219 371.464 204.228C373.304 204.494 375.079 204.723 376.882 204.952C376.928 204.961 376.965 204.852 376.882 204.842Z" fill="#263238"/>
<path d="M345.821 168.746C345.821 168.746 339.778 142.322 368.283 131.629C368.283 131.629 376.175 166.41 345.821 168.746Z" fill="#35A5B2"/>
<path d="M349.571 147.719C349.571 147.646 349.442 147.646 349.452 147.719C349.553 149.231 349.608 150.734 349.764 152.236C349.76 152.247 349.759 152.259 349.76 152.271C349.762 152.283 349.766 152.294 349.773 152.304C349.78 152.313 349.789 152.321 349.799 152.327C349.81 152.332 349.822 152.335 349.833 152.335C349.845 152.335 349.857 152.332 349.867 152.327C349.878 152.321 349.887 152.313 349.894 152.304C349.901 152.294 349.905 152.283 349.906 152.271C349.908 152.259 349.906 152.247 349.902 152.236C349.847 150.724 349.682 149.231 349.571 147.719Z" fill="#263238"/>
<path d="M363.239 152.77C361.454 153.485 359.651 154.163 357.876 154.905C357.83 154.905 357.876 155.006 357.876 154.987C359.716 154.309 361.454 153.585 363.248 152.889C363.349 152.852 363.312 152.742 363.239 152.77Z" fill="#263238"/>
<path d="M365.943 140.582C364.202 141.383 362.51 142.286 360.875 143.285C360.858 143.296 360.846 143.313 360.842 143.333C360.837 143.353 360.841 143.373 360.852 143.39C360.863 143.408 360.88 143.419 360.9 143.424C360.92 143.428 360.941 143.424 360.958 143.413C362.613 142.451 364.297 141.526 366.008 140.665C366.081 140.646 366.017 140.546 365.943 140.582Z" fill="#263238"/>
<path d="M365.518 225.891H324.41V269.055H365.518V225.891Z" fill="#37474F"/>
<path d="M323.686 241.168H321.58V315.101H323.686V241.168Z" fill="#263238"/>
<path d="M368.124 241.168H366.018V315.101H368.124V241.168Z" fill="#263238"/>
<path d="M347.026 241.168H344.92V315.101H347.026V241.168Z" fill="#263238"/>
<path d="M367.066 266.289H322.629V272.263H367.066V266.289Z" fill="#263238"/>
<path d="M59.6875 310.121C59.6897 319.233 63.1487 328.008 69.3714 334.688C75.594 341.367 84.1208 345.457 93.2431 346.139V346.24H298.587C309.549 346.247 320.092 342.046 328.025 334.51C335.958 326.974 340.671 316.683 341.184 305.775C341.696 294.868 337.97 284.183 330.779 275.942C323.587 267.7 313.484 262.536 302.57 261.523C302.028 244.937 295.714 229.055 284.708 216.597C273.702 204.139 258.69 195.881 242.243 193.238C225.796 190.594 208.939 193.73 194.558 202.107C180.177 210.484 169.168 223.582 163.417 239.157C157.51 236.188 150.984 234.65 144.367 234.667C133.521 234.665 123.083 238.783 115.18 246.183C107.277 253.582 102.504 263.705 101.834 274.488C99.8857 274.165 97.9134 274.006 95.9382 274.011C86.3246 274.014 77.1056 277.819 70.3078 284.59C63.51 291.362 59.6899 300.545 59.6875 310.121Z" fill="#EA3C57"/>
<g opacity="0.1">
<path d="M59.6895 310.121C59.6917 319.233 63.1506 328.008 69.3733 334.688C75.596 341.367 84.1227 345.457 93.245 346.139V346.24H298.589C309.551 346.247 320.094 342.046 328.027 334.51C335.96 326.974 340.673 316.683 341.186 305.775C341.698 294.868 337.972 284.183 330.781 275.942C323.589 267.7 313.486 262.536 302.572 261.523C302.03 244.937 295.716 229.055 284.71 216.597C273.704 204.139 258.692 195.881 242.245 193.238C225.798 190.594 208.941 193.73 194.56 202.107C180.179 210.484 169.17 223.582 163.419 239.157C157.512 236.188 150.986 234.65 144.369 234.667C133.523 234.665 123.085 238.783 115.182 246.183C107.279 253.582 102.506 263.705 101.836 274.488C99.8876 274.165 97.9154 274.006 95.9401 274.011C86.3266 274.014 77.1075 277.819 70.3097 284.59C63.5119 291.362 59.6919 300.545 59.6895 310.121Z" fill="#FF647C"/>
</g>
<path d="M47.2695 310.121C47.2717 319.233 50.7307 328.008 56.9534 334.687C63.1761 341.367 71.7028 345.457 80.8251 346.139V346.239H286.16C297.122 346.246 307.665 342.046 315.598 334.51C323.531 326.974 328.244 316.683 328.756 305.775C329.269 294.868 325.543 284.183 318.351 275.941C311.16 267.7 301.057 262.536 290.143 261.522C289.607 244.934 283.295 229.048 272.29 216.587C261.286 204.126 246.272 195.866 229.824 193.222C213.375 190.578 196.516 193.715 182.134 202.096C167.753 210.476 156.746 223.578 150.999 239.156C145.092 236.187 138.566 234.649 131.949 234.667C121.104 234.665 110.665 238.783 102.762 246.182C94.8589 253.581 90.086 263.704 89.4163 274.487C87.4677 274.165 85.4955 274.006 83.5202 274.011C73.9067 274.013 64.6876 277.818 57.8898 284.59C51.092 291.361 47.272 300.544 47.2695 310.121Z" fill="#FF647C"/>
<path d="M212.739 192.547V287.764H175.725V206.327C186.515 198.357 199.345 193.58 212.739 192.547Z" fill="white"/>
<path d="M231.751 287.766H156.711L194.231 334.192L231.751 287.766Z" fill="white"/>
<path d="M158.398 39.6953H88.5V84.711H158.398V39.6953Z" fill="#35A5B2"/>
<path d="M110.521 35.0273H88.5V39.6911H111.79L110.521 35.0273Z" fill="#35A5B2"/>
<g opacity="0.1">
<path opacity="0.1" d="M158.396 39.6953H88.498V84.711H158.396V39.6953Z" fill="black"/>
<path opacity="0.1" d="M110.519 35.0312H88.498V39.695H111.788L110.519 35.0312Z" fill="black"/>
</g>
<path d="M138.704 64.1769L93.2461 64.1586L93.2737 6.03125L127.022 6.04958L138.723 17.1271L138.704 64.1769Z" fill="#35A5B2"/>
<path opacity="0.6" d="M138.704 64.1769L93.2461 64.1586L93.2737 6.03125L127.022 6.04958L138.723 17.1271L138.704 64.1769Z" fill="white"/>
<path d="M127.021 6.05078L138.722 17.1283H127.021V6.05078Z" fill="#35A5B2"/>
<path opacity="0.4" d="M127.021 6.05078L138.722 17.1283H127.021V6.05078Z" fill="white"/>
<path d="M97.6956 17.2837L122.973 17.2969L122.973 15.8034L97.6964 15.7902L97.6956 17.2837Z" fill="white"/>
<path d="M97.6995 21.0493L122.977 21.0625L122.977 19.569L97.7003 19.5558L97.6995 21.0493Z" fill="white"/>
<path d="M97.6917 24.8071L122.969 24.8203L122.97 23.3268L97.6925 23.3136L97.6917 24.8071Z" fill="white"/>
<path d="M97.6921 28.5822L134.725 28.6016L134.725 27.1081L97.6929 27.0887L97.6921 28.5822Z" fill="white"/>
<path d="M97.696 32.3479L134.729 32.3672L134.729 30.8737L97.6968 30.8544L97.696 32.3479Z" fill="white"/>
<path d="M97.653 36.207H134.686V34.7135H97.653V36.207Z" fill="white"/>
<path d="M97.653 39.9688H134.686V38.4753H97.653V39.9688Z" fill="white"/>
<path d="M97.6843 43.6447L134.717 43.6641L134.718 42.1706L97.6851 42.1513L97.6843 43.6447Z" fill="white"/>
<path d="M97.6843 47.4143L134.717 47.4336L134.718 45.9401L97.6851 45.9208L97.6843 47.4143Z" fill="white"/>
<path d="M97.6882 51.1838L134.721 51.2031L134.721 49.7096L97.689 49.6903L97.6882 51.1838Z" fill="white"/>
<path d="M97.6804 54.9494L134.713 54.9688L134.714 53.4753L97.6812 53.4559L97.6804 54.9494Z" fill="white"/>
<path d="M97.6843 58.7072L134.717 58.7266L134.718 57.2331L97.6851 57.2137L97.6843 58.7072Z" fill="white"/>
<path d="M127.998 73.4781L179.067 56.738L167.79 22.7266L116.721 39.4666L127.998 73.4781Z" fill="#EBEBEB"/>
<path d="M129.411 70.6647L176.24 55.3083L166.37 25.5391L119.541 40.8864L129.411 70.6647Z" fill="white"/>
<path d="M126.862 48.7758C127.193 49.7793 127.816 50.6625 128.651 51.3137C129.486 51.9648 130.496 52.3548 131.554 52.4341C132.611 52.5134 133.669 52.2787 134.592 51.7594C135.516 51.2402 136.264 50.4598 136.742 49.517C137.221 48.5742 137.408 47.5113 137.28 46.4626C137.152 45.4139 136.714 44.4266 136.023 43.6255C135.332 42.8243 134.418 42.2453 133.396 41.9617C132.374 41.6781 131.291 41.7026 130.284 42.0321C129.614 42.251 128.995 42.599 128.461 43.0564C127.927 43.5138 127.488 44.0715 127.17 44.6978C126.853 45.324 126.662 46.0065 126.609 46.7062C126.556 47.4059 126.642 48.1092 126.862 48.7758Z" fill="#DBDBDB"/>
<path d="M143.971 65.9452L176.229 55.3715L152.902 38.8789L143.971 65.9452Z" fill="#DBDBDB"/>
<path d="M131.332 70.0919L157.961 61.36L139.96 51.5469L131.332 70.0919Z" fill="#EBEBEB"/>
<path d="M158.223 84.7071H88.3342L83.5234 43.4297H153.422L158.223 84.7071Z" fill="#35A5B2"/>
<path d="M105.055 39.1523H83.0254L83.5221 43.4313H106.812L105.055 39.1523Z" fill="#35A5B2"/>
<path d="M100.844 67.6749C100.845 68.9554 101.332 70.1881 102.207 71.1261C103.082 72.0641 104.281 72.6379 105.563 72.7327H134.445C136.003 72.7595 137.509 72.181 138.645 71.1197C139.781 70.0584 140.458 68.598 140.531 67.0483C140.604 65.4986 140.068 63.9815 139.036 62.819C138.005 61.6564 136.559 60.9399 135.006 60.8213C134.916 58.4958 134.02 56.273 132.472 54.5305C130.923 52.788 128.816 51.6331 126.51 51.2619C124.203 50.8906 121.839 51.326 119.818 52.4939C117.797 53.6619 116.244 55.4906 115.423 57.6694C114.538 57.2285 113.557 57.0128 112.568 57.0418C111.579 57.0707 110.613 57.3433 109.756 57.8353C108.898 58.3272 108.176 59.0231 107.655 59.8608C107.134 60.6985 106.829 61.6518 106.768 62.6355C106.494 62.5907 106.217 62.5692 105.94 62.5714C105.268 62.5714 104.603 62.7036 103.983 62.9604C103.363 63.2172 102.8 63.5936 102.327 64.0678C101.853 64.5421 101.478 65.1049 101.224 65.724C100.969 66.343 100.84 67.006 100.844 67.6749Z" fill="white"/>
<path d="M124.095 51.1484V64.5258H118.898V53.0909C120.412 51.9669 122.214 51.2934 124.095 51.1484Z" fill="#35A5B2"/>
<path d="M126.771 64.5234H116.221L121.501 71.0564L126.771 64.5234Z" fill="#35A5B2"/>
<path d="M111.274 88.4349C111.192 87.8393 111.164 87.5186 111.164 87.5186L112.084 87.4453C112.084 87.4453 112.084 87.766 112.194 88.3616L111.274 88.4349Z" fill="#263238"/>
<path d="M136.101 113.877C135.457 113.877 134.804 113.795 134.169 113.73L134.261 112.814C134.878 112.878 135.512 112.924 136.101 112.952V113.877ZM132.238 113.456C131.594 113.337 130.959 113.199 130.343 113.034L130.573 112.118C131.171 112.274 131.787 112.411 132.412 112.521L132.238 113.456ZM128.476 112.457C127.868 112.246 127.252 111.999 126.636 111.733L127.022 110.899C127.583 111.156 128.172 111.394 128.761 111.596L128.476 112.457ZM124.925 110.817C124.364 110.496 123.812 110.148 123.269 109.781L123.794 109.03C124.309 109.378 124.842 109.717 125.376 110.02L124.925 110.817ZM121.715 108.618C121.218 108.215 120.731 107.775 120.261 107.317L120.905 106.666C121.356 107.097 121.825 107.518 122.294 107.912L121.715 108.618ZM118.955 105.869C118.532 105.393 118.118 104.879 117.723 104.366L118.459 103.817C118.836 104.311 119.24 104.806 119.645 105.264L118.955 105.869ZM116.61 102.772C116.269 102.241 115.929 101.691 115.607 101.123L116.407 100.665C116.711 101.205 117.033 101.746 117.382 102.277L116.61 102.772ZM114.706 99.4002C114.42 98.8138 114.154 98.2183 113.905 97.641L114.752 97.2837C114.991 97.8518 115.248 98.429 115.533 99.0062L114.706 99.4002ZM113.206 95.836C112.976 95.2038 112.774 94.599 112.59 94.0035L113.51 93.7378C113.685 94.315 113.887 94.9106 114.108 95.5245L113.206 95.836ZM112.075 92.171C111.9 91.4838 111.753 90.8515 111.643 90.2835L112.562 90.1094C112.673 90.6591 112.811 91.273 112.986 91.9419L112.075 92.171Z" fill="#263238"/>
<path d="M138.068 113.893V112.977H138.988L139.034 113.893H138.068Z" fill="#263238"/>
<path d="M133.606 116.273L133.266 115.421L138.886 113.24L133.174 111.316L133.468 110.445L141.572 113.176L133.606 116.273Z" fill="#263238"/>
<path d="M76.0743 233.724C78.6131 234.64 153.653 235.831 156.505 234.136C156.845 233.953 157.489 217.845 157.489 217.845C170.946 190.293 184.164 165.454 184.164 165.454L131.421 163.383L110.007 208.554C110.007 208.554 80.094 222.5 78.981 223.324C76.0283 225.505 73.5264 232.798 76.0743 233.724Z" fill="#F7A9A0"/>
<path d="M76.0654 233.728C78.6134 234.644 153.653 235.836 156.505 234.14C156.845 233.957 157.489 217.849 157.489 217.849C159.154 214.432 160.819 211.069 162.447 207.771L114.441 199.121L109.97 208.549C109.97 208.549 80.0575 222.495 78.9445 223.319C76.0286 225.509 73.5267 232.803 76.0654 233.728Z" fill="#EBEBEB"/>
<path d="M75.3832 234.285C78.0047 235.202 153.468 236.521 156.375 234.762C157.488 234.102 158.03 228.815 158.656 215.575L110.576 207.402C110.576 207.402 81.1413 221.302 78.1979 223.574C75.2544 225.847 72.8076 233.36 75.3832 234.285Z" fill="#A6A6A6"/>
<path d="M76.4919 231.296C89.1488 231.204 140.2 232.029 152.719 232.899C152.82 232.899 152.82 232.982 152.719 232.982C140.181 233.339 89.1304 232.066 76.4919 231.498C76.2527 231.488 76.2527 231.296 76.4919 231.296Z" fill="#263238"/>
<path d="M83.1035 220.954C84.5097 220.939 85.9034 221.217 87.1957 221.769C88.488 222.321 89.6507 223.136 90.6094 224.161C92.3739 225.981 93.3628 228.411 93.3689 230.941C93.3689 231.014 93.2217 231.014 93.2125 230.941C92.8264 228.439 91.6359 226.129 89.8198 224.358C88.0037 222.587 85.66 221.45 83.1403 221.119C83.1294 221.121 83.1182 221.121 83.1072 221.119C83.0963 221.117 83.0858 221.113 83.0764 221.107C83.067 221.101 83.0589 221.094 83.0525 221.085C83.0461 221.076 83.0415 221.065 83.0391 221.054C83.0367 221.044 83.0365 221.032 83.0384 221.021C83.0403 221.011 83.0444 221 83.0504 220.991C83.0563 220.981 83.0641 220.973 83.0732 220.967C83.0823 220.961 83.0926 220.956 83.1035 220.954Z" fill="#263238"/>
<path d="M105.37 210.094C110.429 210.094 116.27 212 119.342 216.178C119.462 216.333 119.232 216.508 119.085 216.425C114.704 214.036 110.078 212.123 105.287 210.717C105.217 210.693 105.157 210.645 105.118 210.582C105.079 210.519 105.063 210.445 105.073 210.372C105.083 210.298 105.118 210.231 105.172 210.18C105.226 210.129 105.296 210.099 105.37 210.094Z" fill="#263238"/>
<path d="M101.434 211.543C106.503 211.543 112.334 213.449 115.416 217.627C115.536 217.792 115.296 217.957 115.149 217.874C110.768 215.485 106.143 213.572 101.352 212.166C101.281 212.142 101.222 212.094 101.183 212.031C101.144 211.969 101.128 211.894 101.138 211.821C101.147 211.747 101.182 211.68 101.236 211.629C101.29 211.579 101.36 211.548 101.434 211.543Z" fill="#263238"/>
<path d="M97.4964 213C102.565 213 108.406 214.897 111.478 219.075C111.597 219.24 111.358 219.405 111.211 219.322C106.828 216.937 102.203 215.024 97.4136 213.614C97.3388 213.596 97.2734 213.55 97.23 213.487C97.1866 213.423 97.1683 213.346 97.1786 213.27C97.1888 213.194 97.227 213.124 97.2856 213.074C97.3443 213.025 97.4193 212.998 97.4964 213Z" fill="#263238"/>
<path d="M93.5589 214.449C98.6272 214.449 104.468 216.346 107.54 220.524C107.66 220.689 107.43 220.854 107.274 220.781C102.893 218.388 98.2675 216.471 93.4761 215.063C93.4013 215.045 93.3359 215 93.2925 214.936C93.2491 214.873 93.2308 214.795 93.2411 214.719C93.2513 214.643 93.2895 214.574 93.3481 214.524C93.4068 214.474 93.4818 214.447 93.5589 214.449Z" fill="#263238"/>
<path d="M149.736 220.884C155.411 221.003 155.255 229.79 149.552 229.68C143.849 229.57 144.042 220.765 149.736 220.884Z" fill="white"/>
<path d="M100.402 203.936C103.079 207.5 107.2 209.782 110.76 212.329C110.843 212.379 110.938 212.409 111.036 212.416C111.133 212.422 111.231 212.406 111.321 212.367C111.411 212.329 111.49 212.269 111.553 212.194C111.615 212.119 111.658 212.03 111.679 211.935C111.7 211.939 111.721 211.939 111.741 211.934C111.761 211.929 111.78 211.919 111.795 211.906C111.811 211.893 111.824 211.876 111.833 211.857C111.841 211.839 111.845 211.818 111.845 211.798C111.548 207.166 110.039 202.693 107.467 198.823C105.921 196.597 102.73 194.471 100.108 196.542C97.4864 198.613 98.8478 201.865 100.402 203.936ZM100.246 199.758C100.844 194.26 105.765 198.585 106.814 200.271C107.49 201.369 108.086 202.515 108.598 203.698C109.649 206.156 110.57 208.667 111.358 211.22C109.693 209.864 107.917 208.664 106.197 207.372C104.082 205.824 99.9148 202.782 100.246 199.758Z" fill="#263238"/>
<path d="M129.839 208.894C129.507 205.596 125.745 204.817 123.069 205.284C118.494 206.162 114.234 208.226 110.715 211.267C110.698 211.28 110.684 211.297 110.675 211.316C110.665 211.335 110.66 211.356 110.66 211.377C110.66 211.399 110.665 211.42 110.675 211.439C110.684 211.458 110.698 211.474 110.715 211.487C110.666 211.569 110.637 211.66 110.629 211.755C110.621 211.849 110.635 211.944 110.67 212.033C110.704 212.121 110.759 212.2 110.829 212.265C110.899 212.329 110.983 212.376 111.074 212.404C115.397 213.146 119.923 214.474 124.347 213.879C126.969 213.54 130.197 212.019 129.839 208.894ZM117.881 212.202C115.747 211.89 113.64 211.469 111.497 211.24C113.873 210.013 116.311 208.909 118.801 207.932C120.001 207.473 121.23 207.094 122.48 206.796C124.439 206.375 130.952 206.796 127.447 211.102C125.571 213.43 120.447 212.578 117.881 212.202Z" fill="#263238"/>
<path d="M166.327 202.626L113.896 194.7C113.896 194.7 143.57 136.875 154.728 117.46C163.411 102.351 187.161 101.609 198.705 119.714C214.14 143.894 226.116 166.553 232.978 179.115L244.816 180.132L242.241 199.502L202.688 208.325C187.538 210.158 176.933 183.265 176.657 183.714C175.829 185.355 166.327 202.626 166.327 202.626Z" fill="#37474F"/>
<path d="M176.41 183.837C177.9 180.795 179.059 177.56 180.393 174.445C181.727 171.33 182.959 168.416 184.238 165.392C186.813 159.281 189.472 153.206 191.974 147.067C193.372 143.622 194.659 140.14 195.966 136.658C195.966 136.576 196.131 136.613 196.104 136.658C195.092 139.945 194.034 143.222 192.93 146.49C193.225 145.922 193.519 145.363 193.85 144.813C194.696 143.31 195.561 141.835 196.435 140.351C196.435 140.287 196.554 140.351 196.527 140.406C195.717 141.89 194.917 143.375 194.08 144.85C193.666 145.583 193.206 146.307 192.765 147.04C189.705 156.186 186.071 165.131 181.883 173.822C180.218 177.23 178.268 180.492 176.594 183.901C176.511 184.047 176.355 183.946 176.41 183.837Z" fill="#263238"/>
<path d="M165.163 193.335C167.693 189.44 173.718 177.676 175.87 173.608C180.239 165.361 184.231 156.977 188.012 148.465C190.146 143.655 192.142 138.808 194.11 133.934C194.11 133.934 194.184 133.934 194.165 133.934C191.153 142.708 187.699 151.325 183.817 159.754C179.963 168.202 167.555 190.961 165.319 193.426C165.237 193.518 165.099 193.435 165.163 193.335Z" fill="#263238"/>
<path d="M197.73 140.434C202.256 148.478 206.874 156.459 211.408 164.495C213.708 168.557 215.995 172.619 218.27 176.681C219.337 178.605 220.377 180.538 221.481 182.435C222.439 184.219 223.875 185.703 225.629 186.723C227.735 187.718 229.943 188.483 232.215 189.004C234.763 189.747 237.302 190.553 239.859 191.249C239.883 191.257 239.904 191.273 239.916 191.296C239.928 191.318 239.931 191.344 239.923 191.368C239.916 191.393 239.899 191.413 239.877 191.425C239.854 191.437 239.828 191.44 239.804 191.432C237.522 190.819 235.205 190.296 232.914 189.728C230.8 189.285 228.712 188.725 226.659 188.051C224.858 187.437 223.265 186.332 222.06 184.863C220.831 183.156 219.745 181.351 218.813 179.466C214.275 171.202 209.783 162.919 205.337 154.617C202.799 149.889 200.288 145.161 197.73 140.461V140.434Z" fill="#263238"/>
<path d="M167.552 195.289C164.407 194.721 161.187 194.446 158.014 194.043L148.484 192.815C142.147 191.99 120.558 188.563 118.93 188.023C118.829 188.023 118.866 187.83 118.93 187.821C120.475 187.775 134.567 189.654 137.777 190.112C144.115 191.028 150.416 192.164 156.735 193.227C158.575 193.529 160.332 193.868 162.135 194.189C163.938 194.51 165.731 194.895 167.543 195.105C167.663 195.105 167.635 195.316 167.552 195.289Z" fill="#263238"/>
<path d="M46.1348 373.776C48.692 374.692 123.75 374.481 126.565 372.741C126.905 372.539 127.255 356.431 127.255 356.431C140.206 328.641 152.937 303.563 152.937 303.563L100.166 302.445L79.5708 347.992C79.5708 347.992 49.9154 362.506 48.8116 363.358C45.9325 365.585 43.5685 372.915 46.1348 373.776Z" fill="#F7A9A0"/>
<path d="M46.1331 373.773C48.6994 374.689 123.749 374.479 126.563 372.729C126.904 372.545 127.253 356.428 127.253 356.428C128.854 352.974 130.464 349.584 132.027 346.267L83.8463 338.516L79.5415 348.017C79.5415 348.017 49.9136 362.503 48.8098 363.346C45.9399 365.582 43.5668 372.921 46.1331 373.773Z" fill="#EBEBEB"/>
<path d="M45.4539 374.374C48.0846 375.29 123.566 375.198 126.445 373.384C127.54 372.706 127.981 367.419 128.368 354.143L80.15 346.812C80.15 346.812 51.0096 361.289 48.0662 363.617C45.1227 365.944 42.8139 373.494 45.4539 374.374Z" fill="#A6A6A6"/>
<path d="M46.5301 371.358C59.1871 371.046 110.247 370.954 122.775 371.596C122.876 371.596 122.876 371.669 122.775 371.678C110.238 372.265 59.1779 371.944 46.5301 371.568C46.2634 371.559 46.2634 371.367 46.5301 371.358Z" fill="#263238"/>
<path d="M52.9247 360.949C54.331 360.912 55.7296 361.165 57.0326 361.694C58.3355 362.222 59.5144 363.014 60.495 364.018C62.2714 365.818 63.2857 368.229 63.328 370.753C63.328 370.826 63.1809 370.826 63.1717 370.753C62.742 368.257 61.5109 365.967 59.6632 364.227C57.8154 362.487 55.4509 361.391 52.9247 361.105C52.9085 361.099 52.8944 361.088 52.8845 361.075C52.8745 361.061 52.8691 361.044 52.8691 361.027C52.8691 361.01 52.8745 360.993 52.8845 360.979C52.8944 360.965 52.9085 360.954 52.9247 360.949Z" fill="#263238"/>
<path d="M74.9872 349.651C80.0555 349.577 85.9241 351.346 89.0791 355.469C89.1987 355.634 88.9687 355.808 88.8123 355.725C84.3862 353.405 79.7238 351.562 74.9045 350.228C74.8487 350.197 74.8036 350.151 74.7752 350.094C74.7468 350.037 74.7363 349.973 74.7453 349.911C74.7543 349.848 74.7823 349.79 74.8255 349.743C74.8687 349.697 74.9252 349.664 74.9872 349.651Z" fill="#263238"/>
<path d="M71.0772 351.169C76.1455 351.096 82.0141 352.864 85.1691 356.987C85.2887 357.152 85.0587 357.317 84.9115 357.244C80.4712 354.935 75.7966 353.105 70.9668 351.783C70.8851 351.768 70.8126 351.722 70.7651 351.654C70.7177 351.586 70.6993 351.502 70.7139 351.421C70.7285 351.34 70.775 351.267 70.8432 351.22C70.9113 351.173 70.9955 351.154 71.0772 351.169Z" fill="#263238"/>
<path d="M67.1745 352.701C72.2428 352.628 78.1113 354.406 81.2663 358.529C81.3859 358.694 81.156 358.859 81.0088 358.785C76.5795 356.464 71.914 354.622 67.0917 353.288C67.0369 353.256 66.993 353.208 66.9654 353.151C66.9379 353.094 66.9279 353.03 66.9367 352.967C66.9456 352.904 66.9729 352.846 67.0152 352.798C67.0575 352.751 67.1129 352.717 67.1745 352.701Z" fill="#263238"/>
<path d="M63.2624 354.205C68.3306 354.132 74.1992 355.91 77.3542 360.033C77.4738 360.198 77.2438 360.363 77.0967 360.289C72.6674 357.968 68.0019 356.125 63.1796 354.792C63.1248 354.759 63.0809 354.712 63.0533 354.655C63.0258 354.598 63.0158 354.534 63.0246 354.471C63.0335 354.408 63.0608 354.35 63.1031 354.302C63.1454 354.255 63.2008 354.221 63.2624 354.205Z" fill="#263238"/>
<path d="M119.547 359.633C125.222 359.633 125.213 368.438 119.547 368.429C113.881 368.42 113.853 359.615 119.547 359.633Z" fill="white"/>
<path d="M69.921 343.589C72.6805 347.098 76.8198 349.306 80.4255 351.789C80.5106 351.84 80.6066 351.869 80.7053 351.874C80.8041 351.88 80.9028 351.862 80.993 351.821C81.0832 351.781 81.1623 351.719 81.2237 351.642C81.285 351.565 81.3267 351.474 81.3454 351.377C81.3652 351.381 81.3858 351.381 81.4056 351.376C81.4253 351.371 81.4435 351.361 81.4587 351.348C81.474 351.335 81.4859 351.318 81.4933 351.299C81.5008 351.28 81.5037 351.26 81.5017 351.24C81.1339 346.611 79.5475 342.162 76.9026 338.339C75.3204 336.14 72.0918 334.078 69.5439 336.195C67.0879 338.201 68.3205 341.536 69.921 343.589ZM69.6819 339.411C70.1786 333.913 75.2009 338.128 76.2587 339.796C76.9508 340.888 77.5655 342.027 78.0983 343.204C79.2573 345.623 80.0484 348.161 80.959 350.672C79.2573 349.343 77.4637 348.17 75.716 346.915C73.6464 345.376 69.4059 342.434 69.6819 339.411Z" fill="#263238"/>
<path d="M99.4838 348.001C99.0883 344.711 95.3078 343.997 92.6495 344.51C88.0907 345.478 83.8663 347.62 80.3973 350.722C80.3818 350.735 80.3694 350.751 80.3608 350.769C80.3523 350.787 80.3479 350.807 80.3479 350.827C80.3479 350.847 80.3523 350.867 80.3608 350.885C80.3694 350.904 80.3818 350.92 80.3973 350.933C80.3467 351.015 80.3164 351.108 80.3086 351.204C80.3009 351.3 80.316 351.397 80.3527 351.486C80.3894 351.575 80.4468 351.655 80.52 351.718C80.5933 351.781 80.6804 351.826 80.7744 351.849C85.1068 352.518 89.66 353.764 94.066 353.086C96.6507 352.701 99.8518 351.116 99.4838 348.001ZM87.526 351.528C85.3828 351.253 83.2764 350.868 81.0871 350.676C83.4356 349.396 85.8488 348.237 88.317 347.203C89.5157 346.723 90.7448 346.322 91.9964 346.003C93.9464 345.545 100.459 345.893 97.0371 350.218C95.2434 352.609 90.1107 351.858 87.526 351.528Z" fill="#263238"/>
<path d="M83.123 338.63L140.153 338.209C140.153 338.209 169.983 263.433 173.451 259.731C175.787 257.23 191.48 254.454 210.244 250.358H210.345C217.262 248.846 224.603 247.151 231.823 245.209C250.634 240.215 268.718 233.645 276.951 224.565C294.179 205.599 276.951 171.312 276.951 171.312H228.365C228.365 171.312 227.16 186.238 230.867 195.373C230.867 195.373 195.159 200.596 165.089 210.318C148.054 215.815 132.831 222.779 126.935 231.053C118.297 243.175 83.123 338.63 83.123 338.63Z" fill="#37474F"/>
<path d="M89.5594 330.108C96.1638 329.631 102.768 329.457 109.391 329.302C116.014 329.146 122.627 329.072 129.241 329.146C132.976 329.146 136.701 329.402 140.426 329.448C140.546 329.448 140.555 329.631 140.426 329.631C137.096 329.705 133.767 329.952 130.437 330.044C127.107 330.135 123.869 330.209 120.585 330.264C113.972 330.374 107.358 330.41 100.735 330.484C97.01 330.484 93.2847 330.483 89.5594 330.355C89.5403 330.36 89.5202 330.361 89.5007 330.357C89.4813 330.354 89.463 330.346 89.4472 330.334C89.4314 330.322 89.4187 330.306 89.4099 330.288C89.4011 330.271 89.3965 330.251 89.3965 330.232C89.3965 330.212 89.4011 330.192 89.4099 330.175C89.4187 330.157 89.4314 330.142 89.4472 330.13C89.463 330.118 89.4813 330.109 89.5007 330.106C89.5202 330.102 89.5403 330.103 89.5594 330.108Z" fill="#263238"/>
<path d="M252.178 178.349C252.251 178.573 252.343 178.791 252.454 178.999C252.465 179.016 252.47 179.035 252.47 179.054C252.47 179.074 252.465 179.093 252.454 179.109C253.089 181.088 253.374 183.196 253.972 185.175C254.555 187.292 255.855 189.144 257.651 190.416C261.413 193.018 265.929 194.2 270.317 195.281C270.464 195.281 270.418 195.519 270.317 195.529C267.78 195.538 265.256 195.151 262.839 194.383C260.579 193.763 258.448 192.745 256.547 191.378C254.758 190.032 253.482 188.119 252.932 185.954C252.656 184.806 252.444 183.643 252.298 182.472C252.049 181.126 251.904 179.763 251.865 178.395C251.877 178.365 251.897 178.34 251.922 178.32C251.947 178.301 251.977 178.288 252.009 178.283C252.04 178.279 252.072 178.282 252.102 178.294C252.132 178.305 252.158 178.324 252.178 178.349Z" fill="#263238"/>
<path d="M223.736 192.128C226.731 192.991 229.648 194.104 232.456 195.454L232.594 195.509C232.533 195.339 232.489 195.164 232.465 194.986L232.364 194.354C232.364 194.143 232.309 193.914 232.29 193.694C232.272 193.474 232.29 193.474 232.29 193.365C231.934 193.338 231.587 193.238 231.271 193.073C230.954 192.907 230.675 192.679 230.451 192.402C229.867 191.581 229.468 190.643 229.282 189.654C228.961 188.417 228.657 187.171 228.363 185.925C228.068 184.532 227.811 183.13 227.59 181.728C227.321 180.356 227.161 178.965 227.112 177.568C227.106 177.517 227.12 177.466 227.152 177.425C227.184 177.385 227.231 177.359 227.282 177.353C227.333 177.347 227.385 177.361 227.425 177.393C227.466 177.425 227.492 177.471 227.498 177.522C227.82 178.805 227.967 180.125 228.215 181.426C228.464 182.727 228.74 184.028 229.034 185.32C229.328 186.612 229.66 187.894 230.018 189.177C230.331 190.304 230.653 191.926 231.978 192.329C234.737 193.108 233.477 187.015 233.357 185.824C233.081 183.075 232.907 180.244 232.438 177.513C232.436 177.492 232.442 177.471 232.455 177.454C232.467 177.436 232.485 177.424 232.506 177.418C232.527 177.413 232.549 177.415 232.568 177.424C232.587 177.433 232.603 177.448 232.612 177.467C233.201 179.987 233.882 182.452 234.332 184.999C234.553 186.245 234.709 187.5 234.838 188.765C235.071 189.844 234.984 190.968 234.59 191.999C234.422 192.35 234.171 192.654 233.858 192.885C233.546 193.117 233.181 193.269 232.796 193.328L232.879 193.612C232.943 193.813 233.008 194.015 233.054 194.217C233.1 194.418 233.155 194.629 233.201 194.831C233.294 195.069 233.326 195.328 233.293 195.582C233.282 195.617 233.265 195.65 233.241 195.678C233.217 195.707 233.188 195.73 233.155 195.747C234.323 196.251 235.482 196.755 236.641 197.286C238.085 197.857 239.484 198.534 240.826 199.311C240.983 199.384 240.826 199.604 240.707 199.568C239.207 199.151 237.741 198.624 236.319 197.992C234.866 197.433 233.422 196.837 231.978 196.242C229.115 195.19 226.346 193.903 223.699 192.393C223.67 192.382 223.645 192.362 223.629 192.335C223.613 192.308 223.606 192.277 223.611 192.246C223.615 192.215 223.63 192.186 223.652 192.165C223.675 192.143 223.705 192.13 223.736 192.128Z" fill="#263238"/>
<path d="M144.417 302.648C147.428 295.245 150.608 287.915 153.956 280.658C157.304 273.401 160.848 266.215 164.589 259.099C166.199 256.011 167.68 252.886 170.917 251.219C172.41 250.509 173.973 249.957 175.581 249.569C177.467 249.066 179.371 248.58 181.266 248.103C196.719 244.209 212.347 241.002 227.708 236.714C235.379 234.57 242.987 232.133 250.419 229.256C256.444 226.91 262.469 224.189 267.482 220.038C269.903 218.085 271.974 215.736 273.608 213.093C275.512 209.923 279.955 201.292 273.369 175.151C273.369 175.032 273.497 174.949 273.525 175.059C278.786 193.678 277.673 203.821 276.717 207.513C275.896 210.667 274.43 213.618 272.412 216.181C268.53 221.129 263.048 224.556 257.419 227.231C250.677 230.309 243.724 232.906 236.612 235.001C221.306 239.775 205.614 243.119 190.022 246.802C186.15 247.719 182.287 248.635 178.442 249.634C175.002 250.55 170.973 251.2 168.508 253.995C167.362 255.454 166.395 257.044 165.628 258.732C164.709 260.51 163.789 262.287 162.869 264.074C161.029 267.739 159.211 271.419 157.414 275.115C150.405 289.714 144.025 304.588 138.273 319.736C137.564 321.615 136.865 323.493 136.139 325.362C136.083 325.509 135.863 325.445 135.909 325.298C138.438 317.629 141.391 310.107 144.417 302.648Z" fill="#263238"/>
<path d="M141.798 219.297C144.171 217.876 154.031 212.828 159.274 211.05C164.729 209.218 170.312 207.651 175.831 206.148C187.268 203.045 198.824 200.455 210.5 198.378C213.824 197.768 217.15 197.206 220.48 196.692C223.727 196.109 227.003 195.709 230.295 195.492C230.405 195.492 230.424 195.657 230.295 195.685C227.406 196.399 224.445 196.839 221.51 197.334C218.576 197.829 215.725 198.342 212.846 198.901C207.081 200 201.332 201.197 195.599 202.492C184.257 205.058 172.897 207.862 161.813 211.353C155.917 213.185 147.022 217.482 142.046 219.7C141.993 219.724 141.933 219.728 141.877 219.711C141.821 219.694 141.773 219.657 141.742 219.608C141.712 219.558 141.701 219.499 141.711 219.442C141.721 219.384 141.752 219.333 141.798 219.297Z" fill="#263238"/>
<path d="M178.979 238.418C176.532 236.906 174.15 235.266 171.62 233.91C170.387 233.25 169.109 232.673 167.941 231.894C166.772 231.115 165.567 230.254 164.39 229.429C162.031 227.877 159.77 226.182 157.62 224.353C155.502 222.349 153.259 220.479 150.905 218.755C150.813 218.681 150.905 218.535 150.997 218.599C153.4 220.204 155.908 221.649 158.503 222.924C160.267 223.86 161.963 224.916 163.581 226.085C162.572 225.352 161.61 224.556 160.702 223.703C159.202 222.282 157.721 220.826 156.102 219.515C156.02 219.451 156.102 219.305 156.204 219.369C157.882 220.44 159.62 221.416 161.41 222.292C161.667 222.42 161.925 222.566 162.173 222.704C161.603 222.292 161.033 221.861 160.49 221.412C159.699 220.761 158.945 220.065 158.154 219.396C157.795 219.103 157.445 218.801 157.077 218.48L156.903 218.352C156.698 218.295 156.509 218.193 156.35 218.053C156.191 217.914 156.065 217.74 155.983 217.545C155.977 217.533 155.975 217.519 155.977 217.505C155.98 217.491 155.987 217.479 155.998 217.47C156.008 217.46 156.021 217.455 156.035 217.453C156.049 217.452 156.063 217.455 156.075 217.463C157.813 218.379 159.607 219.185 161.355 220.074C163.102 220.963 164.804 222.09 166.496 223.134C169.852 225.131 172.982 227.481 175.833 230.144C175.883 230.204 175.913 230.279 175.918 230.358C175.922 230.436 175.901 230.514 175.858 230.58C175.815 230.645 175.751 230.696 175.677 230.723C175.603 230.75 175.522 230.752 175.446 230.73C173.907 230.071 172.408 229.321 170.958 228.485L171.197 228.669C172.715 229.915 174.113 231.308 175.548 232.645C175.621 232.709 175.548 232.856 175.437 232.819C173.671 232.086 171.85 231.381 170.157 230.501C169.615 230.208 169.081 229.887 168.557 229.585L169.182 230.025C170.265 230.871 171.303 231.773 172.291 232.728C174.453 234.688 176.891 236.393 179.172 238.161C179.189 238.191 179.197 238.225 179.195 238.259C179.193 238.293 179.181 238.326 179.161 238.353C179.14 238.381 179.112 238.401 179.079 238.413C179.047 238.424 179.012 238.426 178.979 238.418Z" fill="#F7A9A0"/>
<path d="M168.73 218.008C170.441 218.924 172.078 220.024 173.807 220.94C175.519 221.781 177.14 222.795 178.646 223.964C181.626 226.428 184.165 229.397 187.154 231.816C187.246 231.88 187.154 232.027 187.053 231.953C184.036 229.544 180.55 227.867 177.349 225.723C175.801 224.624 174.349 223.398 173.007 222.058C171.591 220.72 170.036 219.538 168.564 218.274C168.529 218.252 168.504 218.217 168.494 218.176C168.485 218.136 168.492 218.094 168.514 218.058C168.536 218.023 168.571 217.998 168.611 217.988C168.652 217.979 168.695 217.986 168.73 218.008Z" fill="#F7A9A0"/>
<path d="M145.863 222.01C149.156 223.513 152.606 224.649 155.871 226.188C157.429 226.939 158.897 227.861 160.249 228.937C161.721 230.092 163.009 231.42 164.591 232.492C164.608 232.506 164.619 232.526 164.623 232.547C164.626 232.568 164.622 232.59 164.611 232.609C164.6 232.628 164.583 232.642 164.562 232.649C164.542 232.656 164.519 232.656 164.499 232.648C162.879 231.81 161.208 231.076 159.495 230.449C157.847 229.773 156.265 228.948 154.767 227.984C151.769 226.014 148.935 223.852 145.753 222.175C145.624 222.139 145.744 221.955 145.863 222.01Z" fill="#F7A9A0"/>
<path d="M247.919 120.34C243.642 137.685 233.266 164.641 224.096 164.495C215.725 164.366 197.062 149.587 189.243 144.74C181.424 139.893 198.966 120.817 203.445 123.904C210.39 128.687 220.793 137.227 222.55 136.668C224.739 135.971 227.517 130.611 240.027 114.788C245.114 108.319 249.741 112.955 247.919 120.34Z" fill="#F7A9A0"/>
<path d="M195.038 116.546C191.359 115.254 187.229 113.467 183.135 113.55C179.042 113.632 175.639 119.047 175.639 120.55C175.639 122.052 177.184 131.71 181.277 131.71C185.371 131.71 182.905 124.325 183.062 123.464C183.218 122.602 183.365 121.539 184.138 121.631C184.911 121.723 198.441 128.1 198.441 128.1L195.038 116.546Z" fill="#F7A9A0"/>
<path d="M194.779 117.117C194.549 117.117 183.576 112.802 179.473 112.884C175.371 112.966 171.977 118.382 171.977 119.884C171.977 121.387 173.522 131.044 177.624 131.044C181.727 131.044 179.243 123.659 179.4 122.798C179.556 121.937 179.712 120.865 180.485 120.965C181.258 121.066 194.779 127.434 194.779 127.434V117.117Z" fill="#F7A9A0"/>
<path d="M179.012 130.531C179.447 129.802 179.682 128.971 179.692 128.122C179.782 127.252 179.732 126.374 179.545 125.52C179.316 124.786 179.15 124.036 179.048 123.275C179.052 122.517 179.248 121.774 179.619 121.112C179.931 120.544 180.538 120.737 181.054 120.92C181.814 121.211 182.557 121.545 183.28 121.919L185.616 123.11C186.432 123.496 187.225 123.931 187.989 124.411C188.044 124.411 187.989 124.548 187.943 124.53C187.234 124.262 186.54 123.956 185.864 123.614L183.519 122.542C182.783 122.221 182.065 121.855 181.33 121.543C181.001 121.353 180.632 121.243 180.253 121.222C179.941 121.296 179.784 122.056 179.711 122.303C179.543 123.038 179.594 123.806 179.858 124.512C180.068 125.242 180.209 125.991 180.281 126.747C180.352 127.461 180.293 128.181 180.106 128.873C179.854 129.494 179.527 130.082 179.131 130.623C179.085 130.687 178.956 130.605 179.012 130.531Z" fill="#263238"/>
<path d="M207.768 127.825C207.768 127.825 196.417 117.517 194.053 115.474C189.316 111.36 169.356 103.242 166.568 102.948C163.781 102.655 162.788 108.336 176.337 114.237C183.475 117.352 184.744 121.42 184.616 123.683C184.487 125.946 182.316 130.097 178.508 130.042C174.7 129.987 172.225 124.398 168.721 123.784C165.216 123.17 167.525 129.566 169.999 133.258C172.593 136.828 176.149 139.592 180.256 141.23C183.558 142.467 193.759 146.846 193.759 146.846L207.768 127.825Z" fill="#F7A9A0"/>
<path d="M173.772 127.375C175.207 128.484 176.835 129.914 178.721 129.987C180.607 130.06 181.94 128.796 182.851 127.238C183.847 125.68 184.206 123.801 183.854 121.988C183.409 120.348 182.503 118.87 181.241 117.727C179.692 116.343 177.951 115.189 176.072 114.3C175.989 114.3 176.072 114.145 176.145 114.181C177.902 114.96 183.357 117.187 184.424 121.988C184.767 123.842 184.385 125.756 183.357 127.339C182.52 128.851 181.287 130.308 179.438 130.454C177.185 130.637 175.244 128.814 173.625 127.458C173.588 127.366 173.689 127.302 173.772 127.375Z" fill="#263238"/>
<path d="M207.771 126.387L190.791 152.647C190.791 152.647 217.733 167.673 225.349 165.255C232.965 162.836 244.491 141.065 249.265 121.971C254.039 102.876 242.237 110.187 237.666 116.088C233.094 121.989 223.188 135.632 222.645 135.458C222.102 135.284 207.771 126.387 207.771 126.387Z" fill="#35A5B2"/>
<path d="M200.413 137.759C201.508 138.144 202.579 138.59 203.623 139.096C205.869 140.238 207.98 141.628 209.915 143.238C210.43 143.669 210.954 144.154 211.46 144.576L211.653 144.741C214.733 147.623 217.656 150.666 220.41 153.857C223.151 157 226.062 159.991 229.13 162.818L228.661 163.221C225.597 160.397 222.683 157.415 219.932 154.288C217.092 151.016 214.08 147.896 210.908 144.942L210.706 144.768C210.31 144.411 209.915 144.063 209.501 143.733C207.608 142.151 205.541 140.789 203.338 139.674C202.284 139.139 201.193 138.679 200.073 138.299L200.413 137.759ZM193.873 147.838C195.29 149.34 196.633 150.87 198.049 152.419C200.33 154.939 202.648 157.449 205.113 159.749L206.797 160.5C203.892 157.794 201.129 154.941 198.518 151.952C197.267 150.559 196.016 149.203 194.728 147.773L194.489 147.526L194.241 147.26L194.048 147.554L193.873 147.819V147.838ZM193.873 147.838C194.159 147.841 194.445 147.826 194.728 147.792C196.154 147.728 197.571 147.59 198.978 147.407C203.012 146.822 207.005 145.99 210.936 144.915C211.188 144.86 211.436 144.793 211.681 144.713C212.334 144.557 212.987 144.383 213.622 144.209C218.392 142.794 223.25 141.692 228.164 140.911C230.626 140.565 233.116 140.469 235.597 140.627C237.872 140.787 240.12 141.218 242.293 141.909L242.486 141.488C240.262 140.777 237.956 140.349 235.624 140.214C233.12 140.086 230.608 140.205 228.128 140.572C223.199 141.4 218.329 142.544 213.548 143.998L211.479 144.576L210.724 144.768C206.873 145.859 202.947 146.67 198.978 147.196C197.497 147.389 196.016 147.517 194.517 147.572H194.075L193.873 147.838ZM237.188 116.602C240.009 117.763 242.889 118.775 245.816 119.635L246.083 119.727C246.745 119.91 247.398 120.084 248.06 120.24C248.548 120.359 249.054 120.469 249.551 120.551C249.551 120.341 249.633 120.148 249.679 119.938C249.192 119.846 248.704 119.745 248.217 119.626C247.729 119.507 247.187 119.369 246.662 119.214C246.575 119.201 246.488 119.18 246.405 119.15C243.425 118.307 240.518 117.207 237.611 116.062C237.464 116.309 237.354 116.447 237.197 116.63L237.188 116.602ZM222.655 135.404C223.908 135.072 225.137 134.655 226.334 134.158C228.624 133.192 230.812 132.001 232.865 130.603C236.924 127.707 240.792 124.554 244.446 121.165C244.988 120.689 245.522 120.249 246.064 119.754L246.644 119.241C247.831 118.215 249.017 117.207 250.231 116.217C250.241 116.132 250.241 116.046 250.231 115.961C248.916 116.996 247.637 118.078 246.359 119.177C246.166 119.333 245.972 119.507 245.77 119.663C245.264 120.112 244.767 120.579 244.252 120.982C240.593 124.345 236.716 127.464 232.644 130.319C230.589 131.701 228.398 132.871 226.104 133.81C225.181 134.184 224.238 134.508 223.28 134.781C223.106 135.025 222.899 135.244 222.664 135.431L222.655 135.404ZM202.51 134.46C203.044 134.625 203.577 134.781 204.12 134.927C208.954 136.33 214.023 136.741 219.021 136.137C220.216 135.986 221.399 135.756 222.563 135.45L221.992 135.129C220.995 135.368 219.985 135.549 218.966 135.67C214.022 136.204 209.021 135.762 204.249 134.369C203.77 134.24 203.329 134.103 202.832 133.938L202.51 134.46Z" fill="white"/>
<path opacity="0.1" d="M209.773 161.8C215.909 164.292 221.934 166.106 225.079 165.318L225.355 165.245C232.972 162.817 244.479 141.065 249.271 121.961C249.985 119.407 250.353 116.769 250.366 114.118C250.366 114.017 250.366 113.934 250.366 113.834C250.36 113.68 250.344 113.527 250.32 113.375C250.324 113.314 250.324 113.253 250.32 113.192C250.311 113.057 250.293 112.922 250.265 112.789L209.773 161.8Z" fill="black"/>
<path d="M200.267 150.055C200.801 149.138 201.344 148.222 201.895 147.306C202.99 145.473 209.567 134.478 212.161 131.116C212.234 131.024 212.372 131.116 212.326 131.226C210.487 135.065 203.698 145.886 202.558 147.645C201.978 148.561 201.399 149.477 200.81 150.394C200.221 151.31 199.513 152.135 198.924 153.042C198.86 153.133 198.713 153.042 198.768 152.968C199.311 151.979 199.743 150.989 200.267 150.055Z" fill="#263238"/>
<path d="M286.443 194.913C286.286 195.087 227.132 176.588 226.515 175.91C225.66 174.911 235.447 120.018 242.566 110.975C244.093 109.042 253.972 105.477 258.985 110.975C278.495 132.699 287.013 194.281 286.443 194.913Z" fill="#35A5B2"/>
<path d="M228.425 162.192C229.226 162.944 230.053 163.668 230.909 164.373C233.586 166.624 236.534 168.536 239.684 170.063L240.153 170.283C241.312 170.819 242.5 171.287 243.713 171.685C246.05 172.495 248.49 172.973 250.961 173.105C253.425 173.224 255.894 173.061 258.32 172.619C262.923 171.662 267.444 170.348 271.842 168.689L272.513 168.46H272.614C275.493 167.461 278.4 166.49 281.343 165.711C281.363 165.774 281.378 165.838 281.389 165.903C278.455 166.7 275.558 167.736 272.697 168.716C272.485 168.789 272.255 168.863 272.035 168.954C267.596 170.649 263.032 172 258.384 172.995C255.922 173.472 253.413 173.663 250.906 173.563C248.401 173.444 245.925 172.981 243.547 172.189C242.114 171.722 240.713 171.162 239.353 170.512L238.884 170.301C235.892 168.824 233.085 167 230.523 164.868C229.759 164.245 229.023 163.603 228.297 162.935C228.343 162.66 228.389 162.431 228.425 162.192ZM226.898 171.465C227.616 171.556 228.333 171.621 229.06 171.657C231.56 171.756 234.063 171.569 236.52 171.098C237.44 170.924 238.433 170.704 239.362 170.466L240.153 170.283C243.787 169.367 247.319 168.029 250.842 166.801C255.494 165.033 260.292 163.672 265.182 162.733C265.679 162.641 266.175 162.568 266.69 162.504C266.939 162.504 267.187 162.431 267.436 162.403C271.615 161.873 275.851 161.971 280 162.696C280.24 162.696 280.47 162.77 280.709 162.825C280.686 162.698 280.655 162.572 280.617 162.449C280.433 162.403 280.249 162.376 280.065 162.339C275.827 161.638 271.506 161.583 267.252 162.174L266.506 162.275C266.047 162.348 265.587 162.412 265.136 162.504C260.249 163.491 255.446 164.851 250.768 166.572C247.089 167.827 243.409 169.128 239.684 170.063C239.427 170.136 239.169 170.2 238.893 170.255C238.093 170.448 237.283 170.613 236.474 170.759C234.048 171.201 231.579 171.364 229.115 171.245C228.407 171.199 227.699 171.135 227 171.034C226.944 171.181 226.917 171.282 226.898 171.465ZM232.859 140.587C233.761 140.563 234.664 140.584 235.563 140.651C238.034 140.821 240.471 141.314 242.812 142.117C247.48 143.797 251.771 146.375 255.441 149.704C259.051 153.103 262.356 156.81 265.32 160.781C265.715 161.285 266.102 161.78 266.506 162.275C266.559 162.358 266.621 162.434 266.69 162.504C268.346 164.611 270.039 166.709 271.878 168.689C271.937 168.766 272.002 168.84 272.072 168.909C273.077 169.984 274.129 171.01 275.227 171.987C277.099 173.672 279.183 175.107 281.426 176.257C282.208 176.633 283.008 176.999 283.836 177.311C283.79 177.072 283.735 176.825 283.689 176.578C283.018 176.312 282.355 176.01 281.711 175.661C279.517 174.53 277.479 173.119 275.65 171.465C274.631 170.57 273.657 169.626 272.734 168.634C272.669 168.569 272.605 168.487 272.55 168.423C270.71 166.499 269.082 164.437 267.436 162.366L267.252 162.137L265.835 160.351C262.837 156.383 259.498 152.682 255.855 149.291C252.123 145.917 247.742 143.333 242.977 141.696C240.6 140.889 238.125 140.406 235.618 140.257C234.739 140.211 233.858 140.211 232.979 140.257C232.914 140.34 232.859 140.468 232.859 140.587ZM239.353 117.47C241.478 118.276 243.63 119.037 245.792 119.66L246.059 119.751C246.721 119.935 247.374 120.109 248.036 120.264C250.482 120.864 252.987 121.187 255.505 121.226C256.767 121.239 258.027 121.16 259.277 120.988C259.893 120.906 260.518 120.778 261.116 120.658C261.714 120.539 262.349 120.457 262.956 120.292C263.563 120.127 264.4 119.935 265.099 119.724C265.013 119.551 264.918 119.383 264.814 119.22C264.152 119.403 263.489 119.568 262.827 119.715C261.613 119.971 260.39 120.154 259.148 120.374C257.928 120.537 256.699 120.614 255.468 120.603C253.005 120.564 250.553 120.256 248.156 119.687C247.632 119.559 247.126 119.431 246.601 119.275C246.513 119.262 246.427 119.241 246.344 119.211C244.035 118.569 241.745 117.754 239.519 116.893C239.5 117.048 239.427 117.222 239.353 117.47ZM235.894 128.419C238.875 126.138 241.662 123.636 244.467 121.162C245.01 120.686 245.543 120.246 246.086 119.751L246.666 119.238C249.649 116.575 252.818 114.125 256.149 111.908C256.913 111.413 257.676 110.937 258.458 110.488L258.265 110.305C257.511 110.744 256.756 111.221 256.02 111.707C252.664 113.992 249.454 116.483 246.408 119.165C246.215 119.321 246.022 119.495 245.819 119.651C245.314 120.099 244.817 120.567 244.302 120.97C241.588 123.334 238.884 125.734 236.023 127.915C235.996 128.08 235.95 128.218 235.894 128.419Z" fill="white"/>
<path d="M264.007 128.531C260.981 146.214 246.08 179.3 236.366 182.406C225.126 186.017 186.097 173.592 178.417 168.003C175.372 165.776 191.616 146.196 195.415 147.58C211.301 153.407 225.393 156.394 227.435 155.01C230.581 152.885 243.403 134.587 251.737 123.235C262.223 108.978 265.369 120.596 264.007 128.531Z" fill="#F7A9A0"/>
<path d="M179.445 168.533C177.707 167.91 165.749 159.27 162.226 155.211C158.406 151.009 155.299 146.215 153.028 141.018C149.486 132.772 147.812 126.77 148.668 124.076C149.661 120.943 149.946 120.411 158.206 134.082C162.888 141.815 167.34 142.685 171.213 142.612C180.724 142.432 190.14 144.527 198.67 148.724C198.67 148.724 186.114 170.906 179.445 168.533Z" fill="#F7A9A0"/>
<path d="M159.664 110.537L179.634 136.193C179.768 136.317 179.867 136.476 179.919 136.651C179.971 136.826 179.976 137.012 179.932 137.19C179.887 137.367 179.797 137.53 179.668 137.661C179.54 137.791 179.379 137.886 179.202 137.934L165.045 142.469C164.604 142.574 164.141 142.553 163.711 142.407C163.282 142.261 162.902 141.997 162.617 141.644L142.638 115.989C142.504 115.864 142.406 115.706 142.353 115.531C142.301 115.356 142.297 115.17 142.341 114.992C142.385 114.815 142.476 114.652 142.604 114.521C142.732 114.391 142.893 114.296 143.071 114.248L157.227 109.713C157.67 109.609 158.133 109.631 158.564 109.777C158.995 109.923 159.376 110.186 159.664 110.537Z" fill="#263238"/>
<path d="M158.455 109.317L144.299 113.852C144.122 113.9 143.961 113.994 143.833 114.125C143.704 114.256 143.613 114.418 143.569 114.596C143.525 114.774 143.529 114.96 143.582 115.135C143.634 115.31 143.732 115.468 143.867 115.593L163.836 141.248C164.123 141.601 164.504 141.866 164.935 142.012C165.367 142.158 165.831 142.179 166.274 142.073L180.43 137.528C180.607 137.479 180.768 137.383 180.896 137.252C181.024 137.12 181.115 136.957 181.159 136.779C181.203 136.601 181.198 136.414 181.146 136.239C181.094 136.063 180.996 135.904 180.862 135.778L160.884 110.123C160.595 109.776 160.215 109.516 159.785 109.374C159.356 109.231 158.895 109.211 158.455 109.317ZM179.354 135.274C179.878 135.952 179.722 136.676 179.014 136.905L166.348 140.964C165.936 141.053 165.507 141.023 165.111 140.879C164.716 140.735 164.369 140.481 164.112 140.149L145.476 116.308C144.409 114.933 144.925 114.677 145.642 114.475L148.172 113.66C148.274 113.651 148.378 113.669 148.472 113.712C148.565 113.756 148.646 113.823 148.705 113.907L148.76 113.98C148.852 114.132 149 114.241 149.172 114.286C149.343 114.33 149.526 114.306 149.68 114.219L155.549 112.386C155.88 112.285 156.147 112.194 155.806 111.772L155.751 111.69C155.604 111.507 155.613 111.323 155.751 111.277L158.29 110.462C158.998 110.233 159.715 110.233 160.691 111.497L179.354 135.274Z" fill="#455A64"/>
<path d="M153.049 112.447L151.448 112.952C151.418 112.961 151.386 112.961 151.356 112.951C151.327 112.941 151.301 112.922 151.283 112.897C151.273 112.89 151.265 112.881 151.26 112.871C151.255 112.86 151.252 112.849 151.252 112.837C151.252 112.825 151.255 112.814 151.26 112.803C151.265 112.793 151.273 112.784 151.283 112.777L152.883 112.273C152.913 112.263 152.945 112.263 152.975 112.273C153.005 112.283 153.031 112.302 153.049 112.328C153.058 112.335 153.066 112.344 153.071 112.354C153.077 112.364 153.079 112.376 153.079 112.387C153.079 112.399 153.077 112.411 153.071 112.421C153.066 112.431 153.058 112.44 153.049 112.447Z" fill="#263238"/>
<path d="M160.742 111.404L179.35 135.227C179.875 135.905 179.728 136.628 179.01 136.857L166.344 140.916C165.932 141.005 165.503 140.976 165.108 140.831C164.712 140.687 164.366 140.434 164.109 140.101L145.473 116.306C144.406 114.931 144.921 114.675 145.639 114.473L148.168 113.658C148.271 113.649 148.374 113.667 148.468 113.71C148.562 113.754 148.642 113.821 148.702 113.905L148.757 113.979C148.849 114.13 148.996 114.24 149.168 114.284C149.34 114.329 149.522 114.304 149.677 114.217L155.545 112.384C155.876 112.283 156.143 112.192 155.803 111.77L155.747 111.688C155.6 111.505 155.61 111.321 155.747 111.276L158.286 110.46C159.05 110.139 159.767 110.139 160.742 111.404Z" fill="white"/>
<path d="M160.742 111.404L162.131 113.181L146.899 118.056L145.473 116.306C144.406 114.931 144.921 114.675 145.639 114.473L148.177 113.658C148.279 113.649 148.381 113.667 148.473 113.71C148.566 113.754 148.644 113.821 148.702 113.905L148.757 113.979C148.849 114.13 148.996 114.24 149.168 114.284C149.34 114.329 149.522 114.304 149.677 114.217L155.545 112.384C155.876 112.283 156.143 112.192 155.803 111.77L155.747 111.688C155.6 111.505 155.61 111.321 155.747 111.276L158.286 110.46C159.05 110.139 159.767 110.139 160.742 111.404Z" fill="#35A5B2"/>
<path d="M148.233 114.293C148.135 114.256 148.027 114.256 147.93 114.293C147.89 114.302 147.854 114.321 147.825 114.348C147.796 114.376 147.775 114.41 147.764 114.449C147.761 114.428 147.761 114.406 147.764 114.385C147.764 114.385 147.81 114.385 147.838 114.33H148.178L148.233 114.293Z" fill="white"/>
<path d="M147.838 114.53H147.773C147.779 114.503 147.791 114.478 147.809 114.457C147.827 114.437 147.849 114.42 147.875 114.41C147.921 114.39 147.971 114.379 148.022 114.379C148.073 114.379 148.123 114.39 148.17 114.41C148.104 114.388 148.033 114.388 147.967 114.41C147.935 114.412 147.904 114.425 147.881 114.447C147.857 114.469 147.842 114.498 147.838 114.53Z" fill="white"/>
<path d="M148.14 114.477V114.523C148.104 114.513 148.066 114.513 148.03 114.523C148.017 114.527 148.005 114.534 147.995 114.543C147.986 114.553 147.979 114.565 147.975 114.578H147.91C147.919 114.477 148.021 114.477 148.14 114.477Z" fill="white"/>
<path d="M148.103 114.566C148.103 114.566 148.103 114.566 148.103 114.613C148.094 114.617 148.084 114.619 148.075 114.619C148.065 114.619 148.056 114.617 148.047 114.613C148.047 114.613 148.047 114.613 148.047 114.613L148.103 114.566Z" fill="white"/>
<path d="M145.853 115.116C145.843 115.109 145.836 115.1 145.83 115.09C145.825 115.08 145.822 115.068 145.822 115.056C145.822 115.045 145.825 115.033 145.83 115.023C145.836 115.012 145.843 115.003 145.853 114.996C145.884 114.99 145.917 114.991 145.948 115.001C145.979 115.01 146.006 115.028 146.028 115.052C146.038 115.059 146.045 115.069 146.051 115.08C146.056 115.092 146.059 115.104 146.059 115.116C146.059 115.129 146.056 115.141 146.051 115.152C146.045 115.163 146.038 115.173 146.028 115.181C145.996 115.19 145.961 115.189 145.93 115.177C145.898 115.166 145.871 115.144 145.853 115.116Z" fill="white"/>
<path d="M146.167 115.015C146.158 115.008 146.15 114.999 146.145 114.989C146.139 114.978 146.137 114.967 146.137 114.955C146.137 114.943 146.139 114.932 146.145 114.921C146.15 114.911 146.158 114.902 146.167 114.895C146.197 114.888 146.229 114.889 146.258 114.899C146.288 114.909 146.313 114.927 146.333 114.95C146.379 115.006 146.333 115.061 146.333 115.07C146.303 115.077 146.272 115.076 146.242 115.066C146.213 115.056 146.187 115.039 146.167 115.015Z" fill="white"/>
<path d="M146.488 114.913C146.478 114.906 146.471 114.897 146.465 114.887C146.46 114.877 146.457 114.865 146.457 114.853C146.457 114.842 146.46 114.83 146.465 114.82C146.471 114.809 146.478 114.8 146.488 114.794C146.518 114.786 146.549 114.788 146.579 114.798C146.608 114.807 146.634 114.825 146.654 114.849C146.654 114.904 146.654 114.95 146.654 114.969C146.624 114.977 146.592 114.976 146.562 114.966C146.533 114.956 146.507 114.938 146.488 114.913Z" fill="white"/>
<path d="M146.812 114.812C146.8 114.807 146.79 114.798 146.783 114.788C146.775 114.777 146.771 114.765 146.771 114.752C146.771 114.739 146.775 114.726 146.783 114.715C146.79 114.705 146.8 114.697 146.812 114.692C146.843 114.685 146.876 114.686 146.907 114.696C146.938 114.706 146.965 114.723 146.987 114.747C146.997 114.754 147.004 114.763 147.01 114.773C147.015 114.784 147.018 114.795 147.018 114.807C147.018 114.819 147.015 114.83 147.01 114.841C147.004 114.851 146.997 114.86 146.987 114.867C146.956 114.876 146.922 114.875 146.891 114.866C146.86 114.856 146.833 114.837 146.812 114.812Z" fill="white"/>
<path d="M147.123 114.71C147.113 114.703 147.105 114.694 147.1 114.684C147.095 114.674 147.092 114.662 147.092 114.65C147.092 114.639 147.095 114.627 147.1 114.617C147.105 114.606 147.113 114.597 147.123 114.59C147.153 114.583 147.184 114.585 147.213 114.594C147.243 114.604 147.269 114.622 147.288 114.646C147.298 114.653 147.306 114.662 147.311 114.672C147.316 114.682 147.319 114.694 147.319 114.706C147.319 114.717 147.316 114.729 147.311 114.739C147.306 114.75 147.298 114.759 147.288 114.765C147.258 114.771 147.227 114.768 147.198 114.759C147.17 114.749 147.143 114.732 147.123 114.71Z" fill="white"/>
<path d="M159.098 111.121L158.279 111.387L158.021 111.047L158.84 110.781L159.098 111.121ZM158.288 111.332L159.033 111.093L158.831 110.836L158.086 111.075L158.288 111.332Z" fill="white"/>
<path d="M158.657 110.91L158.133 111.084L158.308 111.305L158.832 111.14L158.657 110.91Z" fill="white"/>
<path d="M159.12 111.02L159.046 111.039L158.908 110.864L158.982 110.836L159.12 111.02Z" fill="white"/>
<path d="M157.704 127.477C157.967 127.778 158.307 128.003 158.687 128.127C159.068 128.251 159.475 128.271 159.866 128.183L167.317 125.544C167.507 125.49 167.68 125.385 167.817 125.242C167.954 125.099 168.05 124.922 168.095 124.729C168.14 124.537 168.132 124.336 168.073 124.147C168.014 123.959 167.905 123.789 167.758 123.656C167.451 123.309 167.057 123.048 166.616 122.9C166.175 122.752 165.703 122.722 165.247 122.813C164.7 122.218 163.998 121.784 163.218 121.561C162.439 121.338 161.613 121.334 160.832 121.549C160.589 121.61 160.361 121.722 160.165 121.877C159.968 122.032 159.807 122.227 159.691 122.448C159.576 122.67 159.509 122.913 159.494 123.163C159.48 123.412 159.519 123.661 159.608 123.895C159.334 123.872 159.059 123.906 158.799 123.995C158.611 124.043 158.44 124.14 158.302 124.276C158.164 124.411 158.065 124.581 158.014 124.767C157.964 124.954 157.964 125.15 158.014 125.336C158.065 125.523 158.164 125.692 158.302 125.828L158.072 125.892C157.909 125.934 157.76 126.019 157.643 126.139C157.525 126.26 157.442 126.41 157.405 126.573C157.367 126.737 157.374 126.908 157.427 127.067C157.48 127.226 157.576 127.368 157.704 127.477Z" fill="#35A5B2"/>
<g opacity="0.1">
<path opacity="0.1" d="M157.704 127.473C157.967 127.774 158.307 127.999 158.687 128.123C159.068 128.248 159.475 128.267 159.866 128.179L167.317 125.54C167.507 125.486 167.68 125.382 167.817 125.238C167.954 125.095 168.05 124.918 168.095 124.726C168.14 124.533 168.132 124.332 168.073 124.143C168.014 123.955 167.905 123.785 167.758 123.652C167.451 123.305 167.057 123.044 166.616 122.896C166.175 122.748 165.703 122.718 165.247 122.81C164.7 122.214 163.998 121.78 163.218 121.557C162.439 121.334 161.613 121.33 160.832 121.545C160.589 121.606 160.361 121.718 160.165 121.873C159.968 122.028 159.807 122.223 159.691 122.444C159.576 122.666 159.509 122.909 159.494 123.159C159.48 123.408 159.519 123.657 159.608 123.891C159.334 123.868 159.059 123.902 158.799 123.992C158.611 124.039 158.44 124.136 158.302 124.272C158.164 124.407 158.065 124.577 158.014 124.763C157.964 124.95 157.964 125.146 158.014 125.333C158.065 125.519 158.164 125.688 158.302 125.824L158.072 125.888C157.909 125.93 157.76 126.015 157.643 126.136C157.525 126.256 157.442 126.406 157.405 126.569C157.367 126.733 157.374 126.904 157.427 127.063C157.48 127.223 157.576 127.364 157.704 127.473Z" fill="black"/>
</g>
<path d="M157.253 127.631C157.516 127.932 157.856 128.157 158.236 128.282C158.616 128.408 159.023 128.43 159.414 128.346L166.865 125.716C167.056 125.662 167.229 125.558 167.365 125.415C167.502 125.272 167.598 125.095 167.643 124.902C167.688 124.71 167.681 124.509 167.621 124.32C167.562 124.131 167.454 123.962 167.307 123.829C167.001 123.478 166.608 123.215 166.166 123.067C165.725 122.919 165.251 122.891 164.795 122.986C164.25 122.388 163.548 121.952 162.769 121.727C161.989 121.502 161.162 121.497 160.38 121.712C160.138 121.775 159.912 121.887 159.716 122.043C159.52 122.198 159.359 122.393 159.244 122.614C159.129 122.835 159.061 123.078 159.046 123.327C159.031 123.575 159.069 123.825 159.157 124.058C158.883 124.039 158.608 124.074 158.347 124.159C158.16 124.207 157.988 124.303 157.85 124.439C157.712 124.575 157.613 124.744 157.562 124.931C157.512 125.117 157.512 125.314 157.563 125.5C157.613 125.686 157.713 125.856 157.851 125.991L157.621 126.055C157.459 126.098 157.313 126.184 157.197 126.303C157.081 126.423 156.999 126.571 156.961 126.733C156.924 126.895 156.931 127.064 156.982 127.223C157.033 127.381 157.127 127.522 157.253 127.631Z" fill="#35A5B2"/>
<path d="M164.573 127.046L163.156 127.55L161.602 125.672L163.018 125.168L164.573 127.046Z" fill="#35A5B2"/>
<path d="M165.063 126.883L162.672 127.726L164.723 128.34L165.063 126.883Z" fill="#35A5B2"/>
<g opacity="0.2">
<path opacity="0.2" d="M164.575 127.046L163.158 127.55L161.604 125.672L163.02 125.168L164.575 127.046Z" fill="black"/>
<path opacity="0.2" d="M165.06 126.883L162.668 127.726L164.719 128.34L165.06 126.883Z" fill="black"/>
</g>
<path d="M169.292 142.547C173.284 142.602 160.305 134.53 160.093 130.003C159.882 125.477 164.324 126.897 167.82 129.454C179.943 138.332 189.086 137.892 195.231 146.377C201.375 154.861 169.292 142.547 169.292 142.547Z" fill="#F7A9A0"/>
<path d="M181.349 137.024C183.948 137.683 186.454 138.662 188.809 139.937C190.917 141.256 192.751 142.967 194.209 144.977C194.273 145.059 194.154 145.178 194.089 145.087C190.815 141.083 185.967 139.076 181.313 137.143C181.3 137.135 181.291 137.124 181.286 137.111C181.28 137.097 181.28 137.082 181.284 137.069C181.288 137.055 181.297 137.043 181.309 137.035C181.321 137.027 181.335 137.023 181.349 137.024Z" fill="#263238"/>
<path d="M226.596 153.917C223.496 154.751 201.861 148.841 201.861 148.841L189.701 178.162C189.701 178.162 227.414 186.903 236.171 183.87C244.928 180.837 258.615 151.031 263.086 133.714C267.243 117.45 261.697 106.84 250.042 123.681C250.042 123.708 228.261 153.478 226.596 153.917Z" fill="#35A5B2"/>
<path d="M219.78 153.167C220 153.387 220.203 153.626 220.405 153.855C223.641 157.614 227.152 161.13 230.91 164.373C233.587 166.625 236.535 168.536 239.685 170.063L240.154 170.283C241.312 170.819 242.501 171.287 243.714 171.685C244.657 172.012 245.618 172.285 246.593 172.501C246.51 172.638 246.418 172.766 246.345 172.913C245.412 172.703 244.491 172.446 243.585 172.143C242.151 171.676 240.75 171.116 239.391 170.466L238.921 170.256C235.929 168.779 233.123 166.955 230.56 164.822C226.768 161.576 223.223 158.054 219.954 154.285L218.713 152.957L219.78 153.167ZM199.645 154.175C202.431 157.313 205.44 160.246 208.65 162.953C212.491 166.189 216.91 168.676 221.675 170.283C224.054 171.068 226.53 171.53 229.033 171.658C231.533 171.756 234.036 171.569 236.493 171.099C237.413 170.925 238.406 170.705 239.335 170.466L240.126 170.283C243.346 169.431 246.482 168.322 249.61 167.223C249.674 167.113 249.73 167.003 249.785 166.893C246.446 168.048 243.088 169.22 239.667 170.063C239.409 170.137 239.151 170.201 238.875 170.256C238.075 170.448 237.266 170.613 236.456 170.76C234.03 171.201 231.561 171.364 229.098 171.245C226.629 171.103 224.19 170.629 221.849 169.834C217.164 168.198 212.823 165.713 209.045 162.504C205.794 159.737 202.747 156.739 199.93 153.534L199.645 154.175ZM237.293 140.826C239.172 141.069 241.021 141.502 242.812 142.117C247.481 143.797 251.772 146.375 255.442 149.704C256.012 150.217 256.564 150.73 257.107 151.289L257.355 150.694C256.858 150.208 256.352 149.777 255.828 149.273C252.096 145.899 247.715 143.315 242.95 141.678C241.206 141.084 239.407 140.666 237.579 140.432L237.293 140.826ZM252.057 120.989C253.21 121.136 254.371 121.216 255.534 121.227C256.795 121.239 258.055 121.16 259.305 120.989C259.921 120.906 260.547 120.778 261.145 120.659C261.743 120.54 262.377 120.457 262.984 120.292C263.352 120.201 263.72 120.118 264.079 120.008C264.079 119.816 264.005 119.632 263.959 119.449L262.856 119.715C261.641 119.971 260.418 120.155 259.176 120.375C257.957 120.538 256.727 120.614 255.497 120.604C254.491 120.595 253.487 120.53 252.489 120.411C252.369 120.595 252.222 120.787 252.057 120.989Z" fill="white"/>
<path d="M208.359 181.887C209.279 182.052 210.199 182.217 211.119 182.364L208.359 181.887Z" fill="#EBEBEB"/>
<path d="M222.126 153.603C221.298 153.466 220.406 153.301 219.477 153.117L222.126 153.603Z" fill="#EBEBEB"/>
<path d="M236.632 182.926C243.991 179.169 253.088 159.497 254.835 155.64C255.958 153.166 256.979 150.655 257.981 148.136C259.996 143.087 261.845 137.984 263.601 132.852C263.607 132.838 263.616 132.826 263.628 132.818C263.641 132.809 263.655 132.805 263.67 132.805C263.685 132.805 263.7 132.809 263.712 132.818C263.725 132.826 263.734 132.838 263.739 132.852C262.777 136.823 261.615 140.741 260.253 144.608C261.143 143.165 261.948 141.672 262.663 140.137C262.673 140.125 262.687 140.117 262.702 140.113C262.718 140.11 262.733 140.111 262.748 140.117C262.762 140.124 262.774 140.134 262.782 140.147C262.79 140.161 262.793 140.176 262.792 140.192C262.067 142.022 261.125 143.76 259.986 145.369C258.607 149.244 257.043 153.065 255.305 156.785C254.808 157.857 244.267 181.955 236.062 184.19C233.201 184.969 223.396 184.264 221.344 183.796C221.262 183.796 221.234 183.668 221.344 183.659C224.131 183.631 234.001 184.273 236.632 182.926Z" fill="#263238"/>
<path d="M197.841 174.586C198.199 173.578 198.577 172.57 198.954 171.562C199.745 169.546 204.234 157.543 206.184 153.878C206.193 153.855 206.212 153.837 206.235 153.827C206.259 153.818 206.285 153.818 206.308 153.828C206.331 153.837 206.349 153.856 206.359 153.879C206.368 153.902 206.368 153.928 206.358 153.951C205.255 158.056 200.453 169.876 199.644 171.828C199.239 172.817 198.825 173.816 198.402 174.805C197.979 175.795 197.436 176.757 197.013 177.756C196.967 177.847 196.811 177.811 196.847 177.701C197.234 176.656 197.473 175.603 197.841 174.586Z" fill="#263238"/>
<path d="M201.854 148.897C203.647 148.971 219.836 152.718 223.415 153.524C224.265 153.803 225.16 153.924 226.054 153.882C226.928 153.624 227.681 153.065 228.179 152.306C229.338 150.977 241.977 134.311 242.897 133.486C243.237 133.174 243.513 133.119 243.182 133.642C242.621 134.558 230.304 151.051 229.191 152.306C228.078 153.561 227.177 154.771 225.429 154.706C224.666 154.706 202.829 149.795 201.752 149.346C201.587 149.291 201.587 148.879 201.854 148.897Z" fill="#263238"/>
<path d="M244.312 120.979C247.596 120.915 254.936 115.536 256.003 110.561C256.076 110.213 254.697 107.253 253.188 103.588C252.268 101.353 251.348 98.8423 250.613 96.4966C250.475 96.011 236.889 104.496 236.889 104.496C238.62 107.18 240.014 110.066 241.037 113.09C241.127 113.417 241.189 113.751 241.221 114.089C241.221 114.089 241.221 114.19 241.221 114.254C241.506 116.178 240.789 121.052 244.312 120.979Z" fill="#F7A9A0"/>
<path d="M241.225 114.089C241.225 114.089 241.225 114.19 241.225 114.254C241.749 114.164 242.265 114.039 242.771 113.878C251.426 111.129 250.451 99.5386 250.074 96.6523C247.554 97.816 236.865 104.486 236.865 104.486C238.596 107.174 239.989 110.064 241.014 113.09C241.113 113.416 241.184 113.75 241.225 114.089Z" fill="#263238"/>
<path d="M247.862 77.3727C250.879 82.2197 252.139 98.1993 249.278 102.588C245.13 108.956 236.318 111.751 230.376 106.363C224.617 101.104 223.339 80.2498 226.696 76.0533C231.709 69.8686 243.401 70.2076 247.862 77.3727Z" fill="#F7A9A0"/>
<path d="M235.108 90.6532C235.108 90.6074 235.19 90.699 235.2 90.7356C235.255 91.8168 235.503 93.0446 236.506 93.3195V93.3836C235.301 93.3378 234.988 91.7069 235.108 90.6532Z" fill="#263238"/>
<path d="M235.97 89.4686C237.699 89.1938 238.131 92.6572 236.531 92.9138C234.93 93.1703 234.526 89.7344 235.97 89.4686Z" fill="#263238"/>
<path d="M229.179 91.375C229.179 91.375 229.097 91.4391 229.106 91.4758C229.271 92.5478 229.281 93.7939 228.352 94.2246C228.352 94.2246 228.352 94.2979 228.352 94.2887C229.52 94.023 229.492 92.3554 229.179 91.375Z" fill="#263238"/>
<path d="M228.061 90.3761C226.322 90.4586 226.607 93.9312 228.226 93.8488C229.845 93.7663 229.533 90.3028 228.061 90.3761Z" fill="#263238"/>
<path d="M237.145 87.7226C236.673 87.65 236.206 87.5491 235.747 87.4202C235.237 87.3826 234.755 87.1761 234.376 86.8338C234.272 86.7038 234.215 86.5422 234.215 86.3757C234.215 86.2091 234.272 86.0476 234.376 85.9176C234.617 85.6899 234.915 85.5313 235.239 85.4588C235.563 85.3862 235.9 85.4022 236.216 85.5052C236.869 85.6003 237.466 85.9254 237.899 86.4215C238.013 86.5451 238.084 86.7014 238.102 86.8678C238.12 87.0343 238.084 87.2022 238 87.3471C237.916 87.4921 237.788 87.6067 237.634 87.6742C237.48 87.7417 237.309 87.7586 237.145 87.7226Z" fill="#263238"/>
<path d="M226.507 88.82C226.96 88.6659 227.406 88.4885 227.841 88.2885C228.339 88.1718 228.783 87.8909 229.101 87.4914C229.188 87.3457 229.221 87.1742 229.194 87.0067C229.167 86.8392 229.082 86.6865 228.954 86.5752C228.685 86.3958 228.373 86.2904 228.05 86.2695C227.727 86.2486 227.404 86.3129 227.114 86.456C226.475 86.6582 225.936 87.0935 225.605 87.6747C225.529 87.8104 225.494 87.9657 225.506 88.1209C225.518 88.2762 225.576 88.4244 225.672 88.547C225.769 88.6695 225.9 88.7608 226.048 88.8094C226.197 88.858 226.356 88.8617 226.507 88.82Z" fill="#263238"/>
<path d="M232.945 98.8968C233.473 99.4309 234.128 99.822 234.849 100.033C235.246 100.132 235.664 100.106 236.045 99.9597C236.882 99.6299 236.809 98.8419 236.56 98.1913C236.432 97.8454 236.262 97.5163 236.054 97.2109C235.225 98.0887 234.136 98.6794 232.945 98.8968Z" fill="#263238"/>
<path d="M234.848 99.9901C235.244 100.089 235.662 100.063 236.043 99.9168C236.88 99.587 236.807 98.799 236.559 98.1484C236.107 98.2191 235.693 98.4393 235.382 98.7735C235.072 99.1077 234.883 99.5363 234.848 99.9901Z" fill="#FF9BBC"/>
<path d="M250.477 91.6694C247.524 91.9718 245.721 84.7608 245.721 84.7608C245.721 84.7608 241.83 84.2752 239.117 77.9805C239.117 77.9805 238.197 85.0265 225.991 86.4376C225.111 84.4181 224.895 82.1729 225.375 80.0238C224.688 82.3489 224.199 84.7273 223.912 87.1339C223.912 87.1339 218.697 77.9714 226.304 72.4738C229.33 70.2931 234.509 69.3494 243.183 71.3193C243.183 71.3193 243.56 66.3349 244.599 66.738C245.639 67.1412 244.958 71.8691 244.958 71.8691C244.958 71.8691 248.113 70.0366 248.858 70.5772C249.603 71.1178 246.42 72.712 246.42 72.712C248.077 72.8912 249.615 73.658 250.751 74.8725C251.888 76.0871 252.548 77.6683 252.611 79.3274C253.098 85.0174 251.939 91.5686 250.477 91.6694Z" fill="#263238"/>
<path d="M245.462 72.8689C246.952 72.4587 248.541 72.6047 249.93 73.2797C251.319 73.9547 252.412 75.112 253.005 76.534C253.58 78.237 253.756 80.0486 253.52 81.8299C253.296 83.6907 252.839 85.5161 252.159 87.2634C252.159 87.3641 251.975 87.2634 252.011 87.1901C252.574 85.5668 252.884 83.8673 252.931 82.1506C253.073 80.5101 252.946 78.8575 252.554 77.2578C252.126 75.7973 251.161 74.5509 249.852 73.7665C248.543 72.9822 246.986 72.7173 245.49 73.0247C245.475 73.0192 245.461 73.0098 245.451 72.9975C245.441 72.9852 245.434 72.9705 245.431 72.9547C245.428 72.939 245.43 72.9228 245.435 72.9077C245.441 72.8927 245.45 72.8793 245.462 72.8689Z" fill="#263238"/>
<path d="M232.706 69.2288C234.842 69.2002 236.972 69.4497 239.043 69.9709C241.034 70.381 242.941 71.1246 244.682 72.1699C244.765 72.2249 244.682 72.3624 244.608 72.3165C240.994 70.8831 237.148 70.1162 233.258 70.0534C229.679 69.8976 225.715 70.8505 223.811 74.1765C223.811 74.2315 223.691 74.1765 223.719 74.1765C225.319 70.7406 229.183 69.3204 232.706 69.2288Z" fill="#263238"/>
<path d="M237.652 95.9826C236.298 95.9948 234.994 95.4726 234.025 94.53C233.057 93.5874 232.502 92.3011 232.483 90.9523C232.472 89.947 232.76 88.9611 233.312 88.1191C233.863 87.2771 234.653 86.6168 235.581 86.2217C236.509 85.8266 237.534 85.7144 238.526 85.8992C239.518 86.084 240.433 86.5576 241.155 87.2601C241.877 87.9626 242.374 88.8625 242.582 89.8462C242.791 90.8298 242.702 91.8529 242.327 92.7864C241.953 93.7198 241.308 94.5216 240.476 95.0905C239.644 95.6594 238.661 95.9698 237.652 95.9826ZM233.173 90.9431C233.182 91.8151 233.45 92.6648 233.945 93.3846C234.439 94.1044 235.136 94.6621 235.949 94.9869C236.761 95.3118 237.652 95.3893 238.508 95.2096C239.365 95.0299 240.149 94.6011 240.761 93.9775C241.373 93.3538 241.785 92.5634 241.946 91.7062C242.107 90.849 242.009 89.9636 241.664 89.162C241.319 88.3603 240.744 87.6786 240.01 87.203C239.276 86.7274 238.417 86.4793 237.542 86.4901C237.172 86.492 236.804 86.5412 236.447 86.6367C235.499 86.8908 234.663 87.4519 234.07 88.2316C233.477 89.0112 233.161 89.9652 233.173 90.9431Z" fill="#455A64"/>
<path d="M226.973 97.497C224.904 97.7994 222.88 95.7836 222.475 93.0073C222.274 91.7573 222.47 90.4757 223.037 89.3423C223.25 88.8398 223.59 88.4006 224.023 88.0671C224.457 87.7337 224.969 87.5174 225.511 87.4391C226.053 87.3608 226.606 87.4231 227.117 87.6201C227.628 87.8171 228.079 88.142 228.427 88.5635C229.295 89.4913 229.849 90.6677 230.009 91.9261C230.386 94.5558 229.19 96.9381 227.305 97.4237L226.973 97.497ZM223.662 89.6447C223.168 90.6566 223.001 91.7961 223.184 92.9065C223.533 95.3163 225.207 97.0664 226.909 96.8281C228.611 96.5899 229.669 94.4184 229.356 92.0178C229.214 90.903 228.729 89.8594 227.967 89.0308C227.678 88.7049 227.316 88.4519 226.909 88.2926C226.503 88.1333 226.065 88.0723 225.631 88.1145L225.382 88.1603C225.006 88.2717 224.658 88.4617 224.361 88.7176C224.065 88.9736 223.826 89.2896 223.662 89.6447Z" fill="#455A64"/>
<path d="M232.739 91.5162L233.098 90.9389C232.242 90.4075 230.338 89.8028 229.299 91.2963L229.86 91.6811C230.789 90.3434 232.656 91.4704 232.739 91.5162Z" fill="#455A64"/>
<path d="M255.452 89.5507L256.004 89.1475C255.82 88.891 254.164 86.6278 252.61 86.6095C251.055 86.5912 242.225 88.7444 241.848 88.836L242.013 89.4957C244.57 88.8727 251.478 87.2692 252.591 87.2875C253.704 87.3059 255.001 88.9276 255.452 89.5507Z" fill="#455A64"/>
<path d="M247.346 90.9896C247.346 90.9896 249.608 85.1897 252.166 85.8769C254.723 86.5641 253.867 94.3798 251.457 96.0015C251.163 96.2331 250.825 96.4027 250.463 96.4998C250.101 96.5969 249.723 96.6196 249.353 96.5664C248.982 96.5133 248.625 96.3854 248.306 96.1906C247.986 95.9958 247.709 95.7382 247.493 95.4335L247.346 90.9896Z" fill="#F7A9A0"/>
<path d="M251.865 88.1172C251.865 88.1172 251.929 88.1172 251.865 88.1813C250.191 89.3816 249.629 91.3333 249.381 93.2757C249.446 93.0666 249.556 92.8741 249.703 92.7112C249.85 92.5483 250.031 92.4189 250.232 92.3319C250.434 92.2449 250.652 92.2023 250.872 92.2071C251.092 92.2119 251.308 92.2638 251.506 92.3595C251.52 92.3595 251.535 92.3653 251.545 92.3756C251.555 92.3859 251.561 92.3999 251.561 92.4144C251.561 92.429 251.555 92.443 251.545 92.4533C251.535 92.4636 251.52 92.4694 251.506 92.4694C251.153 92.4477 250.803 92.5345 250.502 92.7181C250.201 92.9017 249.964 93.1732 249.823 93.4956C249.594 94.0358 249.422 94.5975 249.307 95.1724C249.261 95.3556 248.94 95.3465 248.958 95.1724V95.1266C248.351 92.7168 249.418 88.9693 251.865 88.1172Z" fill="#263238"/>
<path d="M240.071 113.931C240.071 113.931 240.126 113.931 240.117 113.931C239.712 117.01 238.967 124.175 243.695 124.01C245.608 123.955 247.42 122.846 248.938 121.747C250.506 120.602 251.943 119.29 253.225 117.834C254.725 116.242 256.094 114.533 257.318 112.721C257.373 112.639 257.483 112.721 257.428 112.813C256.177 114.646 255.11 116.533 253.694 118.228C252.361 119.873 250.814 121.333 249.095 122.571C247.466 123.698 245.535 124.789 243.53 124.743C242.636 124.729 241.776 124.4 241.102 123.815C240.428 123.23 239.985 122.425 239.85 121.545C239.373 119.021 239.449 116.424 240.071 113.931Z" fill="#263238"/>
</svg>
