<svg xmlns="http://www.w3.org/2000/svg" width="39.233" height="47.472" viewBox="0 0 39.233 47.472">
  <defs>
    <style>
      .cls-1 {
        fill: #264a9f;
        stroke: rgba(0,0,0,0);
        stroke-miterlimit: 10;
      }
    </style>
  </defs>
  <g id="Group_1497" data-name="Group 1497" transform="translate(0.507 0.722)">
    <path id="Path_977" data-name="Path 977" class="cls-1" d="M1125.958,548.319c-8.467-1-12.538-2.059-18.785-8.594l-.158-.164-.156.164c-6.26,6.551-10.311,7.607-18.73,8.594l-.194.025.288,17.347c.224,10.7,9.363,15.759,18.7,20.027l.09.042.091-.042c9.37-4.287,18.535-9.364,18.7-20.027l.342-17.15,0-.2Zm-2.974,17.365c-.164,8.682-8.145,13.427-15.965,16.916-7.819-3.495-15.8-8.242-15.907-16.916l-.287-14.793c7.171-.969,12.034-3.143,16.191-7.235,4.207,4.094,9.091,6.267,16.254,7.235Z" transform="translate(-1087.934 -539.561)"/>
    <path id="Path_978" data-name="Path 978" class="cls-1" d="M1098.765,555.876l-.624-.625a1.448,1.448,0,0,0-2.047,2.047l6.1,6.1,9.338-9.34a1.448,1.448,0,0,0-2.047-2.047l-1.676,1.677L1102.2,559.3Z" transform="translate(-1084.47 -534.176)"/>
  </g>
</svg>
