<?xml version="1.0" encoding="iso-8859-1"?>
<!-- Generator: Adobe Illustrator 19.0.0, SVG Export Plug-In . SVG Version: 6.00 Build 0)  -->
<svg version="1.1" id="Layer_1" xmlns="http://www.w3.org/2000/svg" xmlns:xlink="http://www.w3.org/1999/xlink" x="0px" y="0px"
	 viewBox="0 0 512 512" style="enable-background:new 0 0 512 512;" xml:space="preserve">
<g>
	<path style="fill:#507C5C;" d="M407.459,512H112.941c-37.365,0-67.765-30.399-67.765-67.765V67.765
		C45.176,30.399,75.576,0,112.941,0h294.517c32.733,0,59.365,26.632,59.365,59.365V265.27c0,8.317-6.743,15.059-15.059,15.059
		s-15.059-6.742-15.059-15.059V59.365c0-16.126-13.121-29.247-29.247-29.247H112.941c-20.759,0-37.647,16.888-37.647,37.647v376.471
		c0,20.759,16.888,37.647,37.647,37.647h294.517c16.126,0,29.247-13.121,29.247-29.247V346.591c0-8.317,6.743-15.059,15.059-15.059
		s15.059,6.742,15.059,15.059v106.044C466.824,485.368,440.192,512,407.459,512z"/>
	<path style="fill:#507C5C;" d="M309.498,346.586H204.086c-8.315,0-15.059-6.742-15.059-15.059s6.743-15.059,15.059-15.059h105.412
		c8.315,0,15.059,6.742,15.059,15.059S317.815,346.586,309.498,346.586z"/>
	<path style="fill:#507C5C;" d="M294.438,428.675h-75.291c-8.315,0-15.059-6.742-15.059-15.059c0-8.317,6.743-15.059,15.059-15.059
		h75.291c8.315,0,15.059,6.742,15.059,15.059C309.496,421.933,302.755,428.675,294.438,428.675z"/>
	<path style="fill:#507C5C;" d="M308.518,280.605c-3.4,0-6.817-0.791-9.993-2.394c-7.493-3.786-12.146-11.351-12.146-19.745V115.757
		c0-8.317,6.743-15.059,15.059-15.059s15.059,6.742,15.059,15.059v126.88l17.527-12.917c7.847-5.787,18.397-5.789,26.251,0.002
		l17.524,12.916V19.536c0-8.317,6.743-15.059,15.059-15.059s15.059,6.742,15.059,15.059v238.931c0,8.394-4.655,15.959-12.146,19.745
		c-7.489,3.783-16.345,3.043-23.099-1.94l-25.522-18.81l-25.523,18.811C317.731,279.141,313.141,280.605,308.518,280.605z"/>
</g>
<path style="fill:#CFF09E;" d="M301.437,114.617H174.002c-8.674,0-15.705,7.031-15.705,15.705v71.117
	c0,8.674,7.031,15.705,15.705,15.705h127.435V114.617z"/>
<path style="fill:#507C5C;" d="M301.437,232.204H174.002c-16.964,0-30.764-13.801-30.764-30.764v-71.118
	c0-16.964,13.8-30.764,30.764-30.764h127.435c8.315,0,15.059,6.742,15.059,15.059v102.526
	C316.496,225.462,309.753,232.204,301.437,232.204z M174.002,129.676c-0.355,0-0.646,0.289-0.646,0.646v71.117
	c0,0.357,0.289,0.646,0.646,0.646h112.376v-72.409H174.002z"/>
<g>
</g>
<g>
</g>
<g>
</g>
<g>
</g>
<g>
</g>
<g>
</g>
<g>
</g>
<g>
</g>
<g>
</g>
<g>
</g>
<g>
</g>
<g>
</g>
<g>
</g>
<g>
</g>
<g>
</g>
</svg>
