<?xml version="1.0" encoding="iso-8859-1"?>
<!-- Generator: Adobe Illustrator 19.0.0, SVG Export Plug-In . SVG Version: 6.00 Build 0)  -->
<svg version="1.1" id="Layer_1" xmlns="http://www.w3.org/2000/svg" xmlns:xlink="http://www.w3.org/1999/xlink" x="0px" y="0px"
	 viewBox="0 0 512 512" style="enable-background:new 0 0 512 512;" xml:space="preserve">
<g>
	<path style="fill:#CFF09E;" d="M225.779,420.74h29.833v-32.132C255.612,405.602,242.459,419.513,225.779,420.74z"/>
	<path style="fill:#CFF09E;" d="M288.619,420.86c-17.801,0-32.23-14.43-32.23-32.23v32.23H288.619z"/>
	<path style="fill:#CFF09E;" d="M446.127,44.915v102.95l-32.862-18.954l-32.087,18.954V44.915h-62.822
		c-34.223,0-61.966,27.743-61.966,61.966v281.748c0-17.801,14.43-32.23,32.23-32.23h158.673V44.915H446.127z"/>
	<path style="fill:#CFF09E;" d="M263.464,467.203h-14.928c-25.594,0-46.343-20.749-46.343-46.343l0,0h107.615l0,0
		C309.808,446.454,289.06,467.203,263.464,467.203z"/>
</g>
<path style="fill:#507C5C;" d="M497.778,74.751c-7.854,0-14.222,6.369-14.222,14.222v317.605H287.441
	c-9.38-0.612-16.829-8.417-16.829-17.948c0-9.928,8.08-18.008,18.008-18.008h158.672c7.854,0,14.222-6.369,14.222-14.222V44.915
	c0-7.854-6.369-14.222-14.222-14.222h-1.165c-7.854,0-14.222,6.369-14.222,14.222v78.33l-11.534-6.653
	c-4.443-2.564-9.924-2.534-14.339,0.074l-10.631,6.281V44.915c0-7.854-6.369-14.222-14.222-14.222h-62.822
	c-25.735,0-48.513,12.837-62.313,32.431c-13.791-19.661-36.611-32.549-62.396-32.549H64.708c-7.854,0-14.222,6.369-14.222,14.222
	v311.582c0,7.853,6.369,14.222,14.222,14.222h158.673c9.929,0,18.007,8.078,18.007,18.007c0,9.377-7.316,17.262-16.654,17.948
	c-0.057,0.004-0.112,0.014-0.169,0.021H28.444V88.973c0-7.854-6.369-14.222-14.222-14.222S0,81.119,0,88.973V420.8
	c0,7.854,6.369,14.222,14.222,14.222h175.437c6.396,26.584,30.357,46.403,58.876,46.403h14.928c28.52,0,52.483-19.819,58.877-46.403
	h175.438c7.854,0,14.222-6.369,14.222-14.222V88.973C512,81.118,505.631,74.751,497.778,74.751z M270.61,106.881
	c0-26.327,21.419-47.744,47.744-47.744h48.6v88.73c0,5.107,2.738,9.82,7.172,12.353c4.435,2.529,9.887,2.489,14.283-0.107
	l24.939-14.731l19.719,11.374v185.422H288.62c-6.382,0-12.469,1.294-18.008,3.632V106.881H270.61z M223.381,342.157H78.93V59.019
	h114.715c26.325,0,47.743,21.419,47.743,47.743v239.026C235.849,343.45,229.764,342.157,223.381,342.157z M263.464,452.981h-14.928
	c-12.608,0-23.543-7.302-28.797-17.899h36.651h32.23h3.644C287.007,445.679,276.072,452.981,263.464,452.981z"/>
<g>
</g>
<g>
</g>
<g>
</g>
<g>
</g>
<g>
</g>
<g>
</g>
<g>
</g>
<g>
</g>
<g>
</g>
<g>
</g>
<g>
</g>
<g>
</g>
<g>
</g>
<g>
</g>
<g>
</g>
</svg>
