<?xml version="1.0" encoding="iso-8859-1"?>
<!-- Generator: Adobe Illustrator 19.0.0, SVG Export Plug-In . SVG Version: 6.00 Build 0)  -->
<svg version="1.1" id="Layer_1" xmlns="http://www.w3.org/2000/svg" xmlns:xlink="http://www.w3.org/1999/xlink" x="0px" y="0px"
	 viewBox="0 0 512 512" style="enable-background:new 0 0 512 512;" xml:space="preserve">
<polygon style="fill:#663300;" points="271.675,0 256.001,0 245.551,28.72 256.001,57.442 271.675,57.442 "/>
<rect x="240.327" style="fill:#983300;" width="15.674" height="57.442"/>
<path style="fill:#FF0F4D;" d="M326.651,113.476L326.651,113.476c-7.507-18.124-1.929-38.403,12.383-50.337
	c-12.175-11.057-27.747-17.696-44.724-17.696c-13.89,0-26.809,4.504-37.725,12.177c-0.193-0.136-0.391-0.262-0.585-0.396
	l-20.899,86.099l20.899,94.739c0.198-0.132,0.386-0.252,0.585-0.388c10.98,7.438,17.615,9.257,28.404,9.257
	c46.133,0,72.976-62.264,78.716-106.584C347.813,139.109,333.17,129.212,326.651,113.476z"/>
<path style="fill:#FF4F67;" d="M218.861,45.444c-38.971,0-70.565,34.97-70.565,78.11c0,43.141,27.517,123.379,79.886,123.379
	c10.593,0,17.19-1.767,27.819-8.87V57.223C245.209,49.797,232.506,45.444,218.861,45.444z"/>
<polygon style="fill:#D5681E;" points="32.033,291.006 32.033,338.028 52.933,338.028 263.838,358.927 483.263,338.028 
	483.263,291.006 256.001,270.107 "/>
<rect x="32.033" y="243.984" style="fill:#FF9933;" width="451.228" height="47.023"/>
<g>
	<rect x="75.655" y="275.333" style="fill:#FDE09C;" width="34.828" height="31.348"/>
	<rect x="127.902" y="275.333" style="fill:#FDE09C;" width="34.828" height="31.348"/>
	<rect x="180.149" y="275.333" style="fill:#FDE09C;" width="34.828" height="31.348"/>
	<rect x="404.812" y="275.333" style="fill:#FDE09C;" width="34.828" height="31.348"/>
</g>
<polygon style="fill:#FF8E00;" points="28.737,462.723 7.838,512 472.814,512 472.814,478.397 462.365,462.723 252.645,441.824 "/>
<polygon style="fill:#FFBA00;" points="472.814,413.446 257.648,392.547 52.933,413.446 7.838,413.446 28.737,462.723 
	462.365,462.723 472.814,447.049 "/>
<rect x="32.477" y="447.048" style="fill:#FDE09C;" width="440.34" height="31.348"/>
<path style="fill:#D5681E;" d="M7.838,512c27.215,0,49.276-22.062,49.276-49.276c0-27.215-22.062-49.276-49.276-49.276V512z"/>
<polygon style="fill:#003DA8;" points="52.932,375.737 52.932,413.446 383.995,413.446 399.669,402.997 415.343,413.446 
	436.242,413.446 451.916,402.997 467.59,413.446 504.162,413.446 504.162,375.737 280.731,354.838 "/>
<polygon style="fill:#2F91ED;" points="504.162,338.028 467.589,338.028 451.916,348.478 436.242,338.028 415.343,338.028 
	399.668,348.478 383.995,338.028 52.932,338.028 52.932,375.737 504.162,375.737 "/>
<g>
	<rect x="436.244" y="338.029" style="fill:#B7DBFB;" width="31.348" height="75.414"/>
	<rect x="383.997" y="338.029" style="fill:#B7DBFB;" width="31.348" height="75.414"/>
</g>
<g>
</g>
<g>
</g>
<g>
</g>
<g>
</g>
<g>
</g>
<g>
</g>
<g>
</g>
<g>
</g>
<g>
</g>
<g>
</g>
<g>
</g>
<g>
</g>
<g>
</g>
<g>
</g>
<g>
</g>
</svg>
