<?xml version="1.0" encoding="iso-8859-1"?>
<!-- Generator: Adobe Illustrator 19.0.0, SVG Export Plug-In . SVG Version: 6.00 Build 0)  -->
<svg version="1.1" id="Layer_1" xmlns="http://www.w3.org/2000/svg" xmlns:xlink="http://www.w3.org/1999/xlink" x="0px" y="0px"
	 viewBox="0 0 512 512" style="enable-background:new 0 0 512 512;" xml:space="preserve">
<path style="fill:#F4B2B0;" d="M203.791,38.819H13.853V434.59h189.94c24.123,0,44.415,16.363,50.407,38.592h1.806V91.033
	C256.006,62.197,232.628,38.819,203.791,38.819z"/>
<g>
	<path style="fill:#B3404A;" d="M256.006,487.034h-1.808c-6.263,0-11.746-4.2-13.375-10.246
		c-4.499-16.69-19.728-28.346-37.033-28.346H13.853C6.202,448.443,0,442.24,0,434.59V38.819c0-7.65,6.202-13.853,13.853-13.853
		h189.938c36.43,0,66.067,29.638,66.067,66.067V473.18C269.859,480.832,263.657,487.034,256.006,487.034z M27.706,420.737h176.085
		c14.116,0,27.433,4.506,38.361,12.307V91.034c0-21.153-17.209-38.361-38.361-38.361H27.706V420.737z"/>
	<path style="fill:#B3404A;" d="M498.147,306.43c-7.651,0-13.853-6.203-13.853-13.853V38.819c0-7.65,6.202-13.853,13.853-13.853
		c7.651,0,13.853,6.203,13.853,13.853v253.758C512,300.228,505.798,306.43,498.147,306.43z"/>
	<path style="fill:#B3404A;" d="M257.8,487.034h-1.806c-7.651,0-13.853-6.203-13.853-13.853V91.034
		c0-36.43,29.638-66.067,66.067-66.067h78.088c7.651,0,13.853,6.203,13.853,13.853s-6.202,13.853-13.853,13.853h-78.088
		c-21.153,0-38.361,17.209-38.361,38.361v342.01c10.93-7.801,24.245-12.307,38.361-12.307h176.085v-52.488
		c0-7.65,6.202-13.853,13.853-13.853s13.853,6.203,13.853,13.853v66.341c0,7.65-6.202,13.853-13.853,13.853H308.208
		c-17.305,0-32.533,11.656-37.033,28.346C269.546,482.834,264.063,487.034,257.8,487.034z"/>
	<path style="fill:#B3404A;" d="M441.631,193.646c-3.298,0-6.559-1.177-9.136-3.437l-32.345-28.364l-32.345,28.364
		c-4.089,3.585-9.899,4.447-14.85,2.203c-4.954-2.244-8.136-7.18-8.136-12.617V38.819c0-7.65,6.202-13.853,13.853-13.853
		c7.651,0,13.853,6.203,13.853,13.853V149.22l18.492-16.216c5.225-4.584,13.041-4.584,18.268,0l18.492,16.216V38.819
		c0-7.65,6.202-13.853,13.853-13.853c7.651,0,13.853,6.203,13.853,13.853v140.974c0,5.439-3.182,10.373-8.136,12.617
		C445.514,193.241,443.565,193.646,441.631,193.646z"/>
</g>
<g>
</g>
<g>
</g>
<g>
</g>
<g>
</g>
<g>
</g>
<g>
</g>
<g>
</g>
<g>
</g>
<g>
</g>
<g>
</g>
<g>
</g>
<g>
</g>
<g>
</g>
<g>
</g>
<g>
</g>
</svg>
