<svg xmlns="http://www.w3.org/2000/svg" xmlns:xlink="http://www.w3.org/1999/xlink" width="120" height="100" viewBox="0 0 120 100">
    <defs>
        <path id="a" d="M0 0h120v100H0z"/>
        <path id="c" d="M50 0c27.614 0 50 22.386 50 50s-22.386 50-50 50S0 77.614 0 50 22.386 0 50 0"/>
        <filter id="e" width="133.8%" height="126.3%" x="-16.9%" y="-13.1%" filterUnits="objectBoundingBox">
            <feOffset dy="2" in="SourceAlpha" result="shadowOffsetOuter1"/>
            <feGaussianBlur in="shadowOffsetOuter1" result="shadowBlurOuter1" stdDeviation="2"/>
            <feColorMatrix in="shadowBlurOuter1" result="shadowMatrixOuter1" values="0 0 0 0 0.9 0 0 0 0 0.42 0 0 0 0 0 0 0 0 0.5 0"/>
            <feMerge>
                <feMergeNode in="shadowMatrixOuter1"/>
                <feMergeNode in="SourceGraphic"/>
            </feMerge>
        </filter>
        <linearGradient id="f" x1="0%" y1="50%" y2="50%">
            <stop offset="0%" stop-color="#FF9A00"/>
            <stop offset="100%" stop-color="#F70"/>
        </linearGradient>
    </defs>
    <g fill="none" fill-rule="evenodd">
        <mask id="b" fill="#fff">
            <use xlink:href="#a"/>
        </mask>
        <g mask="url(#b)">
            <g transform="translate(10)">
                <mask id="d" fill="#fff">
                    <use xlink:href="#c"/>
                </mask>
                <use fill="#FFF6EF" xlink:href="#c"/>
                <path fill="#6E2585" d="M7.574 56.858a1.687 1.687 0 1 1-3.373.001 1.687 1.687 0 0 1 3.373 0" mask="url(#d)"/>
                <path fill="#7AB800" d="M60.03 7.03a.843.843 0 1 1 0 1.686.843.843 0 0 1 0-1.687M94.977 55.48a.843.843 0 1 1-.001 1.686.843.843 0 0 1 0-1.686" mask="url(#d)"/>
                <g fill="#FFDEC7" mask="url(#d)">
                    <path d="M76.017 60.08c-2.267 3.845-7.863 3.845-10.13 0v-6.628h10.13v6.627z"/>
                    <path d="M89.545 63.855c-.31-1.304-1.34-2.333-2.713-2.78l-9.476-2.85-2.335 2.163-8.138.034-2.609-2.197-9.168 2.85c-1.374.447-2.37 1.51-2.713 2.78l-1.408 5.667c4.705 5.802 11.002 20.811 18.566 18 11.587-4.308 16.8-11.915 20.712-18.662l-.718-5.005zM70.831 28.867c7.017 0 12.705 5.688 12.705 12.705 0 7.016-5.688 12.704-12.705 12.704-7.016 0-12.704-5.688-12.704-12.704 0-7.017 5.688-12.705 12.704-12.705"/>
                    <path d="M75.364 36.696c-3.605 7.52-12.259 6.593-14.868 6.111v3.95c0 5.7 4.636 10.335 10.335 10.335 5.7 0 10.336-4.636 10.336-10.335v-4.705c-4.774-.377-5.803-5.356-5.803-5.356M65.921 56.233l4.91 4.224-3.948 5.802-2.609-8.035zM75.879 56.233l-4.91 4.224 3.948 5.802 2.61-8.035z"/>
                </g>
                <g fill="#FFDEC7" mask="url(#d)">
                    <path d="M33.671 60.368c-2.266 3.846-7.863 3.846-10.129 0v-6.626h10.129v6.626z"/>
                    <path d="M47.2 64.145c-.31-1.304-1.34-2.334-2.713-2.78l-9.477-2.85-2.335 2.162-8.138.034-2.609-2.196-9.168 2.85c-1.374.445-2.369 1.51-2.713 2.78l-.809 6.029c5.94 7.054 8.188 10.06 19.307 10.891 12.194.912 15.804-4.599 19.716-11.346L47.2 64.145zM28.486 29.157c7.017 0 12.705 5.687 12.705 12.704s-5.688 12.704-12.705 12.704c-7.016 0-12.704-5.687-12.704-12.704s5.688-12.704 12.704-12.704"/>
                    <path d="M33.019 36.985c-3.605 7.52-12.258 6.593-14.868 6.112v3.95c0 5.7 4.636 10.334 10.335 10.334 5.7 0 10.336-4.635 10.336-10.335v-4.705c-4.773-.377-5.803-5.356-5.803-5.356M23.576 56.523l4.91 4.223-3.949 5.802-2.609-8.034zM33.534 56.523l-4.91 4.223 3.949 5.802 2.609-8.034z"/>
                </g>
                <g filter="url(#e)" mask="url(#d)">
                    <path fill="#FFF" stroke="#FC3A52" stroke-dasharray="4" stroke-linecap="round" stroke-linejoin="round" stroke-width="2" d="M49.8 109.1c-14.954 0-28.55-6.254-37.303-17.159l-.988-1.23 2.934-15.394c.913-3.413 1.183-8.005 4.543-9.109l15.044-5.923.37-.452c-3.473-2.71-3.77-3.349-5.047-7.623-3.296-4.44-5.034-9.697-5.034-15.247 0-14.057 11.324-25.493 25.243-25.493 13.92 0 25.244 11.436 25.244 25.493 0 5.55-1.738 10.806-5.034 15.248-1.256 4.189-2.096 5.37-5.498 8.074l.561.685c8.293 2.578 13.622 4.255 15.986 5.03 3.547 1.162 3.556 5.98 4.342 9.337l3.044 15.786-1.046 1.243c-6.83 8.113-22.244 16.735-37.36 16.735z"/>
                    <path fill="#FCD4C5" d="M58.118 66.88c-3.733 6.336-12.952 6.336-16.685 0V55.966h16.685V66.88z"/>
                    <path fill="url(#f)" d="M39.977 3.89l-13.403.056L22.275.327 7.174 5.022c-2.263.735-3.902 2.487-4.468 4.581L.5 24.369C8.249 33.927 20.013 37.6 33.304 37.6S60.326 32.716 66.462 25.5L63.901 9.603c-.508-2.15-2.205-3.846-4.467-4.581L43.823.327 39.977 3.89z" transform="translate(16.5 63.5)"/>
                    <path fill="#393D47" d="M49.578 15.47c11.557 0 20.926 9.369 20.926 20.927 0 11.557-9.37 20.927-20.926 20.927-11.558 0-20.927-9.37-20.927-20.927 0-11.558 9.369-20.927 20.927-20.927"/>
                    <path fill="#FFDCC5" d="M57.043 28.365c-5.938 12.386-20.191 10.86-24.49 10.067v6.504c0 9.39 7.636 17.025 17.025 17.025 9.388 0 17.024-7.636 17.024-17.025v-7.748c-7.862-.623-9.559-8.823-9.559-8.823"/>
                    <path fill="#393D47" d="M44.2 44.671a1.5 1.5 0 1 1-3 .001 1.5 1.5 0 0 1 3 0M58.2 44.671a1.5 1.5 0 1 1-3 .001 1.5 1.5 0 0 1 3 0"/>
                    <path fill="#FCFCFD" d="M42.113 61.083l7.016 6.034c.255.22.305.597.115.876l-5.041 7.408a.984.984 0 0 1-1.75-.25l-3.541-10.902a.809.809 0 0 1 .146-.764l1.908-2.305a.805.805 0 0 1 1.147-.097M57.269 61.083l-7.016 6.034a.665.665 0 0 0-.116.876l5.04 7.408a.985.985 0 0 0 1.752-.25l3.54-10.902a.809.809 0 0 0-.145-.764l-1.908-2.305a.805.805 0 0 0-1.147-.097"/>
                    <path fill="#FFF" d="M49.5 57.5a5 5 0 0 0 5-5h-10a5 5 0 0 0 5 5z"/>
                </g>
            </g>
            <path fill="#FC3A52" d="M97.884 17.465l.548-2.027c.155-.584.983-.584 1.14 0l.546 2.027a.59.59 0 0 0 .417.417l2.029.548c.584.157.584.983 0 1.14l-2.03.548a.588.588 0 0 0-.416.415l-.547 2.03c-.156.583-.984.583-1.139 0l-.548-2.03a.586.586 0 0 0-.415-.415l-2.031-.548c-.584-.157-.584-.983 0-1.14l2.03-.548a.588.588 0 0 0 .416-.417"/>
        </g>
    </g>
</svg>
