<?xml version="1.0" encoding="iso-8859-1"?>
<!-- Generator: Adobe Illustrator 19.0.0, SVG Export Plug-In . SVG Version: 6.00 Build 0)  -->
<svg version="1.1" id="Layer_1" xmlns="http://www.w3.org/2000/svg" xmlns:xlink="http://www.w3.org/1999/xlink" x="0px" y="0px"
	 viewBox="0 0 512 512" style="enable-background:new 0 0 512 512;" xml:space="preserve">
<path style="fill:#2D2D2D;" d="M0,355.2v-324c0.104-5.704,4.696-10.296,10.4-10.4h491.2c5.704,0.104,10.296,4.696,10.4,10.4v324H0z"
	/>
<g>
	<path style="fill:#BCBCBC;" d="M512,355.2v41.6c-0.104,5.704-4.696,10.296-10.4,10.4H10.4c-5.704-0.104-10.296-4.696-10.4-10.4
		v-41.6H512z"/>
	<rect x="146.4" y="480.8" style="fill:#BCBCBC;" width="219.2" height="10.4"/>
</g>
<polygon style="fill:#2D2D2D;" points="328.8,480.8 183.2,480.8 193.6,407.2 318.4,407.2 "/>
<rect x="20.8" y="41.6" style="fill:#FFFFFF;" width="470.4" height="292.8"/>
<polygon points="318.4,407.2 193.6,407.2 187.792,448.28 320.272,420.424 "/>
<path style="fill:#2D2D2D;" d="M147.488,127.248h-8.352v-18.72c-0.016-2.296-1.88-4.152-4.176-4.144H95.624
	c-2.296-0.008-4.16,1.848-4.176,4.144v18.72h-8.352v-18.72c0.032-6.888,5.632-12.456,12.528-12.44h39.336
	c6.896-0.016,12.496,5.552,12.528,12.44V127.248z"/>
<path style="fill:#E21B1B;" d="M67.2,122.4l-18.736,90H182.12l-18.768-90H67.2z"/>
<path style="fill:#FFFFFF;" d="M95.104,154.184c-4-0.024-7.232-3.288-7.208-7.288s3.288-7.232,7.288-7.208
	c3.984,0.024,7.208,3.264,7.208,7.248C102.376,150.952,99.12,154.192,95.104,154.184z M135.48,154.184
	c-4-0.024-7.232-3.288-7.208-7.288s3.288-7.232,7.288-7.208c3.984,0.024,7.208,3.264,7.208,7.248
	C142.752,150.952,139.496,154.192,135.48,154.184z"/>
<g>
	<rect x="366.984" y="106.16" style="fill:#666666;" width="96.56" height="11.704"/>
	<rect x="382.792" y="91.88" style="fill:#666666;" width="64.944" height="14.288"/>
</g>
<polygon style="fill:#E2E2E2;" points="455.112,117.8 374.968,117.8 385.472,216.92 445.056,216.92 "/>
<polygon style="fill:#E21B1B;" points="377.016,137.048 453.064,137.048 446.664,197.304 383.424,197.304 "/>
<g>
	<rect x="401.92" y="157.496" style="fill:#FFFFFF;" width="26.704" height="8"/>
	<rect x="394.08" y="167.4" style="fill:#FFFFFF;" width="42.328" height="8"/>
</g>
<path style="fill:#E21B1B;" d="M271.632,89.96c-35.584,0-64.432,28.848-64.432,64.432s28.848,64.432,64.432,64.432
	c35.568,0,64.408-28.816,64.432-64.384h-64.432V89.96z"/>
<g>
	<path style="fill:#C9C9C9;" d="M317.216,108.856l-45.6,45.6h64.432V154.4C336.08,137.32,329.296,120.928,317.216,108.856z"/>
	<path style="fill:#C9C9C9;" d="M271.632,89.96v64.44l45.6-45.6C305.144,96.704,288.736,89.92,271.632,89.96z"/>
</g>
<path style="fill:#AAAAAA;" d="M317.216,199.88l-45.6-45.6h64.432v0.048C336.08,171.416,329.304,187.808,317.216,199.88z"/>
<path style="fill:#939393;" d="M271.632,218.768v-64.48l45.6,45.6C305.152,212,288.736,218.8,271.632,218.768z"/>
<g>
	<rect x="145.808" y="266.56" style="fill:#999999;" width="232" height="8"/>
	<rect x="103.696" y="295.584" style="fill:#999999;" width="316.232" height="8"/>
</g>
<g>
</g>
<g>
</g>
<g>
</g>
<g>
</g>
<g>
</g>
<g>
</g>
<g>
</g>
<g>
</g>
<g>
</g>
<g>
</g>
<g>
</g>
<g>
</g>
<g>
</g>
<g>
</g>
<g>
</g>
</svg>
