<svg width="194" height="184" viewBox="0 0 194 184" fill="none" xmlns="http://www.w3.org/2000/svg">
<path opacity="0.703609" d="M110.974 140.902H54.2539L64.2892 123.496H102.51L110.974 140.902Z" fill="#D0D2D5"/>
<rect opacity="0.703609" x="1.64258" y="9.11719" width="167.695" height="114.38" rx="10.3228" fill="#D0D2D5"/>
<path d="M169.338 19.4132V101.947H1.64258V19.4132C1.64258 13.7269 6.20936 9.11719 11.8428 9.11719H159.138C164.771 9.11719 169.338 13.7269 169.338 19.4132Z" fill="#473F47"/>
<path d="M166.872 21.5019V99.4583H4.10938V21.5019C4.14227 16.0038 8.57691 11.5724 14.017 11.6017H156.965C162.405 11.5724 166.839 16.0038 166.872 21.5019Z" fill="white"/>
<rect x="10.6855" y="17.4062" width="51.7882" height="36.4688" rx="7.29892" fill="#EF3D56"/>
<rect opacity="0.214626" x="10.6855" y="59.6758" width="29.5933" height="20.7209" rx="7.29892" fill="#9CD8DF"/>
<rect opacity="0.214626" x="45.2129" y="59.6758" width="29.5933" height="20.7209" rx="2.91957" fill="#9CD8DF"/>
<path d="M140.575 17.2373C140.479 15.8402 140.575 14.4057 140.427 13.0161C139.963 8.96272 137.801 5.30124 134.483 2.95236C131.162 0.639087 127.112 -0.368433 123.102 0.120768C116.601 0.867889 111.141 5.35062 108.013 11.0063C104.454 17.439 107.783 22.7062 110.658 28.5413C112.812 32.9044 111.542 38.351 108.748 42.3331C106.557 45.4486 103.318 48.4371 103.593 52.2474C103.763 54.5635 105.234 56.5434 106.653 58.3738C107.604 59.5991 108.667 60.8991 110.167 61.2502C110.924 61.3884 111.699 61.3884 112.456 61.2502C114.151 61.0098 115.83 60.668 117.485 60.2267C119.09 59.7933 120.739 59.2554 122.389 59.4795C125.182 59.8382 127.247 62.2065 128.859 64.5151C130.472 66.8237 132.061 69.3938 134.625 70.5444C136.571 71.426 138.8 71.3438 140.925 71.1645C147.128 70.649 153.703 69.1996 157.967 64.6422C158.909 63.5951 159.776 62.4815 160.56 61.31C161.04 60.695 161.428 60.0129 161.712 59.2853C162.455 57.1112 161.266 54.8026 159.929 52.8974C158.591 50.9922 156.957 49.1618 156.764 46.8756C156.585 45.0825 157.299 43.3417 157.507 41.5636C157.96 38.1716 156.645 34.7274 154.535 32.0303C152.35 29.4069 149.731 27.1827 146.794 25.4556C144.565 24.0511 142.188 22.5942 141.147 20.2258C140.782 19.2716 140.589 18.2597 140.575 17.2373Z" fill="#2F2E41"/>
<path d="M136.919 24.0074C137.418 25.519 137.675 27.1438 138.544 28.5042C139.602 30.2273 141.401 31.3308 143.185 32.283C144.147 32.7119 145.019 33.3197 145.754 34.0742C146.266 34.7296 146.625 35.4914 146.805 36.3036C147.064 37.3717 147.128 38.4777 146.994 39.5685C146.779 40.4765 146.72 41.4144 146.82 42.3422C147.084 43.4985 148.029 44.3449 148.853 45.1989C150.494 46.7456 151.602 48.7723 152.02 50.988C152.322 53.21 151.423 55.6813 149.458 56.7696C148.745 57.1357 147.98 57.3906 147.19 57.5254C145.921 57.7758 144.635 57.9324 143.343 57.9939C142.423 58.063 141.497 57.9865 140.6 57.7672C139.506 57.3763 138.484 56.8068 137.577 56.0819L125.545 47.5267C124.146 46.6665 122.935 45.5329 121.985 44.1938C121.326 42.9808 120.888 41.6603 120.692 40.2941C120.035 36.9763 119.529 33.4242 120.813 30.2954C121.811 27.8467 123.791 25.9497 125.711 24.1284L130.586 19.5182C131.999 18.1805 133.11 17.5911 134.365 19.2311C135.471 20.6729 136.334 22.2864 136.919 24.0074Z" fill="url(#paint0_linear_509_55624)"/>
<path d="M145.212 67.3037C149.157 71.79 150.798 77.3127 153.788 82.4345C154.14 83.1668 154.678 83.7908 155.347 84.2426C156.443 84.8478 157.808 84.4241 158.912 83.834C167.793 79.0225 168.606 65.2611 177.317 60.1393C179.338 58.9591 181.634 58.3388 183.641 57.1132C184.386 56.6593 185.192 55.8498 184.893 55.0176C184.617 54.5003 184.133 54.1303 183.566 54.0038C181.273 53.2004 178.839 52.8937 176.422 53.1036C175.34 53.2019 173.834 53.1036 173.715 51.9914C173.745 51.6719 173.745 51.3502 173.715 51.0306C173.476 50.2287 172.156 50.5238 171.828 51.2954C171.5 52.0671 171.746 52.9447 171.716 53.7844C171.567 55.0986 171.067 56.3465 170.269 57.3931C168.389 60.3335 166.332 63.1532 164.109 65.8361C157.815 73.4014 156.227 61.3347 151.253 58.8154C150.78 58.6164 150.273 58.5111 149.761 58.5052C145.331 58.1976 140.897 58.1068 136.457 58.2329C138.031 59.5114 143.795 65.6999 145.212 67.3037Z" fill="#FFB8B8"/>
<path d="M133.077 39.7812C133.077 39.7812 146.038 45.5864 146.803 47.1066C147.568 48.6269 146.803 91.998 146.803 91.998H101.109L103.735 46.2944L117.101 40.8543L133.077 39.7812Z" fill="#2F2E41"/>
<path d="M146.322 47.2422L157.009 60.9252C154.858 67.315 146.322 75.4227 146.322 75.4227V47.2422Z" fill="#2F2E41"/>
<path d="M132.013 33.4353C131.58 35.8296 132.248 37.652 132.343 39.848C132.475 43.1039 129.158 48.1897 127.837 51.1635C127.412 52.1243 126.905 53.1689 125.973 53.6035C125.314 53.853 124.606 53.929 123.911 53.8246C122.877 53.8522 121.852 53.6083 120.932 53.1155C119.728 52.353 119.207 50.828 118.789 49.4097C118.106 47.1222 116.375 43.5004 116.793 41.1442C116.925 40.3817 117.585 39.6192 117.769 38.7957C117.943 37.7307 117.999 36.6486 117.938 35.5703C117.886 29.8363 132.013 33.4353 132.013 33.4353Z" fill="#FFB8B8"/>
<path d="M132.348 33.9805C132.348 33.9805 130.573 43.6351 124.92 43.0741C121.753 42.8793 119.089 40.5938 118.373 37.457L132.348 33.9805Z" fill="#FFB8B8"/>
<path d="M132.86 31.873C132.514 33.4419 131.913 34.9406 131.083 36.3072C128.748 39.7961 123.445 40.8691 119.934 38.5581C118.044 37.1703 116.581 35.2596 115.719 33.051C113.665 28.4256 112.979 23.2885 113.743 18.2701C113.945 16.3109 114.677 14.4481 115.858 12.8904C117.937 10.437 121.484 9.7992 124.671 9.97177C127.558 10.1293 130.547 10.8646 132.713 12.7479C135.095 14.8971 136.13 18.2075 135.409 21.3688C134.594 24.8652 133.793 28.3766 132.86 31.873Z" fill="#FFB8B8"/>
<path d="M64.9347 45.5462C64.4542 45.0795 63.8588 44.7495 63.2095 44.59C62.5532 44.5062 61.893 44.4564 61.2315 44.4406C59.8707 44.2837 58.4429 43.5592 57.216 44.1717C56.3746 44.6627 55.8692 45.5777 55.8997 46.5546C55.9369 47.5131 56.2103 48.4474 56.6954 49.2736C58.7478 53.1953 61.7669 54.5025 65.314 56.6016C67.1805 57.7071 68.4818 60.3365 69.7757 62.1666L74.4679 68.6953C76.3865 71.362 78.3347 74.0661 80.9002 76.1203C81.3172 76.4842 81.7957 76.7701 82.3131 76.9644C83.2551 77.1913 84.2458 77.0912 85.124 76.6806C88.8421 75.2389 92.1512 72.5049 95.3636 70.1444C96.8509 69.0389 98.3902 67.9035 99.8848 66.7905C100.532 66.3049 101.736 65.6849 102.153 64.9529C102.382 64.4863 102.516 63.9783 102.547 63.4589C103.112 59.0517 102.331 54.5623 102.443 50.1177C97.5499 55.7351 91.8984 61.6736 85.3396 65.2965C85.1445 65.428 84.9193 65.5077 84.6852 65.5281C84.4475 65.5084 84.218 65.4315 84.016 65.304C78.5787 62.3936 73.791 58.3976 69.9467 53.5613C68.5269 51.5726 67.2828 49.4631 66.2286 47.2568C65.8926 46.6198 65.4556 46.042 64.9347 45.5462Z" fill="#FFB8B8"/>
<path d="M135.746 22.5821C136.388 22.2357 137.177 22.3391 137.711 22.8398C137.862 23.0402 137.968 23.2723 138.019 23.5192C138.26 24.9178 137.971 26.3572 137.21 27.549C137.036 27.894 136.798 28.2017 136.509 28.4549C135.92 28.8312 135.231 29.0165 134.536 28.9859C134.381 29.0175 134.221 29.0175 134.066 28.9859C133.941 28.9278 133.831 28.8425 133.742 28.736C133.294 28.1665 133.096 27.4351 133.195 26.7133C133.341 25.1046 134.251 23.2459 135.746 22.5821Z" fill="#FFB8B8"/>
<path d="M112.727 28.7998C113.367 29.1537 114.158 29.053 114.691 28.5496C114.843 28.3491 114.948 28.1166 115 27.8692C115.245 26.4687 114.955 25.026 114.191 23.834C114.015 23.4874 113.777 23.1771 113.49 22.9191C112.902 22.5404 112.213 22.3547 111.518 22.3873C111.36 22.3672 111.199 22.3833 111.048 22.4342C110.922 22.4897 110.811 22.5756 110.724 22.6845C110.276 23.2548 110.078 23.9872 110.177 24.7099C110.324 26.2817 111.24 28.143 112.727 28.7998Z" fill="#FFB8B8"/>
<path d="M104.461 46.2969L94.4375 59.1068C96.6076 65.568 102.993 73.0236 102.993 73.0236L104.461 46.2969Z" fill="#2F2E41"/>
<path d="M136.292 25.9829C136.104 26.4295 135.797 26.8232 135.403 27.1268C135.046 27.4039 134.54 27.4297 134.154 27.1903C134.084 27.1463 134.032 27.0818 134.005 27.0067C133.977 26.8846 133.996 26.7572 134.057 26.6466L134.147 26.4207C134.168 26.3549 134.201 26.2929 134.244 26.2371C134.408 26.0323 134.745 26.0676 134.991 25.9405C135.238 25.8134 135.335 25.4886 135.47 25.2344C135.565 25.0195 135.784 24.8764 136.031 24.8672C136.265 24.9136 136.438 25.1007 136.457 25.3262C136.469 25.5554 136.412 25.7832 136.292 25.9829Z" fill="#D6A4A6"/>
<path d="M111.135 25.9814C111.322 26.4284 111.628 26.822 112.025 27.1239C112.383 27.4019 112.891 27.4304 113.281 27.1944C113.351 27.1476 113.404 27.0809 113.431 27.004C113.454 26.8842 113.436 26.7605 113.378 26.6514L113.289 26.4257C113.269 26.3595 113.236 26.2973 113.192 26.2424C113.027 26.0379 112.69 26.0661 112.444 25.9391C112.197 25.8122 112.1 25.4878 111.965 25.2339C111.866 25.0216 111.649 24.8797 111.404 24.8672C111.168 24.9061 110.992 25.093 110.978 25.3185C110.96 25.5492 111.015 25.7797 111.135 25.9814Z" fill="#D6A4A6"/>
<path d="M122.19 12.5198C122.571 14.8141 122.951 17.3684 124.702 18.9744C125.695 19.8112 126.856 20.4217 128.106 20.7639C130.967 21.7079 133.943 22.2509 136.952 22.3775C137.843 18.3737 136.888 14.1797 134.352 10.9633C131.817 7.74697 127.972 5.85171 123.888 5.80525C118.642 5.65994 121.634 9.08605 122.19 12.5198Z" fill="#2F2E41"/>
<rect x="4.10938" y="89.5117" width="162.763" height="9.11721" fill="white"/>
<path d="M190.135 165.019C187.967 167.22 187.123 170.426 187.921 173.429C188.718 176.432 191.035 178.775 194 179.576V179.855H132.142C129.016 179.948 126.088 178.311 124.497 175.581C122.907 172.851 122.907 169.461 124.497 166.731C126.088 164.001 129.016 162.364 132.142 162.457H194V162.743C192.535 163.141 191.202 163.927 190.135 165.019Z" fill="#EDEDED"/>
<path d="M60.9045 50.238L48.5 19.8906L62.4746 50.5576L60.9045 50.238Z" fill="white"/>
<path d="M137.181 124.321C136.154 124.803 135.214 125.466 134.404 126.282C133.586 127.105 133.139 128.25 133.172 129.435C133.281 130.856 134.258 132.026 135.286 132.953C136.46 134.032 137.889 135.157 137.983 136.752C138.822 136.099 139.587 135.339 140.455 134.723C141.971 133.644 143.757 133.067 145.427 132.269C147.097 131.471 148.752 130.347 149.546 128.622C149.975 127.531 150.222 126.372 150.275 125.195C150.446 123.937 150.478 122.662 150.37 121.396C150.256 120.122 149.72 118.929 148.854 118.022C147.536 116.969 145.983 116.284 144.341 116.031C142.454 116.132 140.796 117.37 140.098 119.2C139.755 120.15 139.915 121.229 139.58 122.178C139.157 123.288 138.129 123.82 137.181 124.321Z" fill="#2F2E41"/>
<path d="M98.5593 181.051C98.2288 181.044 97.8996 181.098 97.5856 181.21C97.2657 181.33 97.0378 181.639 97 182.004C97.0267 182.359 97.2167 182.676 97.5051 182.846C97.776 183.037 98.0908 183.148 98.3616 183.346C98.5902 183.552 98.8352 183.735 99.0937 183.894C99.5574 184.045 100.054 184.026 100.507 183.839C102.616 183.281 104.799 183.133 106.956 183.402C107.165 183.43 107.377 183.43 107.586 183.402C108.21 183.206 108.697 182.675 108.874 181.996C109.306 180.574 109.434 179.064 109.247 177.581C109.245 177.415 109.207 177.252 109.138 177.104C109.05 176.989 108.94 176.896 108.815 176.834C106.773 175.738 105.653 177.93 104.152 179.002C102.483 180.198 100.556 180.904 98.5593 181.051Z" fill="#FFBBAB"/>
<path d="M148.78 149.988C148.78 149.988 149.3 157.81 142.37 160.17C135.44 162.53 123.022 160.604 123.022 160.604C123.022 160.604 118.023 170.261 112.913 174.839L109.645 178.098C108.231 178.443 106.761 177.801 106.043 176.525C106.043 176.525 115.699 157.113 116.998 155.66C118.473 153.87 120.444 152.566 122.658 151.914L136.488 147.523L148.78 149.988Z" fill="#473F47"/>
<path d="M139.134 113.866C138.872 114.301 138.325 114.556 138.148 115.028C137.97 115.501 138.348 116.206 138.556 116.783C138.856 117.586 138.764 118.486 139.049 119.295C139.098 119.47 139.2 119.627 139.342 119.745C139.473 119.833 139.623 119.892 139.781 119.918C140.396 120.039 141.027 120.074 141.652 120.023C141.775 119.999 141.902 120.015 142.014 120.068C142.106 120.147 142.164 120.257 142.176 120.375C142.536 121.904 142.51 123.494 142.099 125.01C141.968 125.513 141.822 126.12 142.199 126.51C142.336 126.631 142.504 126.714 142.685 126.75C143.871 127.028 144.996 126.173 145.812 125.25C146.527 124.449 147.142 123.567 147.645 122.625C147.802 122.364 147.909 122.077 147.961 121.778C147.983 121.391 147.928 121.004 147.799 120.638C147.459 119.377 147.253 118.085 147.183 116.783C147.098 115.118 147.222 113.386 146.559 111.841C146.371 111.31 146.008 110.854 145.527 110.543C144.952 110.277 144.311 110.175 143.678 110.251C142.438 110.296 141.067 110.461 140.22 111.353C139.981 111.608 139.465 113.326 139.134 113.866Z" fill="#FFBBAB"/>
<path d="M146.993 121.855C146.993 121.855 142.006 124.438 140.498 126.465C138.991 128.493 136.531 129.987 137.498 133.824C138.466 137.661 137.288 143.518 137.288 143.518C137.288 143.518 139.456 150.343 144.788 152.07C150.121 153.797 148.651 153.249 148.651 153.249C148.651 153.249 151.478 140.597 152.588 137.075C153.698 133.553 151.823 121.292 146.993 121.855Z" fill="#9CD8DF"/>
<path d="M140.582 110.938C140.679 111.765 141.058 112.528 141.652 113.089C142.227 113.64 142.933 114.025 143.53 114.553C144.169 115.049 144.522 115.847 144.468 116.673C144.94 116.479 145.477 116.659 145.749 117.103C145.874 117.413 145.82 117.768 145.611 118.024C145.397 118.271 145.087 118.404 144.767 118.386C145.379 118.645 145.903 119.086 146.273 119.654C146.688 120.288 146.892 121.042 147.27 121.706C147.737 122.377 148.323 122.95 148.995 123.396C149.296 123.607 149.546 123.889 149.723 124.219C149.861 124.732 150.028 125.236 150.225 125.728C150.654 126.356 151.116 126.961 151.607 127.539C152.272 128.548 152.652 129.729 152.706 130.95C152.673 130.588 152.673 130.224 152.706 129.863C152.827 129.652 152.944 129.433 153.055 129.207C153.242 128.812 153.386 128.397 153.485 127.969C153.624 126.99 153.651 125.997 153.565 125.011C153.565 122.898 155.486 118.922 153.943 117.111C153.329 116.577 152.674 116.095 151.986 115.67C150.625 114.5 150.436 112.44 149.577 110.84C148.808 109.418 147.521 108.374 146.004 107.943C143.995 107.347 140.313 108.003 140.582 110.938Z" fill="#2F2E41"/>
<path d="M145.822 146.691C145.822 146.691 144.822 149.134 142.678 148.335L133.143 144.81C132.651 144.105 131.828 143.532 131.619 142.552C131.509 142.102 130.976 141.738 130.884 141.279C130.742 140.695 130.97 140.258 130.552 140.006C130.137 139.76 129.69 139.587 129.221 139.49C129.14 139.13 128.937 138.835 129.221 138.601C129.503 138.39 130.868 139.151 131.16 139.168C132.399 139.161 132.781 138.802 133.476 139.97C133.662 140.353 133.893 140.69 134.163 140.971C134.379 141.124 134.62 141.228 134.875 141.279C137.705 142.057 140.722 142.174 143.549 142.958C144.229 143.092 144.851 143.417 145.376 143.913C145.881 144.592 146.047 145.627 145.822 146.691Z" fill="#FFBBAB"/>
<rect x="97.8223" y="141.727" width="2.46611" height="38.9554" fill="#C6C6C6"/>
<rect x="121.66" y="141.727" width="2.46611" height="38.9554" fill="#C6C6C6"/>
<rect x="95.3555" y="140.07" width="29.5933" height="3.31535" fill="url(#paint1_linear_509_55624)"/>
<rect x="95.3555" y="140.07" width="29.5933" height="3.31535" fill="#EF3D56"/>
<rect x="129.881" y="159.961" width="20.5509" height="4.97302" rx="0.830052" fill="#473F47"/>
<path d="M133.169 164.93H129.878L128.236 181.506H131.527L133.169 164.93Z" fill="#473F47"/>
<path d="M151.254 181.506L148.963 164.93H145.5L148.377 181.506H151.254Z" fill="#473F47"/>
<path d="M157.007 132.609H153.728L146.32 159.961H149.599L157.007 132.609Z" fill="#473F47"/>
<path d="M145.852 128.757C145.852 128.757 142.826 137.447 142.25 138.082C141.673 138.717 148.079 142.557 148.079 142.557C148.079 142.557 152.265 134.104 152.071 130.448C151.876 126.792 148.209 125.308 145.852 128.757Z" fill="#9CD8DF"/>
<rect x="27.127" y="164.938" width="20.5509" height="4.97302" rx="0.830052" transform="rotate(-180 27.127 164.938)" fill="#473F47"/>
<path d="M23.8379 164.938H27.1284L28.7701 181.514H25.4796L23.8379 164.938Z" fill="#473F47"/>
<path d="M5.75391 181.514L8.04536 164.938H11.5082L8.63103 181.514H5.75391Z" fill="#473F47"/>
<path d="M0 132.617H3.27862L10.6865 159.969H7.40784L0 132.617Z" fill="#473F47"/>
<path d="M7.40723 149.16C7.40723 149.16 6.89053 156.967 13.7775 159.323C18.6936 161.005 24.3331 160.639 29.4264 160.183C30.2457 160.108 31.7146 159.689 32.438 160.242C33.4567 160.99 32.9474 163.077 32.9178 164.206C32.8514 166.659 32.7924 169.104 32.7259 171.557C32.7259 172.686 32.7259 173.845 32.6373 174.967C32.5488 176.089 32.2756 177.405 32.1944 178.646C32.1734 178.751 32.1975 178.86 32.2609 178.945C32.3464 179.013 32.4558 179.043 32.5635 179.028L41.5838 178.631C41.6809 178.642 41.7786 178.616 41.8569 178.557C41.9897 178.429 41.9012 178.205 41.7978 178.055C40.8677 176.841 39.5719 175.967 38.1071 175.565C37.7616 175.478 37.4325 175.334 37.1327 175.139C36.1952 174.391 36.9703 172.783 37.1844 171.879L38.1144 167.945L39.9451 160.213C40.4913 157.924 40.6242 156.182 38.8821 154.589C37.3145 153.015 35.4173 151.819 33.3312 151.089L19.5942 146.707L7.40723 149.16Z" fill="#473F47"/>
<path d="M26.0885 113.053C26.3581 113.488 26.905 113.743 27.0822 114.216C27.2593 114.688 26.8819 115.393 26.6662 115.971C26.3735 116.773 26.4659 117.673 26.1809 118.483C26.1313 118.658 26.0294 118.815 25.8882 118.933C25.7557 119.02 25.6062 119.078 25.4491 119.105C24.8334 119.226 24.2032 119.262 23.5773 119.21C23.4548 119.187 23.3277 119.203 23.2152 119.255C23.1234 119.334 23.0656 119.444 23.0535 119.563C22.6911 121.091 22.7149 122.681 23.1228 124.198C23.2614 124.7 23.4078 125.308 23.0303 125.698C22.8933 125.818 22.7258 125.901 22.5451 125.938C21.3588 126.215 20.2341 125.36 19.4176 124.438C18.7026 123.636 18.0872 122.755 17.5843 121.813C17.4272 121.551 17.3202 121.264 17.2685 120.965C17.2463 120.579 17.3012 120.192 17.4302 119.825C17.7677 118.564 17.9716 117.272 18.0388 115.971C18.1312 114.306 18.0388 112.573 18.6627 111.028C18.8541 110.497 19.2194 110.041 19.7026 109.731C20.2751 109.464 20.9139 109.363 21.5437 109.438C22.7915 109.483 24.155 109.648 25.0023 110.541C25.2488 110.796 25.7649 112.513 26.0885 113.053Z" fill="#FFBBAB"/>
<path d="M17.3895 121.054H17.4931C19.6705 121.597 22.8403 123.593 23.5512 125.811C24.4474 128.596 25.0324 132.34 24.3881 135.221C23.9512 137.179 22.9069 138.944 22.3218 140.865C21.8256 142.45 21.6183 144.133 20.9665 145.659C19.2943 149.306 15.4072 151.383 11.4647 150.737C10.4467 150.563 9.48748 150.138 8.67262 149.501C7.17443 148.099 6.41064 146.077 6.60635 144.029C6.82417 142.009 7.35129 140.035 8.16902 138.177L11.561 129.28C12.383 127.151 14.3752 120.451 17.3895 121.054Z" fill="#9CD8DF"/>
<path d="M17.2637 139.971C17.2637 139.971 17.4919 142.609 20.7901 142.559L35.5143 142.357C36.5082 141.853 37.8776 141.773 38.6285 140.915C38.9819 140.526 39.1659 140.007 39.512 139.603C39.98 139.098 40.612 138.767 41.3009 138.666C41.9837 138.57 42.6756 138.553 43.3623 138.616C43.6376 138.3 43.6376 137.836 43.3623 137.52C43.0731 137.23 42.701 137.031 42.2948 136.951C40.6039 136.536 38.814 136.796 37.318 137.672C36.8847 137.973 36.4117 138.215 35.9119 138.392C35.5438 138.466 35.1667 138.485 34.7928 138.45C30.5596 138.255 26.378 137.376 22.1447 137.189C21.1523 137.093 20.1504 137.196 19.1999 137.491C18.1793 137.958 17.4562 138.884 17.2637 139.971Z" fill="#FFBBAB"/>
<path d="M25.1378 106.424C24.4074 105.277 23.1871 104.553 21.8501 104.473C20.9563 104.336 20.0482 104.598 19.3562 105.192C19.0866 105.468 18.8844 105.812 18.6073 106.08C17.8059 106.845 16.5702 106.753 15.6116 107.22C14.7454 107.679 14.0799 108.455 13.7468 109.392C13.4211 110.325 13.2392 111.303 13.2076 112.292C13.1009 113.196 13.149 114.113 13.3499 115C13.7388 116.33 14.7142 117.397 15.9861 117.885C16.284 117.957 16.5595 118.104 16.7874 118.313C16.9672 118.52 17.0271 118.818 17.1993 119.032C17.6262 119.568 18.48 119.369 19.0117 118.948C19.4732 118.451 20 118.021 20.5769 117.671L19.0791 115.597C18.8866 115.39 18.777 115.117 18.772 114.832C18.8653 114.491 19.1749 114.26 19.5209 114.274C19.8581 114.305 20.1762 114.447 20.4271 114.679C20.6443 114.863 20.9738 115.069 21.176 114.855C21.2376 114.788 21.2746 114.702 21.2809 114.61C21.4457 113.585 20.532 112.567 20.8016 111.55C20.8229 111.457 20.8728 111.374 20.9439 111.313C21.0495 111.255 21.1719 111.239 21.2884 111.267C21.8852 111.366 22.4924 111.381 23.0933 111.313C24.988 110.953 26.0814 108.084 25.1378 106.424Z" fill="#473F47"/>
<path d="M19.3748 127.933C19.3748 127.933 22.4032 136.623 22.98 137.258C23.5568 137.892 17.154 141.732 17.154 141.732C17.154 141.732 12.9575 133.28 13.1594 129.624C13.3613 125.967 17.0098 124.483 19.3748 127.933Z" fill="#9CD8DF"/>
<path d="M56.6141 140.075L43.4094 139.982C43.0527 139.979 42.7746 139.672 42.8078 139.316C42.8368 139.006 43.0953 138.768 43.4068 138.765L55.2898 138.631C55.4864 138.629 55.667 138.522 55.764 138.351L62.3331 126.753C62.5253 126.414 62.9394 126.27 63.3009 126.416C63.7348 126.592 63.9156 127.109 63.6858 127.517L56.6141 140.075Z" fill="#6E6E6E"/>
<rect x="37.8145" y="141.734" width="2.46611" height="38.9554" fill="#C6C6C6"/>
<rect x="61.6523" y="141.734" width="2.46611" height="38.9554" fill="#C6C6C6"/>
<rect x="36.1699" y="140.074" width="29.5933" height="3.31535" fill="url(#paint2_linear_509_55624)"/>
<rect x="36.1699" y="140.07" width="29.5933" height="3.31535" fill="#EF3D56"/>
<path d="M13.9746 91.1719L20.5509 94.1694L13.9746 96.9737V91.1719Z" fill="#EF3D56"/>
<rect x="23.8379" y="93.6562" width="137.28" height="1.65767" fill="#EF3D56"/>
<defs>
<linearGradient id="paint0_linear_509_55624" x1="122.501" y1="148.594" x2="271.283" y2="100.577" gradientUnits="userSpaceOnUse">
<stop/>
<stop offset="0.08" stop-opacity="0.69"/>
<stop offset="0.21" stop-opacity="0.32"/>
<stop offset="1" stop-opacity="0.01"/>
</linearGradient>
<linearGradient id="paint1_linear_509_55624" x1="-98.3197" y1="123.112" x2="-98.3144" y2="169.785" gradientUnits="userSpaceOnUse">
<stop offset="0.01"/>
<stop offset="0.08" stop-opacity="0.69"/>
<stop offset="0.21" stop-opacity="0.32"/>
<stop offset="1" stop-opacity="0.01"/>
</linearGradient>
<linearGradient id="paint2_linear_509_55624" x1="-37.5225" y1="134.862" x2="-37.5199" y2="154.673" gradientUnits="userSpaceOnUse">
<stop offset="0.01"/>
<stop offset="0.08" stop-opacity="0.69"/>
<stop offset="0.21" stop-opacity="0.32"/>
<stop offset="1" stop-opacity="0.01"/>
</linearGradient>
</defs>
</svg>
