<svg width="136" height="120" viewBox="0 0 136 120" fill="none" xmlns="http://www.w3.org/2000/svg">
<g clip-path="url(#clip0_124_146756)">
<path d="M65.2731 113.851L64.9562 115.264L65.0324 115.348C65.0155 115.391 64.9985 115.435 64.9782 115.478C64.8098 115.865 64.6174 116.241 64.402 116.604C64.1173 117.085 63.7987 117.55 63.4682 118.006C63.2868 118.258 63.1004 118.508 62.914 118.757C62.9089 118.765 62.9032 118.773 62.897 118.781C62.8991 118.772 62.9019 118.763 62.9055 118.755L62.8445 118.741L62.4937 117.191L62.3869 117.436V117.438L62.2141 117.843C62.2276 117.918 62.2412 117.99 62.2581 118.063C62.2564 118.061 62.2564 118.057 62.2547 118.056C62.253 118.054 62.253 118.054 62.253 118.052C62.231 118.004 62.2073 117.957 62.1853 117.909L61.9209 118.527L61.3853 118.403C61.104 118.254 60.8227 118.104 60.543 117.949C56.7231 115.837 53.1862 113.142 50.805 109.472C49.8585 108.011 49.1431 106.407 48.6849 104.719C47.7816 101.366 47.9375 97.7567 49.5814 94.7609C49.5814 94.7607 49.5815 94.7605 49.5815 94.7602C49.5816 94.76 49.5818 94.7598 49.5819 94.7597C49.5821 94.7595 49.5823 94.7594 49.5825 94.7593C49.5827 94.7592 49.5829 94.7592 49.5831 94.7592C49.6238 94.6832 49.6662 94.6072 49.7102 94.5312C49.7424 94.6176 49.7729 94.7039 49.8068 94.7903V94.792C50.2487 95.9645 50.782 97.0991 51.4016 98.1849C51.449 98.2695 51.4965 98.3541 51.5473 98.437C53.061 101.026 55.0332 103.306 57.3637 105.161C57.3701 105.167 57.3769 105.173 57.384 105.178C57.3921 105.185 57.4006 105.191 57.4095 105.197C57.9281 105.611 58.4642 106.001 59.0178 106.366V106.368C59.4499 106.654 59.8939 106.925 60.3448 107.183C61.3057 107.728 62.3513 108.253 63.2495 108.908C64.1223 109.541 64.8579 110.296 65.2493 111.306C65.2799 111.387 65.3087 111.468 65.3341 111.55L64.6358 113.744L65.2731 113.851Z" fill="#F0F0F0"/>
<path d="M62.3887 117.436V117.438L62.2158 117.843C61.9548 116.365 62.2649 114.803 62.0497 113.306C62.026 113.138 61.9955 112.971 61.9565 112.805C61.7362 111.859 61.2328 110.973 60.338 110.55C60.0768 110.429 59.8027 110.339 59.5211 110.282C58.9653 110.161 58.3857 110.135 57.8247 110.068C57.684 110.051 57.5451 110.032 57.4095 110.006C56.6841 109.891 55.9916 109.619 55.3792 109.206C54.6294 108.664 53.9761 107.994 53.4472 107.228C53.0977 106.746 52.7725 106.247 52.4727 105.732C52.432 105.667 52.3947 105.599 52.3558 105.532C51.6544 104.294 51.0791 102.987 50.639 101.63C50.4123 100.936 50.2222 100.231 50.0696 99.5162C49.7299 97.9552 49.5667 96.3597 49.5832 94.7609C49.5832 94.7607 49.5832 94.7605 49.5833 94.7603C49.5834 94.76 49.5835 94.7599 49.5836 94.7597C49.5838 94.7595 49.584 94.7594 49.5842 94.7593C49.5844 94.7592 49.5846 94.7592 49.5849 94.7592C49.5832 94.6867 49.5849 94.6141 49.5866 94.5416C49.5899 94.3931 49.8153 94.4259 49.812 94.5744C49.8103 94.647 49.8086 94.7178 49.8086 94.7903V94.792C49.7948 96.3238 49.9465 97.8525 50.2611 99.3505C50.278 99.4264 50.295 99.5024 50.3102 99.5784C50.7684 101.654 51.5384 103.646 52.593 105.482C52.6049 105.503 52.6167 105.523 52.6303 105.544C52.8761 105.971 53.1404 106.385 53.4184 106.791C53.929 107.572 54.557 108.266 55.2792 108.849C55.8869 109.312 56.5927 109.624 57.34 109.759C57.4146 109.773 57.4892 109.787 57.5654 109.799C57.6247 109.809 57.6857 109.818 57.7467 109.825C58.3179 109.897 58.9043 109.925 59.472 110.035C59.7301 110.085 59.9836 110.157 60.2295 110.251C60.6322 110.415 60.9962 110.665 61.2976 110.983C61.599 111.3 61.8311 111.68 61.9785 112.095C62.1296 112.499 62.2331 112.919 62.287 113.347C62.3056 113.487 62.3192 113.627 62.331 113.768V113.77C62.348 113.998 62.3564 114.228 62.3598 114.457C62.3632 114.744 62.3581 115.031 62.3514 115.315C62.3138 116.022 62.3262 116.731 62.3887 117.436Z" fill="white"/>
<path d="M52.5681 105.686C51.9223 106.02 51.181 106.109 50.4764 105.938C49.7719 105.767 49.1501 105.346 48.722 104.751C48.6358 104.63 48.8159 104.488 48.9022 104.609C49.2999 105.164 49.8791 105.556 50.5355 105.714C51.1919 105.872 51.8821 105.786 52.4817 105.471C52.612 105.403 52.6977 105.618 52.5681 105.686H52.5681Z" fill="white"/>
<path d="M57.3167 109.83C57.7886 108.4 57.7142 106.841 57.1083 105.465C57.0482 105.328 57.259 105.241 57.3191 105.377C57.9469 106.81 58.0211 108.432 57.5268 109.919C57.4796 110.061 57.2697 109.971 57.3167 109.83H57.3167Z" fill="white"/>
<path d="M50.1955 99.3738C50.4718 99.2976 50.7252 99.1526 50.9329 98.9519C51.1407 98.7512 51.2962 98.5011 51.3856 98.224C51.431 98.0817 51.6409 98.1722 51.5958 98.3135C51.4956 98.6192 51.3235 98.8952 51.0944 99.1175C50.8654 99.3397 50.5865 99.5015 50.2819 99.5885C50.2539 99.5992 50.223 99.5986 50.1954 99.5868C50.1678 99.5751 50.1456 99.553 50.1333 99.5252C50.122 99.4967 50.1222 99.4648 50.1339 99.4365C50.1455 99.4081 50.1677 99.3856 50.1955 99.3738H50.1955Z" fill="white"/>
<path d="M62.8872 118.795C62.8905 118.79 62.8938 118.786 62.8971 118.781C62.8905 118.801 62.8839 118.822 62.8789 118.843L62.8872 118.795Z" fill="#F0F0F0"/>
<path d="M67.9238 108.164L67.6866 109.01L66.2291 108.732L65.7461 110.25L65.663 110.511L65.3326 111.549L64.6343 113.743L65.2716 113.85L64.9546 115.263L65.0309 115.347L65.0546 115.373L65.2122 115.549L66.1715 116.616L63.548 118.904L63.1277 118.806L62.9125 118.756C62.9074 118.764 62.9017 118.772 62.8955 118.78C62.8976 118.771 62.9004 118.762 62.904 118.754L62.843 118.74L62.4922 117.19L62.3854 117.435V117.437L62.2125 117.842C62.2261 117.917 62.2397 117.989 62.2566 118.062C62.2549 118.06 62.2549 118.057 62.2532 118.055C62.2515 118.053 62.2515 118.053 62.2515 118.051C62.2295 118.003 62.2058 117.956 62.1837 117.908C61.8482 117.195 61.5279 116.471 61.2313 115.739C60.5004 113.976 59.9269 112.149 59.5179 110.281C59.5009 110.2 59.4823 110.119 59.4688 110.036V110.034C59.2201 108.826 59.0688 107.6 59.0162 106.367V106.365C58.9892 105.69 58.9959 105.014 59.0366 104.34C59.1438 102.597 59.5195 100.882 60.15 99.258C60.1534 99.2494 60.1568 99.2425 60.1602 99.2339C61.3686 96.1362 63.4955 93.4494 66.3867 92.018C66.507 91.9558 66.6307 91.8971 66.7545 91.8419H66.7578L66.7595 91.8402C66.8375 91.8056 66.9138 91.7728 66.9917 91.7383C66.9663 91.8281 66.9392 91.9179 66.9154 92.0094C66.5734 93.2159 66.3286 94.4488 66.1833 95.6959V95.6976C66.1698 95.7926 66.1579 95.891 66.1477 95.9877V95.9894C65.828 98.9972 66.059 102.039 66.829 104.961C66.8307 104.97 66.8341 104.977 66.8358 104.985C67.1234 106.07 67.487 107.133 67.9238 108.164Z" fill="#F0F0F0"/>
<path d="M65.2151 115.551C65.0813 115.734 64.944 115.912 64.805 116.09C64.6711 116.261 64.5373 116.432 64.4034 116.604C64.0534 117.044 63.741 117.513 63.4696 118.006C63.3335 118.263 63.2201 118.531 63.1306 118.808L62.9154 118.758C62.9103 118.766 62.9046 118.774 62.8984 118.782C62.9005 118.773 62.9033 118.764 62.9069 118.756C63.3018 117.499 64.2 116.525 64.9796 115.479C65.0067 115.444 65.0321 115.41 65.0575 115.375L65.2151 115.551Z" fill="white"/>
<path d="M67.0489 91.8373C67.0049 91.8943 66.9591 91.953 66.9167 92.0117C66.5863 92.4485 66.2739 92.8992 65.9795 93.3637C65.4554 94.1832 64.9898 95.0402 64.5865 95.9278C64.5543 95.9969 64.5221 96.0677 64.4915 96.1385C63.6284 98.0782 63.0659 100.143 62.8239 102.258C62.8205 102.279 62.8188 102.298 62.8171 102.318C62.7612 102.812 62.7251 103.308 62.7087 103.805C62.6546 104.741 62.7456 105.681 62.9781 106.588C63.012 106.708 63.0493 106.825 63.09 106.939C63.1919 107.218 63.3196 107.487 63.4713 107.742C63.5803 107.928 63.7015 108.106 63.834 108.275C63.9136 108.379 63.9967 108.481 64.0848 108.579C64.1356 108.636 64.1882 108.693 64.2407 108.75C64.2848 108.793 64.3272 108.838 64.3712 108.881C64.8288 109.334 65.3338 109.753 65.7474 110.252L65.6643 110.513C65.266 109.999 64.7525 109.572 64.2899 109.123C63.9994 108.845 63.735 108.54 63.5001 108.212C63.4696 108.167 63.4374 108.122 63.4086 108.075C63.2516 107.841 63.116 107.593 63.0036 107.334C62.9459 107.205 62.8934 107.072 62.846 106.934C62.5691 106.041 62.443 105.107 62.4731 104.171C62.4786 103.572 62.5136 102.973 62.5782 102.377C62.585 102.299 62.5934 102.223 62.6036 102.146C62.7755 100.727 63.0889 99.3308 63.5391 97.9774C64.1089 96.2605 64.8926 94.6252 65.8711 93.1116C66.1507 92.6782 66.4473 92.2552 66.7608 91.8425C66.8015 91.7855 66.8439 91.7302 66.8879 91.6733C66.9777 91.5558 67.1387 91.7199 67.0489 91.8373Z" fill="white"/>
<path d="M62.6866 102.395C61.9734 102.266 61.3287 101.883 60.8674 101.314C60.4061 100.745 60.1583 100.027 60.1683 99.2893C60.1689 99.2592 60.1811 99.2305 60.2021 99.2094C60.2231 99.1882 60.2513 99.1762 60.2808 99.1758C60.3104 99.1754 60.3389 99.1868 60.3604 99.2074C60.3819 99.228 60.3947 99.2564 60.3961 99.2864C60.3855 99.9736 60.6164 100.642 61.047 101.171C61.4777 101.7 62.0797 102.054 62.7444 102.171C62.8889 102.196 62.8302 102.421 62.6866 102.395Z" fill="white"/>
<path d="M64.0279 108.619C65.2497 107.767 66.1113 106.477 66.4409 105.006C66.4735 104.86 66.6938 104.919 66.6613 105.065C66.3154 106.595 65.4161 107.935 64.1428 108.819C64.0214 108.904 63.9072 108.703 64.028 108.619H64.0279Z" fill="white"/>
<path d="M64.521 95.9003C64.7866 96.0089 65.0746 96.0486 65.3591 96.0158C65.6435 95.9829 65.9156 95.8786 66.1507 95.7122C66.271 95.6265 66.3851 95.8275 66.2655 95.9127C66.0049 96.0953 65.7044 96.2101 65.3902 96.247C65.076 96.284 64.7577 96.242 64.4631 96.1248C64.4344 96.1161 64.4101 96.0966 64.395 96.0703C64.3799 96.0439 64.3752 96.0128 64.3819 95.983C64.3897 95.9534 64.4087 95.928 64.4347 95.9125C64.4608 95.897 64.4917 95.8926 64.521 95.9003Z" fill="white"/>
<path d="M88.6803 19.3281C87.3972 12.3315 89.4173 4.37175 95.0319 0.136719C94.7137 7.87015 97.0906 15.469 101.742 21.5888C103.544 23.9424 105.789 26.3689 105.72 29.3531C105.676 31.21 104.691 32.9399 103.392 34.2431C102.093 35.5464 100.493 36.486 98.9116 37.4109L98.6655 37.801C94.0311 32.475 89.9634 26.3247 88.6803 19.3281Z" fill="#F0F0F0"/>
<path d="M95.1326 0.24202C92.7737 5.62089 92.1382 11.6203 93.3164 17.3881C93.5762 18.6222 93.9452 19.8511 94.5709 20.9475C95.1889 22.0115 96.0753 22.8874 97.1379 23.4843C98.1177 24.0612 99.1855 24.5356 100.011 25.3451C100.88 26.1983 101.268 27.3628 101.235 28.5794C101.196 30.068 100.634 31.4534 100.038 32.7888C99.3762 34.2714 98.6658 35.8007 98.7087 37.4676C98.7139 37.6695 98.4061 37.6659 98.4009 37.4643C98.3262 34.5642 100.384 32.2351 100.843 29.4524C101.057 28.1539 100.888 26.7818 99.9918 25.7753C99.2082 24.8952 98.1075 24.405 97.1105 23.8297C96.0636 23.2256 95.1723 22.4792 94.5098 21.4445C93.8321 20.386 93.4152 19.1693 93.1256 17.9473C92.4891 15.1715 92.285 12.3109 92.5206 9.4704C92.772 6.22705 93.566 3.05141 94.8683 0.080862C94.949 -0.102962 95.2127 0.0593965 95.1326 0.24202H95.1326Z" fill="white"/>
<path d="M92.8303 15.5559C91.8537 15.626 90.8844 15.34 90.0956 14.7492C89.3068 14.1583 88.7498 13.301 88.5241 12.3303C88.4791 12.1338 88.7768 12.0533 88.8219 12.2501C89.0304 13.1544 89.5493 13.9529 90.2849 14.5016C91.0206 15.0503 91.9245 15.313 92.8336 15.2423C93.0311 15.2271 93.0268 15.5409 92.8303 15.5559Z" fill="white"/>
<path d="M96.6034 23.259C97.9292 21.7314 98.6413 19.7509 98.5975 17.7123C98.593 17.5103 98.9009 17.5138 98.9054 17.7155C98.947 19.8371 98.202 21.8966 96.8189 23.4831C96.6869 23.6342 96.4722 23.4093 96.6034 23.259V23.259Z" fill="white"/>
<path d="M93.1321 6.423C93.5155 6.47613 93.9059 6.43139 94.2682 6.29282C94.6304 6.15424 94.9533 5.92617 95.2076 5.62907C95.3376 5.47632 95.5522 5.70144 95.4231 5.85319C95.1405 6.1801 94.7837 6.43155 94.3838 6.58556C93.9839 6.73956 93.553 6.79145 93.1289 6.73667C93.0885 6.73492 93.0502 6.71757 93.022 6.68813C92.9937 6.65869 92.9774 6.61938 92.9766 6.57819C92.9772 6.53666 92.9939 6.49706 93.023 6.468C93.0521 6.43894 93.0913 6.42276 93.1321 6.42299V6.423Z" fill="white"/>
<path d="M117.991 5.92215C117.912 6.01988 117.834 6.11761 117.756 6.21791C116.707 7.53742 115.766 8.94156 114.94 10.4165C114.874 10.5295 114.81 10.645 114.747 10.7597C112.796 14.3347 111.512 18.2478 110.962 22.3001C110.745 23.9128 110.649 25.54 110.674 27.1677C110.708 29.4155 110.922 31.8499 110.245 33.9173C110.177 34.1338 110.096 34.3458 110.002 34.552L99.1498 38.0748C99.1212 38.0702 99.0932 38.0681 99.0645 38.0636L98.6375 38.2244C98.6305 38.1406 98.6249 38.0535 98.6179 37.9696C98.6136 37.921 98.6117 37.8716 98.6074 37.8229C98.6054 37.7903 98.6034 37.7576 98.5997 37.7282C98.5989 37.7173 98.5983 37.7064 98.5984 37.6981C98.5946 37.6687 98.5942 37.641 98.5913 37.6142C98.559 37.1273 98.5292 36.6396 98.5044 36.1503C98.5036 36.1477 98.5036 36.1477 98.5052 36.1444C98.319 32.4175 98.4365 28.642 99.1126 25.0047C99.133 24.8953 99.1525 24.7834 99.1778 24.6723C99.4916 23.0345 99.9361 21.4256 100.507 19.8615C100.822 19.0062 101.18 18.1676 101.579 17.3491C102.613 15.2361 103.966 13.302 105.59 11.6177C108.828 8.26039 113.083 5.99542 117.643 5.9241C117.759 5.92237 117.874 5.92136 117.991 5.92215Z" fill="#F0F0F0"/>
<path d="M118.01 6.06818C112.948 8.9159 108.895 13.3163 106.428 18.6443C105.906 19.789 105.474 20.9965 105.326 22.2558C105.191 23.4844 105.381 24.7275 105.877 25.856C106.318 26.9176 106.89 27.9514 107.071 29.1039C107.261 30.3186 106.882 31.486 106.137 32.4376C105.226 33.602 103.959 34.3633 102.694 35.0639C101.289 35.8418 99.8185 36.6272 98.8677 37.9844C98.7525 38.1488 98.5088 37.9571 98.6238 37.7929C100.278 35.4315 103.297 34.8342 105.308 32.8937C106.246 31.9881 106.922 30.7891 106.801 29.4358C106.696 28.2524 106.107 27.1858 105.651 26.1149C105.172 24.9903 104.901 23.8477 104.984 22.6151C105.068 21.3543 105.454 20.1271 105.945 18.9738C107.077 16.367 108.605 13.9577 110.471 11.8343C112.588 9.39885 115.099 7.35034 117.894 5.77742C118.067 5.68014 118.182 5.97152 118.01 6.06817V6.06818Z" fill="white"/>
<path d="M107.126 16.8838C106.305 16.3406 105.7 15.5177 105.419 14.5621C105.139 13.6065 105.201 12.5803 105.594 11.6668C105.674 11.4823 105.959 11.6006 105.879 11.7854C105.511 12.6353 105.454 13.5912 105.717 14.4806C105.98 15.3699 106.546 16.1342 107.314 16.6353C107.481 16.7444 107.292 16.9923 107.126 16.8838H107.126Z" fill="white"/>
<path d="M105.584 25.3502C107.546 24.9438 109.284 23.7992 110.454 22.1447C110.57 21.9806 110.814 22.1723 110.698 22.3361C109.478 24.0556 107.666 25.243 105.624 25.6613C105.429 25.701 105.391 25.3897 105.584 25.3502H105.584Z" fill="white"/>
<path d="M112.762 9.77838C113.036 10.056 113.374 10.2597 113.746 10.3713C114.117 10.4829 114.509 10.4988 114.888 10.4176C115.082 10.3754 115.12 10.6868 114.927 10.7287C114.509 10.8164 114.075 10.7983 113.665 10.676C113.255 10.5536 112.88 10.3308 112.574 10.0269C112.542 10.0007 112.522 9.96337 112.517 9.92251C112.512 9.88165 112.522 9.84031 112.546 9.80688C112.571 9.77411 112.607 9.75273 112.648 9.7474C112.688 9.74207 112.729 9.7532 112.762 9.77839V9.77838Z" fill="white"/>
<path d="M48.2543 10.969C47.6546 10.5377 46.9986 10.088 46.2648 10.106C44.4888 10.1495 43.5313 12.8021 41.7572 12.7088C40.6258 12.6493 39.8747 11.4783 38.8212 11.0537C37.4497 10.5009 35.7043 11.582 35.5547 13.0769L35.7308 12.9127C41.0622 14.2369 46.5947 14.4973 52.0232 13.6795C50.7669 12.776 49.5106 11.8725 48.2543 10.969Z" fill="#F0F0F0"/>
<path d="M51.5805 14.159C54.984 14.159 57.743 11.3479 57.743 7.88026C57.743 4.41263 54.984 1.60156 51.5805 1.60156C48.177 1.60156 45.418 4.41263 45.418 7.88026C45.418 11.3479 48.177 14.159 51.5805 14.159Z" fill="#FF6582"/>
<path d="M66.0049 6.6786C65.2406 6.12899 64.4045 5.55588 63.4694 5.57879C61.2061 5.63424 59.9858 9.01472 57.7248 8.89583C56.2829 8.82002 55.3258 7.32764 53.9832 6.78651C52.2353 6.08204 50.011 7.4598 49.8203 9.36501L50.0448 9.15569C56.8392 10.8433 63.8899 11.1751 70.808 10.133C69.207 8.98152 67.6059 7.83006 66.0049 6.6786Z" fill="#F0F0F0"/>
<path d="M121.435 69.7106L114.896 34.0339C114.784 33.4457 114.479 32.9138 114.031 32.5253C113.584 32.1367 113.02 31.9146 112.432 31.8954C112.38 31.8942 112.327 31.8942 112.274 31.8954L107.819 32.0583L107.339 32.0762L105.116 32.1576L104.636 32.1744L103.206 32.2271L74.3673 33.2819C74.3239 33.2843 74.2792 33.2843 74.2357 33.2831L67.7735 33.1454L65.382 33.0952L65.3056 33.094L63.5405 33.0556L48.1598 32.73L44.082 32.6426L42.0712 32.6007L41.5894 32.5899L39.2966 32.542L38.816 32.5312L36.4704 32.4821L35.9897 32.4713L33.4126 32.4163L33.0083 32.4079L30.7097 32.3588L30.3465 32.3516H30.2937C29.6834 32.3541 29.0937 32.5764 28.6288 32.9791C28.1638 33.3818 27.8536 33.9391 27.7529 34.5523L21.8383 71.5737C21.7782 71.9487 21.7989 72.3325 21.8989 72.6986C21.9989 73.0647 22.1757 73.4042 22.4173 73.6937C22.6589 73.9833 22.9593 74.2158 23.2978 74.3753C23.6364 74.5347 24.0049 74.6173 24.3778 74.6173H58.345C58.845 74.6187 59.3315 74.7822 59.7341 75.0842L60.3781 75.5704C60.8219 75.9032 61.3582 76.0835 61.9093 76.0852H81.9272C82.2655 76.0861 82.6005 76.0186 82.913 75.8867C83.2255 75.7547 83.5091 75.5609 83.7476 75.3165C84.1554 74.9012 84.6995 74.6543 85.2753 74.6233L119.04 72.8105C119.407 72.791 119.764 72.692 120.09 72.5202C120.415 72.3483 120.701 72.1075 120.928 71.814C121.155 71.5205 121.317 71.181 121.405 70.8182C121.492 70.4554 121.503 70.0778 121.435 69.7106V69.7106Z" fill="#CCCCCC"/>
<path d="M116.084 68.7409L112.439 31.9434C112.438 31.9279 112.435 31.9111 112.433 31.8955C112.365 31.3076 112.08 30.768 111.636 30.3857L103.794 23.7298C103.453 23.4381 103.029 23.2656 102.585 23.2376C98.9971 23.003 80.7573 22.1337 74.0247 28.088C73.8204 28.2691 73.5797 28.4025 73.3194 28.4786C73.0591 28.5547 72.7856 28.5718 72.5181 28.5286C72.25 28.4843 71.9945 28.3816 71.769 28.2274C71.5435 28.0733 71.3532 27.8713 71.2113 27.6354C70.6388 26.7263 69.8888 25.9471 69.0079 25.3461C68.6123 25.0663 68.2002 24.8116 67.7739 24.5834C67.3967 24.3811 66.9866 24.1847 66.54 23.9956C66.1557 23.8327 65.7456 23.6759 65.3061 23.5262C63.0274 22.7503 59.9814 22.1708 55.9106 21.9769C54.2218 21.8954 52.3862 21.8847 50.4554 21.9433C48.6926 21.996 46.8194 22.105 44.8886 22.2678L44.8604 22.269L31.796 30.3953C31.5031 30.5813 31.2556 30.8328 31.0722 31.1307C30.8887 31.4285 30.7742 31.765 30.7372 32.1146L30.7101 32.3589L26.5618 70.1238C26.5259 70.4447 26.5549 70.7696 26.6468 71.0787C26.7388 71.3878 26.8918 71.6744 27.0965 71.921C27.2957 72.1614 27.5438 72.3548 27.8236 72.488C28.1034 72.6211 28.4082 72.6907 28.717 72.6921H60.9074C61.3354 72.6943 61.75 72.8441 62.0838 73.1171L63.4893 74.2642C63.8555 74.5638 64.3088 74.7314 64.7784 74.7407L78.9322 74.9766H78.9663C79.3237 74.9759 79.6751 74.8828 79.9875 74.706L82.7174 73.1614C82.9665 73.0202 83.2437 72.9383 83.5283 72.922L114.036 71.2804C114.333 71.2642 114.624 71.1845 114.889 71.0462C115.154 70.908 115.387 70.7145 115.574 70.4782C115.768 70.2377 115.913 69.9602 116.001 69.6619C116.088 69.3636 116.117 69.0505 116.084 68.7409Z" fill="#E6E6E6"/>
<path d="M105.435 62.1022L105.008 56.3748L103.206 32.2252L102.939 28.6527C102.871 27.7143 102.462 26.8353 101.793 26.187C101.124 25.5386 100.242 25.1675 99.3186 25.1458C92.7175 24.9731 80.7645 25.277 74.899 29.2812C74.2466 29.7331 73.4553 29.9279 72.6724 29.8294C71.8895 29.7309 71.1684 29.3459 70.6435 28.7459C69.8319 27.8381 68.8574 27.0967 67.7726 26.5617C66.9787 26.156 66.1534 25.8176 65.305 25.5498C62.8222 24.7417 59.6892 24.2508 55.906 24.077L46.9272 24.0234H46.912C46.29 24.024 45.6915 24.2659 45.2383 24.6998C44.785 25.1337 44.5108 25.7272 44.4715 26.3597L44.0817 32.6396L42.3785 60.1804C42.3467 60.6935 42.4175 61.2078 42.5866 61.6921C42.7558 62.1764 43.0198 62.6207 43.3626 62.9979C43.7054 63.3751 44.1199 63.6774 44.5809 63.8865C45.0419 64.0955 45.5397 64.2069 46.0443 64.214C61.1156 64.4419 67.6997 67.6829 70.5706 70.3592C71.1811 70.9299 71.9609 71.2767 72.7866 71.3449C73.6123 71.4131 74.4368 71.1987 75.1295 70.7357C80.3408 67.2581 89.0043 66.2912 95.9002 66.1409C98.0119 66.096 99.9575 66.1254 101.588 66.1841C102.112 66.2033 102.634 66.1096 103.12 65.9091C103.606 65.7085 104.045 65.4057 104.408 65.0203C104.771 64.635 105.05 64.1759 105.227 63.673C105.404 63.1701 105.475 62.6349 105.435 62.1022Z" fill="white"/>
<path d="M30.6152 70.0918C30.6096 70.0918 30.6037 70.0915 30.5981 70.091C30.5666 70.0888 30.5359 70.0803 30.5077 70.0659C30.4796 70.0516 30.4544 70.0317 30.4338 70.0075C30.4131 69.9832 30.3973 69.9551 30.3873 69.9246C30.3774 69.8942 30.3734 69.862 30.3756 69.83L32.9687 32.5243C32.9706 32.4922 32.9787 32.4607 32.9927 32.4318C33.0066 32.4029 33.0261 32.3772 33.05 32.356C33.0739 32.3349 33.1017 32.3189 33.1317 32.3089C33.1618 32.2988 33.1935 32.295 33.225 32.2977C33.2564 32.2999 33.2871 32.3085 33.3153 32.3228C33.3435 32.3372 33.3686 32.357 33.3893 32.3813C33.4099 32.4055 33.4257 32.4337 33.4357 32.4641C33.4457 32.4946 33.4497 32.5267 33.4474 32.5587L30.8543 69.8644C30.8501 69.9261 30.823 69.9839 30.7787 70.026C30.7343 70.0682 30.6759 70.0917 30.6152 70.0918Z" fill="white"/>
<path d="M33.7363 68.6269C33.7306 68.6269 33.7248 68.6267 33.7192 68.6262C33.6877 68.624 33.657 68.6154 33.6288 68.6011C33.6006 68.5867 33.5755 68.5669 33.5548 68.5426C33.5342 68.5184 33.5184 68.4902 33.5084 68.4598C33.4985 68.4293 33.4945 68.3972 33.4967 68.3652L36.0898 31.0595C36.0917 31.0273 36.0998 30.9959 36.1138 30.967C36.1277 30.9381 36.1472 30.9123 36.1711 30.8912C36.195 30.8701 36.2227 30.854 36.2528 30.844C36.2828 30.834 36.3145 30.8302 36.3461 30.8328C36.3775 30.8351 36.4082 30.8436 36.4364 30.858C36.4646 30.8723 36.4897 30.8922 36.5104 30.9164C36.531 30.9407 36.5468 30.9688 36.5568 30.9993C36.5667 31.0297 36.5707 31.0619 36.5685 31.0939L33.9754 68.3995C33.9712 68.4612 33.9441 68.519 33.8998 68.5612C33.8554 68.6034 33.797 68.6269 33.7363 68.6269Z" fill="white"/>
<path d="M36.6152 67.8925C36.6096 67.8925 36.6037 67.8923 36.5981 67.8918C36.5666 67.8896 36.5359 67.881 36.5077 67.8667C36.4796 67.8524 36.4544 67.8325 36.4338 67.8083C36.4131 67.784 36.3973 67.7559 36.3873 67.7254C36.3774 67.695 36.3734 67.6628 36.3756 67.6308L38.9687 30.3251C38.9706 30.293 38.9787 30.2615 38.9927 30.2326C39.0066 30.2037 39.0261 30.1779 39.05 30.1568C39.0739 30.1357 39.1017 30.1197 39.1317 30.1096C39.1617 30.0996 39.1935 30.0958 39.225 30.0985C39.2564 30.1007 39.2871 30.1093 39.3153 30.1236C39.3435 30.1379 39.3686 30.1578 39.3893 30.182C39.4099 30.2063 39.4257 30.2344 39.4357 30.2649C39.4457 30.2953 39.4497 30.3275 39.4474 30.3595L36.8543 67.6652C36.8501 67.7269 36.823 67.7846 36.7787 67.8268C36.7343 67.869 36.6759 67.8925 36.6152 67.8925Z" fill="white"/>
<path d="M39.498 66.4238C39.4924 66.4238 39.4865 66.4235 39.4809 66.4231C39.4494 66.4208 39.4188 66.4123 39.3906 66.3979C39.3624 66.3836 39.3372 66.3637 39.3166 66.3395C39.2959 66.3153 39.2801 66.2871 39.2702 66.2566C39.2602 66.2262 39.2562 66.194 39.2584 66.162L41.8516 28.8564C41.8534 28.8242 41.8615 28.7928 41.8755 28.7639C41.8895 28.735 41.9089 28.7092 41.9328 28.6881C41.9567 28.667 41.9845 28.6509 42.0145 28.6409C42.0446 28.6309 42.0763 28.6271 42.1078 28.6297C42.1392 28.632 42.1699 28.6405 42.1981 28.6549C42.2263 28.6692 42.2514 28.6891 42.2721 28.7133C42.2927 28.7375 42.3085 28.7657 42.3185 28.7961C42.3285 28.8266 42.3325 28.8588 42.3302 28.8908L39.7371 66.1964C39.7329 66.2581 39.7059 66.3159 39.6615 66.3581C39.6171 66.4003 39.5587 66.4237 39.498 66.4238Z" fill="white"/>
<path d="M113.188 70.3379C113.194 70.3379 113.2 70.3376 113.205 70.3371C113.237 70.3349 113.268 70.3263 113.296 70.312C113.324 70.2977 113.349 70.2778 113.37 70.2536C113.39 70.2293 113.406 70.2012 113.416 70.1707C113.426 70.1403 113.43 70.1081 113.428 70.0761L110.835 32.7704C110.833 32.7383 110.825 32.7068 110.811 32.6779C110.797 32.649 110.777 32.6233 110.753 32.6021C110.73 32.581 110.702 32.565 110.672 32.555C110.642 32.5449 110.61 32.5411 110.579 32.5438C110.547 32.546 110.516 32.5546 110.488 32.5689C110.46 32.5833 110.435 32.6031 110.414 32.6274C110.394 32.6516 110.378 32.6797 110.368 32.7102C110.358 32.7407 110.354 32.7728 110.356 32.8048L112.949 70.1105C112.953 70.1722 112.98 70.2299 113.025 70.2721C113.069 70.3143 113.128 70.3378 113.188 70.3379Z" fill="white"/>
<path d="M110.071 68.1347C110.077 68.1347 110.083 68.1345 110.088 68.134C110.12 68.1318 110.15 68.1232 110.179 68.1089C110.207 68.0945 110.232 68.0747 110.253 68.0504C110.273 68.0262 110.289 67.9981 110.299 67.9676C110.309 67.9371 110.313 67.905 110.311 67.873L107.718 30.5673C107.716 30.5352 107.708 30.5037 107.694 30.4748C107.68 30.4459 107.66 30.4201 107.636 30.399C107.612 30.3779 107.585 30.3619 107.555 30.3518C107.525 30.3418 107.493 30.338 107.461 30.3407C107.43 30.3429 107.399 30.3515 107.371 30.3658C107.343 30.3801 107.318 30.4 107.297 30.4242C107.276 30.4485 107.261 30.4766 107.251 30.5071C107.241 30.5375 107.237 30.5697 107.239 30.6017L109.832 67.9074C109.836 67.969 109.863 68.0268 109.908 68.069C109.952 68.1112 110.01 68.1347 110.071 68.1347Z" fill="white"/>
<path d="M107.188 65.6933C107.194 65.6933 107.2 65.6931 107.205 65.6926C107.237 65.6904 107.268 65.6818 107.296 65.6675C107.324 65.6532 107.349 65.6333 107.37 65.6091C107.39 65.5848 107.406 65.5567 107.416 65.5262C107.426 65.4958 107.43 65.4636 107.428 65.4316L104.835 28.1259C104.833 28.0938 104.825 28.0623 104.811 28.0334C104.797 28.0045 104.777 27.9787 104.753 27.9576C104.73 27.9365 104.702 27.9204 104.672 27.9104C104.642 27.9004 104.61 27.8966 104.579 27.8993C104.547 27.9015 104.516 27.9101 104.488 27.9244C104.46 27.9387 104.435 27.9586 104.414 27.9828C104.394 28.0071 104.378 28.0352 104.368 28.0657C104.358 28.0961 104.354 28.1283 104.356 28.1603L106.949 65.466C106.953 65.5277 106.98 65.5854 107.025 65.6276C107.069 65.6698 107.128 65.6933 107.188 65.6933Z" fill="white"/>
<path d="M48.2777 32.4527C53.6885 30.6939 59.725 31.1595 64.851 33.6374C66.3136 34.3407 67.6949 35.2075 68.9695 36.2218C69.3301 36.5102 69.8431 35.9944 69.4787 35.703C64.7706 31.9824 58.8549 30.215 52.9202 30.7558C51.2784 30.9055 49.6574 31.2372 48.0862 31.7452C47.6464 31.8882 47.8344 32.5968 48.2777 32.4527H48.2777Z" fill="#3F3D56"/>
<path d="M78.0515 36.5045C83.0821 33.8105 89.1062 33.223 94.5759 34.7523C96.1352 35.1872 97.6422 35.7977 99.069 36.5724C99.4777 36.7946 99.8419 36.1615 99.4324 35.9389C94.2194 33.1048 87.9617 32.4524 82.2691 34.0322C80.681 34.4737 79.1449 35.0903 77.688 35.871C77.2776 36.0908 77.6412 36.7242 78.0515 36.5045Z" fill="#3F3D56"/>
<path d="M78.0515 41.3991C83.0821 38.705 89.1062 38.1176 94.5759 39.6468C96.1352 40.0817 97.6422 40.6922 99.069 41.467C99.4777 41.6892 99.8419 41.056 99.4324 40.8334C94.2194 37.9993 87.9617 37.3469 82.2691 38.9268C80.681 39.3683 79.1449 39.9848 77.688 40.7655C77.2776 40.9853 77.6412 41.6188 78.0515 41.3991V41.3991Z" fill="#3F3D56"/>
<path d="M99.6097 46.0262C99.6134 45.9632 99.5985 45.9005 99.5669 45.8463C99.5353 45.792 99.4883 45.7488 99.4322 45.7221C95.2561 43.4941 90.5211 42.5905 85.8367 43.1274C85.8073 43.1298 85.7802 43.1346 85.7485 43.137H85.7473C85.7185 43.1397 85.6899 43.1441 85.6615 43.1502C82.8753 43.4769 80.1724 44.3257 77.6892 45.6538C77.635 45.6867 77.5902 45.7333 77.5591 45.7891C77.528 45.845 77.5117 45.9081 77.5117 45.9723V55.0971C77.5126 55.1533 77.526 55.2085 77.551 55.2586C77.5759 55.3087 77.6117 55.3523 77.6556 55.3862C77.6995 55.4201 77.7505 55.4434 77.8045 55.4543C77.8586 55.4652 77.9144 55.4635 77.9677 55.4492C78.0782 55.4168 78.1886 55.3857 78.3014 55.3558C80.8119 54.6634 83.389 54.2527 85.9871 54.1309C86.0423 54.1285 86.0975 54.1261 86.1551 54.1237C88.2712 54.0311 90.3911 54.1088 92.4952 54.356C92.5393 54.3585 92.5832 54.3633 92.6268 54.3703C92.7349 54.3823 92.8454 54.3955 92.9535 54.4099C92.997 54.4146 93.0381 54.4194 93.0781 54.4266C93.4988 54.4805 93.916 54.5416 94.3343 54.6074C94.9384 54.7056 95.5424 54.815 96.1464 54.9355C96.184 54.9427 96.2228 54.9523 96.2616 54.9594C97.2311 55.1558 98.1959 55.3833 99.1561 55.6347C99.2095 55.6488 99.2654 55.6503 99.3195 55.6391C99.3737 55.628 99.4246 55.6045 99.4685 55.5703C99.5124 55.5362 99.5481 55.4924 99.573 55.4421C99.5979 55.3919 99.6112 55.3366 99.612 55.2803V46.0405C99.6124 46.0356 99.6116 46.0307 99.6097 46.0262Z" fill="#3F3D56"/>
<path d="M86.4 43.6269C86.1362 43.4953 85.8338 43.4682 85.5515 43.551C85.4268 43.5986 85.3126 43.671 85.2156 43.764C85.1186 43.8569 85.0407 43.9686 84.9863 44.0925C84.8885 44.3301 84.8258 44.5811 84.8003 44.8374C84.7854 44.9382 84.7845 45.0655 84.8839 45.1125C84.92 45.1259 84.959 45.1289 84.9967 45.1213C85.0344 45.1137 85.0693 45.0958 85.0977 45.0694C85.1491 45.0178 85.1914 44.9577 85.2228 44.8915C85.3955 44.6177 85.6332 44.3928 85.9138 44.2373C86.1944 44.0819 86.509 44.001 86.8284 44.0021L87.0943 44.1101C86.8851 43.9181 86.6516 43.7556 86.4 43.6269Z" fill="#FF6582"/>
<path d="M89.28 45.7292C89.0737 45.4198 88.8292 45.0894 88.4463 44.9883C88.0029 44.8713 87.5474 45.1038 87.1611 45.3332C86.0122 46.0149 84.8996 46.7583 83.8281 47.5602L83.8293 47.5722L86.3164 47.4167C86.9154 47.3792 87.5349 47.3366 88.0643 47.0796C88.2544 46.9582 88.4668 46.8776 88.6885 46.8428C88.8261 46.8504 88.9608 46.8857 89.0849 46.9466C89.2091 47.0075 89.3201 47.0929 89.4117 47.1977C90.5579 48.3047 90.8896 49.9974 92.1755 50.9699C91.3572 49.1429 90.3886 47.3898 89.28 45.7292Z" fill="white"/>
<path d="M86.1574 54.1225C86.0998 54.1249 86.0446 54.1274 85.9894 54.1298C85.5885 53.9831 85.178 53.8535 84.7628 53.7409C84.4939 53.6676 84.2203 53.6015 83.9466 53.5453C83.6369 53.4768 83.3249 53.423 83.0128 53.3765C82.4187 53.2885 81.8199 53.2371 81.2197 53.2225C81.2151 53.223 81.2105 53.2225 81.2062 53.2211C81.2018 53.2196 81.1978 53.2173 81.1944 53.2142C81.191 53.2111 81.1883 53.2072 81.1864 53.203C81.1846 53.1987 81.1836 53.1941 81.1836 53.1895C81.1836 53.1848 81.1846 53.1802 81.1864 53.1759C81.1883 53.1717 81.191 53.1679 81.1944 53.1647C81.1978 53.1616 81.2018 53.1593 81.2062 53.1579C81.2105 53.1564 81.2151 53.1559 81.2197 53.1564C81.2965 53.1564 81.3733 53.1589 81.4477 53.1638C82.0492 53.1864 82.6488 53.246 83.2433 53.3423C83.5529 53.3937 83.8626 53.4548 84.1699 53.5233C84.4483 53.5869 84.7267 53.6578 85.0004 53.7361C85.3917 53.8486 85.7773 53.9774 86.1574 54.1225Z" fill="white"/>
<path d="M93.0803 54.4274C93.0395 54.4201 92.9987 54.4152 92.9555 54.4103C92.7899 54.2709 92.6219 54.1388 92.4466 54.0092C92.2282 53.8478 92.0025 53.6962 91.7721 53.5543C91.2618 53.2387 90.7289 52.9623 90.1782 52.7277C89.3074 52.3582 88.4061 52.0685 87.4849 51.8619C86.4341 51.6273 85.3703 51.4575 84.2995 51.3532C83.2289 51.2406 82.1535 51.1722 81.0781 51.1037C81.0325 51.1013 81.0301 51.0328 81.0781 51.0352C81.2125 51.045 81.3469 51.0523 81.4837 51.0621C82.5711 51.1306 83.6585 51.2089 84.7388 51.3336C85.8098 51.4506 86.8723 51.6385 87.9194 51.8961C88.8132 52.1206 89.6857 52.4258 90.5263 52.8084C91.0097 53.0297 91.478 53.2838 91.9281 53.569C92.2137 53.7524 92.4898 53.9481 92.7538 54.1559C92.8643 54.244 92.9747 54.3321 93.0803 54.4274Z" fill="white"/>
<path d="M92.6268 54.3703C92.5831 54.3631 92.539 54.3582 92.4948 54.3556C92.4444 54.314 92.3915 54.2749 92.3388 54.2357C91.9692 53.9663 91.5836 53.7204 91.1841 53.4996C90.8213 53.2987 90.4488 53.1167 90.0679 52.9542C89.1975 52.5837 88.2961 52.2939 87.3746 52.0884C86.3238 51.8539 85.26 51.684 84.1892 51.5797C83.1186 51.4672 82.0432 51.3988 80.9678 51.3303C80.9222 51.3254 80.9222 51.2593 80.9678 51.2618C81.1046 51.2716 81.239 51.2789 81.3735 51.2887C82.4609 51.3571 83.5483 51.4354 84.6285 51.5602C85.6995 51.6771 86.762 51.865 87.8091 52.1227C88.7031 52.3467 89.5755 52.652 90.4159 53.0349C90.7328 53.1817 91.0425 53.3406 91.3449 53.5143C91.7934 53.7652 92.222 54.0514 92.6268 54.3703Z" fill="white"/>
<path d="M96.2611 54.9613C96.2227 54.954 96.1842 54.9442 96.1458 54.9369C96.1027 54.8904 96.0618 54.8415 96.021 54.7926C95.8146 54.5504 95.6106 54.3059 95.4089 54.0589C94.6144 53.0953 93.8606 52.1023 93.1501 51.0898C92.5404 50.224 91.9619 49.3411 91.4146 48.4411C91.1529 48.0155 90.9008 47.5851 90.6536 47.1497C90.4616 46.8123 90.2743 46.4739 90.0919 46.1348C90.0391 46.0369 89.9887 45.9391 89.9383 45.8413C89.8206 45.6114 89.703 45.379 89.5782 45.1516C89.4425 44.8729 89.2433 44.6314 88.9973 44.4472C88.8743 44.3633 88.732 44.3136 88.5844 44.303C88.3763 44.3037 88.1716 44.3575 87.9891 44.4594C86.6461 45.0967 85.3792 45.8885 84.2132 46.8196C83.0744 47.722 82.0446 48.7589 81.1454 49.9085C81.1166 49.9427 81.0542 49.9109 81.0806 49.8743C81.1886 49.7373 81.299 49.6003 81.4094 49.4658C82.2736 48.4244 83.2468 47.4821 84.3116 46.6557C84.314 46.6533 84.3188 46.6508 84.3212 46.6484C84.4148 46.5726 84.5085 46.4992 84.6044 46.4283C85.199 45.9822 85.8177 45.5707 86.4577 45.1956C86.7841 45.0024 87.1177 44.819 87.4586 44.6453C87.5426 44.6013 87.629 44.5573 87.7154 44.5157C87.8019 44.4717 87.8883 44.4301 87.9747 44.3885C88.1458 44.2997 88.3328 44.2472 88.5244 44.2345C89.1917 44.2247 89.535 44.9095 89.7726 45.3717C89.8471 45.516 89.9239 45.6603 89.9983 45.8046C90.2864 46.35 90.5864 46.893 90.8985 47.4286C91.0881 47.7612 91.2849 48.0914 91.4842 48.4191C91.7698 48.8862 92.0627 49.3484 92.3675 49.8083C92.3675 49.8086 92.3676 49.8089 92.3677 49.8092C92.3678 49.8095 92.368 49.8098 92.3682 49.81C92.3685 49.8102 92.3687 49.8104 92.369 49.8105C92.3693 49.8107 92.3696 49.8107 92.3699 49.8107C92.7228 50.3536 93.0901 50.8868 93.4694 51.4175C94.1199 52.3249 94.8016 53.2118 95.5146 54.0785C95.7594 54.3768 96.0082 54.6711 96.2611 54.9613Z" fill="white"/>
<path d="M99.6153 53.8852V53.9977C99.3776 53.714 99.1352 53.4327 98.8951 53.1514C98.7943 53.034 98.6935 52.9167 98.5927 52.7993C98.1654 52.3052 97.7357 51.8128 97.3036 51.3221C96.8691 50.8329 96.4346 50.3438 95.9953 49.8571C95.8897 49.7397 95.7841 49.6223 95.6761 49.5049C95.5897 49.4063 95.4957 49.3147 95.3952 49.231C95.2938 49.145 95.1774 49.0794 95.052 49.0377C94.9077 48.997 94.7555 48.9953 94.6103 49.0329C94.4447 49.072 94.2862 49.1332 94.1254 49.1845C93.9598 49.2408 93.7965 49.2946 93.6309 49.3484C93.2996 49.4584 92.9708 49.5685 92.6395 49.6785C92.6354 49.6802 92.631 49.6811 92.6266 49.681C92.6222 49.6809 92.6179 49.6799 92.6138 49.6781C92.6098 49.6763 92.6062 49.6737 92.6031 49.6704C92.6001 49.6671 92.5978 49.6632 92.5963 49.659C92.5944 49.6543 92.5936 49.6493 92.5938 49.6443C92.594 49.6393 92.5953 49.6344 92.5976 49.63C92.5999 49.6255 92.6031 49.6217 92.6071 49.6187C92.611 49.6156 92.6155 49.6135 92.6203 49.6125C92.702 49.5856 92.786 49.5587 92.87 49.5318C93.2036 49.4193 93.5349 49.3093 93.8686 49.1992C94.0342 49.1429 94.1998 49.0891 94.3655 49.0353C94.5191 48.9759 94.6813 48.9428 94.8456 48.9375C95.1137 48.9571 95.3651 49.0774 95.5513 49.275C95.6545 49.3728 95.7481 49.4755 95.8417 49.5807C95.9521 49.703 96.0626 49.8253 96.173 49.9476C96.6171 50.4416 97.0579 50.9373 97.4956 51.4346C97.9349 51.9335 98.3702 52.4332 98.8015 52.9338C98.8327 52.9705 98.8639 53.0072 98.8951 53.0439C99.1376 53.3226 99.3752 53.6039 99.6153 53.8852Z" fill="white"/>
<path d="M87.6982 44.1604L87.6318 44.19C87.4797 43.9283 87.2665 43.7089 87.0112 43.5514C86.7559 43.3939 86.4663 43.3032 86.1682 43.2871C85.1854 43.216 84.3222 43.8833 84.2437 44.7745C84.2118 45.1415 84.3161 45.5073 84.5359 45.7998L84.4743 45.8369C84.2453 45.5323 84.1367 45.1514 84.1699 44.7692C84.2516 43.8411 85.1507 43.1462 86.1741 43.2203C86.4845 43.2369 86.7861 43.3315 87.052 43.4955C87.3178 43.6595 87.5399 43.8879 87.6982 44.1604Z" fill="#FF6582"/>
<path d="M82.8408 45.9624C82.5829 45.8481 82.302 45.7979 82.0213 45.8161C81.7406 45.8344 81.4682 45.9204 81.2266 46.067C82.1086 46.2049 82.983 46.39 83.846 46.6215C83.4887 46.4316 83.2092 46.134 82.8408 45.9624Z" fill="white"/>
<path d="M81.2226 46.0664L81.125 46.1381C81.158 46.113 81.1924 46.0895 81.2276 46.0672L81.2226 46.0664Z" fill="white"/>
<path d="M95.3571 49.6787C95.2665 49.5597 95.1456 49.4682 95.0076 49.4141L94.8711 49.4189C95.9424 51.1175 97.3461 52.5728 98.9942 53.6938C97.7819 52.3555 96.5695 51.0171 95.3571 49.6787Z" fill="white"/>
<path d="M84.149 46.4828C84.1102 46.4436 84.0718 46.4045 84.0328 46.3653C83.734 46.034 83.3742 45.7658 82.9738 45.5758C82.77 45.4884 82.5513 45.4424 82.3302 45.4405C82.1017 45.446 81.8757 45.4906 81.6618 45.5727C81.5612 45.6092 81.4628 45.6505 81.3659 45.6946C81.2552 45.7451 81.1464 45.799 81.0381 45.8534C80.8349 45.9554 80.6343 46.0618 80.4364 46.1728C80.0425 46.3935 79.661 46.6311 79.2918 46.8856C79.1005 47.0175 78.913 47.1538 78.7295 47.2944C78.5589 47.425 78.3917 47.5591 78.2279 47.6968C78.1929 47.7261 78.1406 47.6786 78.1756 47.6493C78.2188 47.6129 78.2625 47.5767 78.3061 47.5409C78.4294 47.4398 78.5547 47.3406 78.6819 47.2434C78.914 47.0658 79.1521 46.8951 79.3962 46.7312C79.7757 46.4763 80.1683 46.2386 80.574 46.0182C80.7767 45.9082 80.9822 45.8028 81.1905 45.702C81.2534 45.6716 81.3171 45.6418 81.3814 45.6136C81.5284 45.5465 81.6801 45.4905 81.8352 45.4461C82.0577 45.3812 82.2904 45.3604 82.5206 45.3851C82.741 45.4137 82.9549 45.4808 83.1529 45.5834C83.5454 45.8075 83.8994 46.0952 84.2013 46.4351C84.2328 46.4673 84.1808 46.515 84.149 46.4828Z" fill="white"/>
<path d="M48.2777 37.3434C53.6885 35.5845 59.725 36.0502 64.851 38.528C66.3136 39.2314 67.6949 40.0982 68.9695 41.1125C69.3301 41.4008 69.8431 40.8851 69.4787 40.5937C64.7706 36.873 58.8549 35.1056 52.9202 35.6464C51.2784 35.7961 49.6574 36.1279 48.0862 36.6359C47.6464 36.7788 47.8344 37.4875 48.2777 37.3434H48.2777Z" fill="#3F3D56"/>
<path d="M48.2777 42.234C53.6885 40.4751 59.725 40.9408 64.851 43.4187C66.3136 44.122 67.6949 44.9888 68.9695 46.0031C69.3301 46.2914 69.8431 45.7757 69.4787 45.4843C64.7706 41.7637 58.8549 39.9962 52.9202 40.537C51.2784 40.6867 49.6574 41.0185 48.0862 41.5265C47.6464 41.6695 47.8344 42.3781 48.2777 42.234H48.2777Z" fill="#3F3D56"/>
<path d="M48.2777 47.1285C53.6885 45.3697 59.725 45.8353 64.851 48.3132C66.3136 49.0165 67.6949 49.8833 68.9695 50.8976C69.3301 51.1859 69.8431 50.6702 69.4787 50.3788C64.7706 46.6582 58.8549 44.8907 52.9202 45.4315C51.2784 45.5812 49.6574 45.913 48.0862 46.421C47.6464 46.564 47.8344 47.2726 48.2777 47.1285H48.2777Z" fill="#3F3D56"/>
<path d="M48.2777 52.0192C53.6885 50.2603 59.725 50.7259 64.851 53.2038C66.3136 53.9071 67.6949 54.774 68.9695 55.7883C69.3301 56.0766 69.8431 55.5609 69.4787 55.2695C64.7706 51.5488 58.8549 49.7814 52.9202 50.3222C51.2784 50.4719 49.6574 50.8037 48.0862 51.3116C47.6464 51.4546 47.8344 52.1633 48.2777 52.0192H48.2777Z" fill="#3F3D56"/>
<path d="M48.2777 56.9098C53.6885 55.1509 59.725 55.6166 64.851 58.0944C66.3136 58.7978 67.6949 59.6646 68.9695 60.6789C69.3301 60.9672 69.8431 60.4515 69.4787 60.1601C64.7706 56.4395 58.8549 54.672 52.9202 55.2128C51.2784 55.3625 49.6574 55.6943 48.0862 56.2023C47.6464 56.3452 47.8344 57.0539 48.2777 56.9098L48.2777 56.9098Z" fill="#3F3D56"/>
<path d="M67.7726 24.5846V38.294C67.7726 38.5275 67.373 38.7226 66.8336 38.7753C66.7396 38.7849 66.6409 38.7897 66.5386 38.7897C66.2418 38.7954 65.9463 38.7464 65.6666 38.6448C65.6148 38.6243 65.5645 38.5999 65.5162 38.5718C65.3822 38.4916 65.3047 38.397 65.3047 38.294V23.5273C65.7442 23.677 66.1543 23.8339 66.5386 23.9967C66.9852 24.1859 67.3953 24.3822 67.7726 24.5846Z" fill="#9CD8DF"/>
<path d="M72.9463 29.2852H72.5938V73.6318H72.9463V29.2852Z" fill="#E6E6E6"/>
<path d="M104.412 65.0217C104.048 65.4072 103.609 65.7102 103.123 65.911C102.637 66.1119 102.114 66.206 101.59 66.1873C99.9597 66.1286 98.0141 66.0992 95.9025 66.1441L95.8906 66.1337L105.042 54.0469L105.437 62.1054C105.477 62.6376 105.406 63.1723 105.229 63.6747C105.052 64.1772 104.774 64.6362 104.412 65.0217Z" fill="#F2F2F2"/>
<path d="M81.6258 107.266L81.1377 111.303L80.7648 114.371L80.6157 115.609H78.4939V114.509L78.4922 110.869V107.266H81.6258Z" fill="#FFB6B6"/>
<path d="M66.8315 106.839L66.2299 108.731L65.7468 110.249L65.6638 110.51L65.3333 111.547L64.6351 113.742L64.2877 114.835L62.3573 114.455L62.2031 114.426L62.3285 113.766L62.4048 113.364L63.2488 108.906L63.3861 108.187L63.4081 108.072L63.4708 107.738L63.7555 106.234L65.8129 106.638L66.0502 106.685L66.8315 106.839Z" fill="#FFB6B6"/>
<path d="M84.8134 83.2214C83.5999 90.0159 83.2966 92.9496 83.2966 92.9496C83.2966 92.9496 84.2067 94.0305 83.5999 94.6487C82.9932 95.2668 83.5999 96.5014 83.5999 96.5014L82.2357 111.48L81.1375 111.299L78.492 110.866L77.5378 110.709L78.1446 96.6568C78.1446 96.6568 77.5378 95.4205 77.8412 95.1114C78.1446 94.8023 77.5378 92.9496 77.5378 92.9496L76.7803 78.2796L72.0808 94.3396C72.0808 94.3396 72.5366 94.9577 72.0808 95.4205C71.6266 95.8832 70.7182 98.2005 70.7182 98.2005L67.9236 108.163L67.6863 109.01L66.2288 108.732L64.6425 108.428L64.351 108.372L63.8324 108.272L63.4986 108.208L63.385 108.188L62.8359 108.082L63.002 107.331L63.0885 106.936L65.4526 96.2372L65.5069 95.9903L65.5645 95.7296C65.5645 95.7296 65.2611 94.9578 65.7153 94.4933C65.8482 94.3517 65.9452 94.1793 65.9981 93.991C66.0509 93.8027 66.058 93.6041 66.0187 93.4124C66.0038 93.3962 65.9902 93.3789 65.978 93.3606C65.9243 93.2855 65.8873 93.1995 65.8695 93.1085C65.8289 92.9151 65.8644 92.644 66.1712 92.3314C66.2576 92.2379 66.3301 92.1321 66.3864 92.0172C66.8474 91.1279 67.0796 89.2441 67.0796 89.2441C67.0796 89.2441 67.4897 74.3238 68.8319 72.0445C68.885 71.9451 68.9598 71.8594 69.0506 71.7941C70.5657 70.8686 85.115 71.7941 85.115 71.7941C85.115 71.7941 85.1354 71.9012 85.1676 72.105C85.3422 73.2498 85.8421 77.4577 84.8134 83.2214Z" fill="#2F2E41"/>
<path d="M84.3398 55.8107L84.7647 53.2031L92.5881 54.5446L103.688 55.3537C103.929 55.0823 104.249 54.8973 104.602 54.8263C104.954 54.7554 105.32 54.8023 105.644 54.9601C105.968 55.1179 106.233 55.3781 106.4 55.702C106.568 56.0259 106.628 56.3961 106.572 56.7576C106.516 57.1191 106.347 57.4525 106.089 57.7081C105.832 57.9638 105.501 58.1281 105.145 58.1764C104.789 58.2248 104.427 58.1548 104.114 57.9767C103.8 57.7987 103.551 57.5221 103.404 57.1882L96.5961 57.6549L84.3398 55.8107Z" fill="#FFB6B6"/>
<path d="M78.4922 54.007L79.0446 51.6793C79.0446 51.6793 82.0443 51.1167 84.4159 51.655L93.3379 53.3995L92.6157 58.8944L78.4922 54.007Z" fill="#9CD8DF"/>
<path d="M57.7822 73.1771L62.7738 62.1291L66.4165 54.3125L69.5757 56.2069L59.741 74.3929C59.8274 74.7171 59.8174 75.0601 59.7124 75.3786C59.6075 75.6971 59.4121 75.9767 59.1512 76.1821C58.8902 76.3874 58.5754 76.5094 58.2464 76.5324C57.9175 76.5555 57.5892 76.4786 57.3031 76.3116C57.017 76.1445 56.786 75.8948 56.6392 75.594C56.4924 75.2932 56.4364 74.9548 56.4784 74.6215C56.5204 74.2883 56.6584 73.9753 56.875 73.722C57.0916 73.4687 57.3771 73.2865 57.6953 73.1985C57.7241 73.1906 57.7531 73.1834 57.7823 73.177L57.7822 73.1771Z" fill="#FFB6B6"/>
<path d="M72.1786 50.9583L69.7558 49.8257C69.7558 49.8257 69.3262 49.6738 68.3997 50.9808C67.4733 52.2877 59.5039 64.62 59.5039 64.62L64.5646 66.9508L72.1786 50.9583Z" fill="#9CD8DF"/>
<path d="M84.3713 118.013L81.2174 115.792V114.344L80.7683 114.371L78.4973 114.51L77.8991 114.546L77.4855 119.591L77.4805 119.662H78.9701L78.9837 119.591L79.2362 118.229L79.8819 119.591L79.9158 119.662H83.868C83.9866 119.662 84.1041 119.638 84.2137 119.591C84.3604 119.528 84.4877 119.426 84.5823 119.295C84.6769 119.165 84.7353 119.011 84.7514 118.85C84.7676 118.688 84.7408 118.525 84.6739 118.378C84.607 118.231 84.5025 118.105 84.3713 118.013H84.3713Z" fill="#2F2E41"/>
<path d="M67.5477 118.144L66.1733 116.617L65.214 115.55L65.0564 115.374L65.0327 115.348L64.9564 115.264L65.2733 113.851L64.6361 113.744L62.4058 113.366L62.2855 113.347L62.0483 113.306L61.994 113.297L61.2331 115.74L60.5433 117.949L60.4688 118.19L61.3856 118.403L61.9211 118.527L62.1855 117.909L62.2143 117.843L62.3872 117.437V117.436L62.494 117.191L62.8448 118.741L62.9058 118.755L62.9143 118.757L63.1295 118.807L63.5498 118.905L66.4885 119.589L66.6969 119.637C66.9265 119.689 67.167 119.647 67.3661 119.519C67.5651 119.391 67.7065 119.189 67.7595 118.955C67.7914 118.813 67.7888 118.664 67.7519 118.523C67.715 118.381 67.6449 118.251 67.5477 118.144Z" fill="#2F2E41"/>
<path d="M81.1502 43.8349C80.8075 44.4757 80.3316 45.0327 79.7559 45.4669C79.1801 45.9011 78.5183 46.2021 77.8167 46.3489C77.7387 46.3662 77.6607 46.38 77.5811 46.3921C76.4801 46.5675 75.3532 46.3581 74.3839 45.798C73.4145 45.2379 72.6597 44.3601 72.2422 43.3074C71.8248 42.2547 71.7692 41.089 72.0847 40.0001C72.4001 38.9111 73.0679 37.963 73.9794 37.3099C74.891 36.6567 75.9926 36.3371 77.1051 36.403C78.2176 36.4689 79.2755 36.9164 80.1067 37.6727C80.9378 38.429 81.4933 39.4496 81.6828 40.5684C81.8723 41.6873 81.6845 42.8385 81.1502 43.8349Z" fill="#FFB6B6"/>
<path d="M79.1871 37.0112C77.572 35.8796 76.1498 35.7072 74.9815 36.0281C74.8301 35.7895 74.6177 35.5973 74.3672 35.4723C73.456 33.1331 70.6831 31.7283 68.3034 32.4112C65.9083 33.0986 64.2558 35.8016 64.7065 38.2948C64.9857 39.8403 65.9404 41.1785 66.3243 42.7005C67.0676 45.6467 65.2544 49.0216 62.418 49.9713C65.1036 50.5207 68.0598 48.8493 69.0233 46.2368C69.4912 44.9678 69.5194 43.5824 69.5789 42.2282C69.5946 41.2934 69.707 40.363 69.9143 39.4523C70.0171 39.0437 70.1625 38.6475 70.3479 38.2703C70.7516 37.4413 71.4222 36.7784 72.2477 36.3923C72.1738 36.6253 72.1553 36.8728 72.1938 37.1144C72.2323 37.3561 72.3266 37.585 72.469 37.7822C71.8392 38.586 71.4964 39.4554 71.4964 39.976C70.188 42.4123 72.059 44.5051 74.4503 45.8381C75.4041 46.3726 76.5054 46.5682 77.5805 46.3941L77.6805 45.959L77.8161 46.3509L78.2685 47.665C78.7905 47.9222 79.308 48.2043 79.821 48.511C79.6261 47.5786 79.4684 46.6479 79.36 45.738C79.2098 44.4994 79.7333 42.6556 80.111 41.5343C80.3452 40.8433 80.4654 40.1174 80.4667 39.3863V39.3544L80.8344 40.5579L82.1732 39.976C81.9242 38.5204 82.1732 36.8679 79.1871 37.0112Z" fill="#2F2E41"/>
<path d="M68.8984 70.4059C69.0744 69.6964 69.0744 68.9535 68.8984 68.2441C68.5953 67.1631 69.2015 66.6999 69.2015 66.6999L69.3531 50.0227C69.9934 49.3703 71.709 49.3596 72.6687 49.4104V48.676C72.6687 48.4055 72.7742 48.1461 72.9619 47.9549C73.1496 47.7637 73.4041 47.6563 73.6696 47.6562H78.1079C78.3734 47.6563 78.6279 47.7637 78.8156 47.9549C79.0033 48.1461 79.1088 48.4055 79.1088 48.676V49.5563L80.4106 49.5772C82.6774 49.7492 84.6608 52.0301 84.6608 52.0301L82.6905 59.751C82.6905 59.751 83.2967 66.0822 84.0545 66.8543C84.8123 67.6264 84.5092 68.0896 84.5092 68.0896C84.5092 68.0896 84.0545 69.7882 84.9639 70.4059C85.8733 71.0236 85.267 72.1045 85.267 72.1045C85.267 72.1045 68.8984 72.4134 68.4437 71.9501C67.989 71.4869 68.8984 70.4059 68.8984 70.4059Z" fill="#9CD8DF"/>
</g>
<path opacity="0.1" d="M135.999 69.5598C135.999 69.6509 135.999 69.7421 135.999 69.8317C135.984 71.4038 135.896 72.9718 135.734 74.5359C135.735 74.5454 135.735 74.5549 135.734 74.5643C135.721 74.6943 135.707 74.8228 135.693 74.9528C135.669 75.1725 135.643 75.3907 135.615 75.6103C135.284 78.2842 134.737 80.9233 133.98 83.499C132.965 86.9793 131.531 90.308 129.711 93.4035C129.152 94.3499 128.556 95.2659 127.923 96.1515C127.585 96.6208 127.241 97.0795 126.885 97.5308C126.635 97.8466 126.381 98.1574 126.122 98.4633L125.96 98.6516C124.597 100.229 123.128 101.7 121.564 103.054C119.011 105.283 116.263 107.223 113.471 109.022C113.312 109.125 113.152 109.227 112.991 109.321C112.98 109.33 112.968 109.337 112.956 109.344C109.161 111.761 105.225 113.943 101.171 115.69C96.7321 117.607 92.1486 119.001 87.446 119.611C80.8913 120.46 74.2572 119.77 67.7422 118.583C62.3238 117.602 56.971 116.254 51.7171 114.548L50.852 114.263C50.4038 114.113 49.9562 113.959 49.509 113.803C46.8079 112.861 44.137 111.815 41.4964 110.665C34.8644 107.786 28.5288 104.202 22.5882 99.9666C21.8318 99.4306 21.0863 98.8827 20.3517 98.3228C19.325 97.5438 18.3105 96.7418 17.3084 95.9169L16.6901 95.4118C14.0674 93.2479 11.6102 90.87 9.34118 88.3003C6.28931 84.8005 3.68133 80.8525 1.96678 76.3456C1.69638 75.6372 1.44868 74.9155 1.22366 74.1803L1.20239 74.107C1.08894 73.7335 0.983995 73.3599 0.887561 72.9713C0.745745 72.4154 0.621421 71.8526 0.514586 71.2827C0.491896 71.1737 0.472042 71.0646 0.453606 70.954C0.114651 69.0363 -0.0350531 67.0867 0.00688685 65.1365C0.0423556 63.4278 0.232302 61.7265 0.574149 60.0558C0.924038 58.3238 1.46322 56.6404 2.18092 55.0393C2.8295 53.5995 3.65588 52.2564 4.63858 51.0449C5.32912 50.1979 6.1057 49.4332 6.95443 48.7645C8.49312 47.5571 10.1992 46.7158 11.9676 46.0508C12.7986 45.737 13.641 45.462 14.4877 45.2065C15.0875 45.0242 15.6903 44.8508 16.2901 44.6805L18.06 44.1769C19.1945 43.8511 20.329 43.5164 21.4465 43.1548C24.4927 42.1745 27.478 40.988 30.2391 39.2187C30.6759 38.9392 31.1212 38.6329 31.5665 38.3041C32.1338 37.8887 32.6925 37.4374 33.2456 36.9503C33.8043 36.4571 34.3518 35.9296 34.8736 35.3707C34.9545 35.2841 35.0339 35.1974 35.1133 35.1092C35.5387 34.637 35.9514 34.1424 36.3343 33.6283C36.5215 33.3773 36.7031 33.1218 36.8761 32.8618C37.1157 32.5016 37.3426 32.1355 37.5525 31.7589C38.6048 29.8761 39.2543 27.7989 39.1777 25.6097C39.1665 25.249 39.1358 24.8893 39.0856 24.5323C38.9012 23.2128 38.7239 21.9247 38.5935 20.6649C38.046 15.4542 38.2772 10.7291 41.9885 6.2894C46.6032 0.770798 53.8457 -0.35444 60.4387 0.0863902C79.5001 1.35658 96.8527 12.8241 112.102 26.4764C113.421 27.656 114.724 28.8514 116.011 30.0629C116.335 30.3677 116.66 30.6745 116.985 30.9834C119.396 33.2712 121.77 35.6442 123.981 38.1861C124.159 38.3923 124.338 38.5985 124.514 38.8062C124.622 38.9348 124.731 39.0618 124.837 39.1918C125.526 40.0137 126.195 40.8555 126.844 41.7172C128.581 44.0049 130.115 46.456 131.427 49.0395C133.436 53.0939 134.796 57.4699 135.452 61.9909C135.699 63.6327 135.861 65.2874 135.938 66.9477C135.963 67.4363 135.978 67.9264 135.987 68.4151C135.987 68.572 135.987 68.7274 135.987 68.8843C136.001 69.1115 136.001 69.3326 135.999 69.5598Z" fill="#9CD8DF"/>
<defs>
<clipPath id="clip0_124_146756">
<rect width="99.6748" height="120" fill="white" transform="translate(21.8047)"/>
</clipPath>
</defs>
</svg>
