<svg width="136" height="120" viewBox="0 0 136 120" fill="none" xmlns="http://www.w3.org/2000/svg">
<g clip-path="url(#clip0_124_146840)">
<path opacity="0.1" d="M137.251 69.5598C137.251 69.6509 137.251 69.7421 137.251 69.8317C137.237 71.4038 137.15 72.9718 136.993 74.5359C136.993 74.5454 136.993 74.5549 136.993 74.5643C136.98 74.6943 136.966 74.8228 136.953 74.9528C136.929 75.1725 136.904 75.3907 136.876 75.6103C136.554 78.2842 136.02 80.9233 135.281 83.499C134.291 86.9793 132.891 90.308 131.116 93.4035C130.57 94.3499 129.989 95.2659 129.371 96.1515C129.042 96.6208 128.706 97.0795 128.359 97.5308C128.115 97.8466 127.867 98.1574 127.614 98.4633L127.456 98.6516C126.127 100.229 124.693 101.7 123.167 103.054C120.676 105.283 117.995 107.223 115.27 109.022C115.115 109.125 114.959 109.227 114.803 109.321C114.792 109.33 114.78 109.337 114.768 109.344C111.065 111.761 107.226 113.943 103.27 115.69C98.9389 117.607 94.4668 119.001 89.8785 119.611C83.4832 120.46 77.0104 119.77 70.6538 118.583C65.3671 117.602 60.1445 116.254 55.0182 114.548L54.1742 114.263C53.737 114.113 53.3002 113.959 52.8639 113.803C50.2284 112.861 47.6225 111.815 45.0461 110.665C38.5753 107.786 32.3937 104.202 26.5976 99.9666C25.8596 99.4306 25.1323 98.8827 24.4155 98.3228C23.4137 97.5438 22.4239 96.7418 21.4461 95.9169L20.8429 95.4118C18.284 93.2479 15.8865 90.87 13.6727 88.3003C10.695 84.8005 8.15041 80.8525 6.47755 76.3456C6.21373 75.6372 5.97205 74.9155 5.75251 74.1803L5.73175 74.107C5.62106 73.7335 5.51866 73.3599 5.42458 72.9713C5.28621 72.4154 5.16491 71.8526 5.06067 71.2827C5.03853 71.1737 5.01916 71.0646 5.00117 70.954C4.67046 69.0363 4.52439 67.0867 4.56531 65.1365C4.59992 63.4278 4.78525 61.7265 5.11878 60.0558C5.46017 58.3238 5.98624 56.6404 6.68649 55.0393C7.3193 53.5995 8.12559 52.2564 9.08439 51.0449C9.75814 50.1979 10.5158 49.4332 11.3439 48.7645C12.8452 47.5571 14.5098 46.7158 16.2352 46.0508C17.0461 45.737 17.868 45.462 18.694 45.2065C19.2793 45.0242 19.8674 44.8508 20.4527 44.6805L22.1795 44.1769C23.2864 43.8511 24.3934 43.5164 25.4837 43.1548C28.4558 42.1745 31.3685 40.988 34.0625 39.2187C34.4887 38.9392 34.9231 38.6329 35.3576 38.3041C35.9111 37.8887 36.4562 37.4374 36.9959 36.9503C37.541 36.4571 38.0751 35.9296 38.5843 35.3707C38.6632 35.2841 38.7407 35.1974 38.8182 35.1092C39.2333 34.637 39.6359 34.1424 40.0095 33.6283C40.1922 33.3773 40.3693 33.1218 40.5381 32.8618C40.7719 32.5016 40.9933 32.1355 41.1981 31.7589C42.2248 29.8761 42.8585 27.7989 42.7838 25.6097C42.7729 25.249 42.7428 24.8893 42.6939 24.5323C42.514 23.2128 42.341 21.9247 42.2137 20.6649C41.6796 15.4542 41.9052 10.7291 45.5262 6.2894C50.0287 0.770798 57.0951 -0.35444 63.5278 0.0863902C82.1258 1.35658 99.0565 12.8241 113.935 26.4764C115.222 27.656 116.493 28.8514 117.749 30.0629C118.065 30.3677 118.382 30.6745 118.699 30.9834C121.051 33.2712 123.368 35.6442 125.525 38.1861C125.699 38.3923 125.873 38.5985 126.045 38.8062C126.15 38.9348 126.257 39.0618 126.361 39.1918C127.033 40.0137 127.686 40.8555 128.318 41.7172C130.014 44.0049 131.511 46.456 132.79 49.0395C134.75 53.0939 136.077 57.4699 136.717 61.9909C136.958 63.6327 137.116 65.2874 137.192 66.9477C137.215 67.4363 137.231 67.9264 137.239 68.4151C137.239 68.572 137.239 68.7274 137.239 68.8843C137.253 69.1115 137.253 69.3326 137.251 69.5598Z" fill="#9CD8DF"/>
<path d="M127.322 23.3755C132.182 30.3701 131.106 39.431 131.106 39.431C131.106 39.431 122.152 37.1515 117.292 30.157C112.432 23.1625 113.507 14.1016 113.507 14.1016C113.507 14.1016 122.462 16.381 127.322 23.3755Z" fill="#2F2E41"/>
<path d="M123.826 24.7131C124.394 33.1742 130.922 39.6366 130.922 39.6366C130.922 39.6366 136.528 32.3807 135.959 23.9196C135.39 15.4584 128.863 8.99609 128.863 8.99609C128.863 8.99609 123.257 16.252 123.826 24.7131Z" fill="#9CD8DF"/>
<path d="M68.0304 0.178331L134.011 32.9017C134.559 33.1738 135.014 33.5995 135.319 34.1256C135.623 34.6516 135.764 35.2545 135.722 35.8589L131.889 91.873C131.872 92.1242 131.792 92.3674 131.656 92.5807C131.52 92.794 131.333 92.9708 131.111 93.0954C130.89 93.22 130.64 93.2885 130.385 93.2948C130.13 93.301 129.877 93.2448 129.649 93.1312L62.1641 59.1566L65.6287 1.54381C65.6449 1.27318 65.7291 1.01078 65.8736 0.780168C66.0181 0.549556 66.2184 0.357959 66.4565 0.222584C66.6946 0.0872086 66.9631 0.0122948 67.2378 0.00457082C67.5125 -0.00315316 67.7849 0.0565543 68.0304 0.178331Z" fill="#D0CDE1"/>
<path d="M68.7887 1.31858L133.148 33.2382C133.684 33.5036 134.127 33.9189 134.424 34.432C134.721 34.9451 134.858 35.5332 134.818 36.1227L131.079 90.761C131.062 91.006 130.984 91.2432 130.851 91.4513C130.719 91.6593 130.537 91.8318 130.32 91.9534C130.104 92.0749 129.86 92.1417 129.612 92.1478C129.363 92.1539 129.116 92.0991 128.894 91.9883L63.0664 58.8481L66.4459 2.65052C66.4618 2.38654 66.5439 2.13058 66.6848 1.90563C66.8258 1.68068 67.0212 1.49379 67.2534 1.36174C67.4857 1.22969 67.7475 1.15662 68.0155 1.14909C68.2835 1.14155 68.5491 1.19979 68.7887 1.31858Z" fill="#3F3D56"/>
<path d="M71.6128 5.55657L129.953 34.4908C130.438 34.7313 130.84 35.1078 131.11 35.5729C131.379 36.038 131.503 36.5711 131.466 37.1055L128.077 86.6335C128.062 86.8556 127.991 87.0706 127.871 87.2592C127.751 87.4478 127.586 87.6042 127.389 87.7144C127.193 87.8245 126.973 87.8851 126.747 87.8906C126.521 87.8961 126.298 87.8465 126.096 87.746L66.4258 57.7054L69.4892 6.76394C69.5036 6.52465 69.578 6.29263 69.7058 6.08872C69.8335 5.88481 70.0106 5.7154 70.2212 5.5957C70.4317 5.476 70.6691 5.40976 70.912 5.40293C71.1549 5.3961 71.3957 5.4489 71.6128 5.55657Z" fill="white"/>
<path d="M11.412 86.7142L77.4767 119.535C78.0916 119.84 78.7703 119.998 79.4585 119.997C80.1467 119.997 80.8251 119.836 81.4391 119.53L130.312 95.0563C130.885 94.4909 130.805 93.6532 130.622 93.0242C130.533 92.7197 130.412 92.4253 130.26 92.1457L123.6 88.6902L67.6056 61.1304L64.2602 59.3785C63.3745 58.9158 62.3883 58.672 61.3861 58.668C60.3839 58.664 59.3958 58.9 58.5063 59.3555L11.3914 83.4981C11.0916 83.651 10.8406 83.8827 10.666 84.1676C10.4915 84.4525 10.4002 84.7795 10.4024 85.1124C10.4045 85.4453 10.5 85.7711 10.6782 86.0538C10.8564 86.3365 11.1103 86.5651 11.412 86.7142Z" fill="#D0CDE1"/>
<path opacity="0.1" d="M11.4128 86.7147L77.4775 119.535C78.0923 119.84 78.7711 119.999 79.4593 119.998C80.1474 119.997 80.8258 119.837 81.4398 119.53L130.313 95.0567C130.886 94.4914 130.806 93.6537 130.622 93.0247L81.8957 118.009C81.3011 118.314 80.6419 118.476 79.9718 118.481C79.3017 118.487 78.6398 118.336 78.04 118.041L10.4267 84.8125C10.3632 85.1919 10.4246 85.5814 10.6021 85.9238C10.7796 86.2662 11.0638 86.5434 11.4128 86.7147Z" fill="black"/>
<path opacity="0.1" d="M74.1189 96.5505L52.7238 85.8852C52.293 85.6704 51.8162 85.5612 51.3336 85.5666C50.8511 85.572 50.3769 85.692 49.9512 85.9163L37.5398 92.4573C37.3964 92.5329 37.2768 92.6459 37.194 92.7839C37.1112 92.9219 37.0685 93.0798 37.0704 93.2401C37.0723 93.4005 37.1188 93.5573 37.2049 93.6934C37.2909 93.8294 37.4132 93.9396 37.5584 94.0118L59.3729 104.863C59.7351 105.044 60.1368 105.133 60.5423 105.124C60.9479 105.115 61.3449 105.007 61.6984 104.811L74.1593 97.8854C74.2808 97.8179 74.3812 97.7189 74.4498 97.5991C74.5183 97.4794 74.5523 97.3434 74.5482 97.2059C74.544 97.0684 74.5018 96.9347 74.4262 96.8192C74.3505 96.7037 74.2442 96.6108 74.1189 96.5505Z" fill="black"/>
<path opacity="0.1" d="M124.506 94.7655L101.483 106.831C101.218 106.97 100.923 107.044 100.623 107.047C100.323 107.05 100.026 106.982 99.7588 106.848L34.7086 74.3973C34.5253 74.3059 34.3714 74.1659 34.2642 73.9931C34.157 73.8202 34.1007 73.6214 34.1016 73.4188C34.1025 73.2162 34.1605 73.0178 34.2692 72.8459C34.3779 72.674 34.533 72.5353 34.7171 72.4454L57.1997 61.4683C57.5386 61.3029 57.9118 61.2174 58.2899 61.2188C58.6679 61.2201 59.0405 61.3081 59.3781 61.476L124.496 93.841C124.582 93.8839 124.655 93.9495 124.706 94.0304C124.757 94.1114 124.785 94.2048 124.786 94.3002C124.787 94.3956 124.761 94.4895 124.712 94.5716C124.662 94.6536 124.591 94.7207 124.506 94.7655Z" fill="black"/>
<path d="M87.7756 34.5964L87.6602 34.8242L108.827 45.2645L108.943 45.0367L87.7756 34.5964Z" fill="#9CD8DF"/>
<path d="M87.7737 37.6563L87.6562 37.8828L108.829 48.5667L108.947 48.3401L87.7737 37.6563Z" fill="#9CD8DF"/>
<path d="M91.6526 43.5076L91.5352 43.7344L103.666 49.8489L103.783 49.6221L91.6526 43.5076Z" fill="#9CD8DF"/>
<path d="M25.3773 56.2548C25.3773 56.2548 20.2155 54.036 17.7911 56.3798C15.3666 58.7235 24.2824 57.9521 25.3773 56.2548Z" fill="#3F3D56"/>
<path d="M16.4645 45.7323C18.1991 42.841 21.631 42.7062 21.631 42.7062C21.631 42.7062 24.9751 42.2844 27.1204 46.6879C29.1199 50.7923 31.8795 54.7553 27.5646 55.7161L26.7852 53.3231L26.3026 55.8942C25.6882 55.9378 25.0719 55.9482 24.4564 55.9254C19.8355 55.7782 15.4348 55.9684 15.5765 54.3327C15.7649 52.1582 14.7954 48.5143 16.4645 45.7323Z" fill="#2F2E41"/>
<path d="M14.0352 98.1484C14.0352 98.1484 16.2251 102.16 17.6328 102.16C19.0406 102.16 18.8842 104.783 18.5713 105.4C18.2585 106.018 17.4764 107.406 18.7278 109.412C19.1648 110.113 19.0866 110.908 18.7998 111.645C17.9962 113.712 14.87 113.086 14.9698 110.875C14.9709 110.85 14.9722 110.826 14.9738 110.801C15.1302 108.332 13.8788 104.475 12.6275 103.549C11.3762 102.623 10.2812 100.154 10.2812 100.154L14.0352 98.1484Z" fill="#FFB8B8"/>
<path d="M29.0547 97.2188C29.0547 97.2188 26.8649 101.231 25.4571 101.231C24.0494 101.231 24.2058 103.854 24.5186 104.471C24.8314 105.088 25.6135 106.477 24.3622 108.483C23.9251 109.183 24.0033 109.978 24.2901 110.716C25.0938 112.783 28.2199 112.156 28.1202 109.945C28.1191 109.921 28.1178 109.896 28.1162 109.871C27.9598 107.402 29.2111 103.545 30.4624 102.619C31.7138 101.693 32.8087 99.2246 32.8087 99.2246L29.0547 97.2188Z" fill="#FFB8B8"/>
<path d="M27.332 77.4707L28.2705 79.4766C28.2705 79.4766 42.0352 83.9513 40.7838 89.1975C39.5325 94.4437 33.4322 102.622 32.4937 102.313C31.5552 102.004 26.5499 101.079 26.3935 98.4555C26.2371 95.8324 29.9911 91.2034 29.9911 91.2034L24.8293 86.5744L17.3181 86.4201L10.9082 91.2034C10.9082 91.2034 17.6341 97.0668 14.6622 99.3813C11.6903 101.696 7.31061 103.239 6.68495 102.313C6.05928 101.387 -0.97948 87.6545 0.115437 86.4201C1.21035 85.1857 12.316 80.5567 12.316 80.5567L15.2879 76.3906L26.8627 75.7734L27.332 77.4707Z" fill="#2F2E41"/>
<path d="M24.515 52.0135C24.515 52.0135 23.7329 57.1054 25.2971 57.7226C26.8612 58.3397 22.1687 60.9628 22.1687 60.9628H19.5096L17.7891 57.414C17.7891 57.414 19.3532 54.6366 18.4147 52.0135C17.4762 49.3904 24.515 52.0135 24.515 52.0135Z" fill="#FFB8B8"/>
<path opacity="0.1" d="M24.515 52.0135C24.515 52.0135 23.7329 57.1054 25.2971 57.7226C26.8612 58.3397 22.1687 60.9628 22.1687 60.9628H19.5096L17.7891 57.414C17.7891 57.414 19.3532 54.6366 18.4147 52.0135C17.4762 49.3904 24.515 52.0135 24.515 52.0135Z" fill="black"/>
<path d="M25.6122 56.332C25.6122 56.332 23.8916 58.1836 23.5788 58.4922C23.266 58.8008 21.8582 60.4981 18.8863 58.0293C15.9144 55.5606 15.6016 58.4922 15.6016 58.4922V77.0082C15.6016 77.0082 18.1042 75.9281 20.1377 77.0082C22.1711 78.0882 26.3943 76.6996 26.3943 76.6996L27.1764 57.5664L25.6122 56.332Z" fill="#D0CDE1"/>
<path d="M24.4618 56.3329C24.4618 56.3329 25.9236 55.7157 27.1749 56.3329C28.4263 56.9501 32.806 60.0361 32.4931 61.4248C32.1803 62.8135 28.1134 72.5343 30.929 77.1633C33.7445 81.7923 34.2137 83.0267 34.2137 83.0267L27.3314 79.4778C27.3314 79.4778 22.0132 76.2375 22.4824 74.2316C22.9517 72.2257 24.4618 56.3329 24.4618 56.3329Z" fill="#3F3D56"/>
<path d="M18.2581 56.332C18.2581 56.332 14.9752 56.6406 14.8188 56.9492C14.6623 57.2578 9.89162 58.5694 10.2045 59.9581C10.5173 61.3468 14.8188 73.7678 12.9418 76.0823C11.0648 78.3968 7.93641 81.6371 9.03133 81.9457C10.1262 82.2543 12.0033 81.4828 13.8803 81.9457C15.7573 82.4086 20.1369 78.5511 19.6677 74.385C19.1984 70.219 19.664 57.4121 18.2581 56.332Z" fill="#3F3D56"/>
<path d="M26.0794 85.8027V87.3457C26.0794 87.3457 26.8614 90.8946 24.3588 90.7403C21.8561 90.586 23.4203 86.4199 23.4203 86.4199L23.5767 85.0312L26.0794 85.8027Z" fill="#FFB8B8"/>
<path d="M19.0422 85.957C19.0422 85.957 20.7628 89.5059 19.0422 89.8145C17.3216 90.1231 16.0703 87.8086 16.0703 87.1914C16.0703 86.5742 19.0422 85.957 19.0422 85.957Z" fill="#FFB8B8"/>
<path d="M16.7738 50.5469C16.9465 50.5469 17.0866 50.2706 17.0866 49.9297C17.0866 49.5888 16.9465 49.3125 16.7738 49.3125C16.601 49.3125 16.4609 49.5888 16.4609 49.9297C16.4609 50.2706 16.601 50.5469 16.7738 50.5469Z" fill="#FFB8B8"/>
<path d="M26.0042 50.5469C26.177 50.5469 26.3171 50.2706 26.3171 49.9297C26.3171 49.5888 26.177 49.3125 26.0042 49.3125C25.8315 49.3125 25.6914 49.5888 25.6914 49.9297C25.6914 50.2706 25.8315 50.5469 26.0042 50.5469Z" fill="#FFB8B8"/>
<path d="M14.0359 58.3398C14.0359 58.3398 10.1255 58.3398 10.2819 59.8828C10.4383 61.4258 15.6001 87.9653 15.6001 87.9653C15.6001 87.9653 17.7899 85.9594 19.6669 86.4223L14.0359 58.3398Z" fill="#3F3D56"/>
<path d="M29.2098 58.8008C29.2098 58.8008 33.1202 59.5723 33.1202 61.8868C33.1202 64.2013 27.4892 86.4204 26.7071 86.4204C25.925 86.4204 22.9531 85.9575 22.9531 85.186C22.9531 84.4145 29.2098 58.8008 29.2098 58.8008Z" fill="#3F3D56"/>
<path opacity="0.2" d="M28.3475 63.3555L24.8281 76.9324C24.8281 76.9324 26.4705 65.0528 28.3475 63.3555Z" fill="black"/>
<path opacity="0.2" d="M14.6602 61.4453L18.2196 79.1965C18.2196 79.1965 17.082 62.4693 14.6602 61.4453Z" fill="black"/>
<path d="M21.3877 54.4806C23.8929 54.4806 25.9237 52.4772 25.9237 50.0059C25.9237 47.5346 23.8929 45.5312 21.3877 45.5312C18.8824 45.5312 16.8516 47.5346 16.8516 50.0059C16.8516 52.4772 18.8824 54.4806 21.3877 54.4806Z" fill="#FFB8B8"/>
<path d="M17.2318 45.4549L20.6224 43.7031L25.3044 44.4197L26.2731 48.6403L23.8618 48.5489L23.1881 46.9983V48.5233L22.0754 48.4811L21.4295 46.0124L21.026 48.6403L17.0703 48.5608L17.2318 45.4549Z" fill="#2F2E41"/>
<path d="M68.0728 19.4737L66.2031 23.8602L81.9842 32.0317L87.3009 16.6836" fill="#F2F2F2"/>
<path d="M81.621 29.3428L88.5925 13.1608L72.5693 5.38281L65.8398 21.1713L81.621 29.3428Z" fill="#9CD8DF"/>
<path d="M72.1917 11.5701L72.0742 11.7969L84.205 17.9114L84.3225 17.6846L72.1917 11.5701Z" fill="white"/>
<path d="M71.2815 13.7224L71.1641 13.9492L83.2949 20.0637L83.4124 19.8369L71.2815 13.7224Z" fill="white"/>
</g>
<defs>
<clipPath id="clip0_124_146840">
<rect width="136" height="120" fill="white"/>
</clipPath>
</defs>
</svg>
