<svg xmlns="http://www.w3.org/2000/svg" xmlns:xlink="http://www.w3.org/1999/xlink" width="120" height="100" viewBox="0 0 120 100">
    <defs>
        <path id="a" d="M0 0h120v100H0z"/>
        <filter id="c" width="139.3%" height="128.6%" x="-19.7%" y="-14.3%" filterUnits="objectBoundingBox">
            <feOffset dy="2" in="SourceAlpha" result="shadowOffsetOuter1"/>
            <feGaussianBlur in="shadowOffsetOuter1" result="shadowBlurOuter1" stdDeviation="2"/>
            <feColorMatrix in="shadowBlurOuter1" result="shadowMatrixOuter1" values="0 0 0 0 0.901960784 0 0 0 0 0.419607843 0 0 0 0 0 0 0 0 0.6 0"/>
            <feMerge>
                <feMergeNode in="shadowMatrixOuter1"/>
                <feMergeNode in="SourceGraphic"/>
            </feMerge>
        </filter>
        <linearGradient id="d" x1="0%" y1="50%" y2="50%">
            <stop offset="0%" stop-color="#FF9A00"/>
            <stop offset="100%" stop-color="#F70"/>
        </linearGradient>
    </defs>
    <g fill="none" fill-rule="evenodd">
        <mask id="b" fill="#fff">
            <use xlink:href="#a"/>
        </mask>
        <g mask="url(#b)">
            <path fill="#FFF6EF" d="M61 0c27.614 0 50 22.386 50 50s-22.386 50-50 50-50-22.386-50-50S33.386 0 61 0"/>
            <path fill="#6E2585" d="M12.183 52.674a1.687 1.687 0 1 1-3.374 0 1.687 1.687 0 0 1 3.374 0"/>
            <path fill="#7AB800" d="M20.599 28.376a.844.844 0 1 1 0 1.687.844.844 0 0 1 0-1.687M111.606 52.357a.844.844 0 1 1 0 1.689.844.844 0 0 1 0-1.689"/>
            <path fill="#FFBE1D" d="M98.175 76.43a.844.844 0 1 1 0 1.688.844.844 0 0 1 0-1.687"/>
            <path fill="#F03B20" d="M99.8 20.122l.44-1.641c.128-.472.797-.472.924 0l.443 1.64a.478.478 0 0 0 .337.338l1.64.442c.472.127.472.796 0 .923l-1.64.442a.475.475 0 0 0-.337.337l-.443 1.64c-.127.473-.796.473-.923 0l-.441-1.64a.478.478 0 0 0-.338-.337l-1.641-.442c-.471-.127-.471-.796 0-.923l1.64-.442a.481.481 0 0 0 .339-.337"/>
            <path fill="#5D9BEC" d="M21.849 79.268l.31-1.154c.089-.332.56-.332.65 0l.31 1.154a.336.336 0 0 0 .238.237l1.154.31c.33.09.33.56 0 .65l-1.154.31a.334.334 0 0 0-.237.238l-.311 1.154c-.09.33-.561.33-.65 0l-.31-1.154a.336.336 0 0 0-.237-.237l-1.155-.311c-.332-.09-.332-.56 0-.65l1.155-.31a.337.337 0 0 0 .237-.237"/>
            <path fill="#FCB788" d="M81.075 86.673l-23.102-4.357a8 8 0 0 1-6.377-9.344l7.977-42.298a8 8 0 0 1 9.344-6.378l23.101 4.357a8 8 0 0 1 6.38 9.344l-7.979 42.297a8 8 0 0 1-9.344 6.379"/>
            <path fill="#F9D4BB" d="M80.582 81.282l-20.186-3.808a6 6 0 0 1-4.783-7.007l6.789-35.997a6 6 0 0 1 7.008-4.784l20.186 3.807a6 6 0 0 1 4.784 7.008l-6.79 35.997a6 6 0 0 1-7.008 4.784"/>
            <g filter="url(#c)" transform="translate(22 6)">
                <path fill="url(#d)" d="M45.277.682L8.133 4.662a8 8 0 0 0-7.102 8.807l6.792 63.377a7.999 7.999 0 0 0 8.806 7.102l37.144-3.98a8.001 8.001 0 0 0 7.103-8.807L54.084 7.785A8 8 0 0 0 45.277.682"/>
                <path fill="#FFF" d="M50.335 73.265l-31.766 3.404a6 6 0 0 1-6.605-5.327L6.245 17.97a6 6 0 0 1 5.326-6.605L43.337 7.96a6 6 0 0 1 6.605 5.327l5.72 53.373a6 6 0 0 1-5.327 6.604"/>
                <path fill="#FFBE1D" d="M40.182 57.128l-6.487-2.76a3.601 3.601 0 0 0-3.344.275l-5.951 3.78c-2.523 1.6-5.785-.384-5.523-3.36l.619-7.023a3.6 3.6 0 0 0-1.293-3.095l-5.434-4.492c-2.303-1.904-1.423-5.621 1.488-6.291l6.87-1.58a3.6 3.6 0 0 0 2.544-2.187l2.594-6.557c1.099-2.778 4.905-3.09 6.442-.528l3.627 6.046a3.602 3.602 0 0 0 2.866 1.743l7.037.44c2.98.187 4.455 3.712 2.493 5.964L44.1 42.82a3.608 3.608 0 0 0-.772 3.264l1.756 6.829c.744 2.893-2.153 5.384-4.902 4.214"/>
            </g>
        </g>
    </g>
</svg>
